<svg width="47" height="48" viewBox="0 0 47 48" fill="none" xmlns="http://www.w3.org/2000/svg">
<path d="M12.6148 4.97034H39.5421V43.0296H12.6148V4.97034Z" fill="#FFF5B5"/>
<path d="M35.8703 4.97034H39.5421V43.0296H35.8703V4.97034Z" fill="#FFEF8F"/>
<path d="M16.0114 29.9214H35.9098V39.193H16.0114V29.9214Z" fill="#D9DDFF"/>
<path d="M12.6148 4.97034H39.5421V12.0625H12.6148V4.97034Z" fill="#FFD54D"/>
<path d="M35.8703 4.97034H39.5421V12.0625H35.8703V4.97034Z" fill="#FFC919"/>
<path d="M28.5181 8.26428H35.9098V16.6826H28.5181V8.26428Z" fill="#7776D0"/>
<path d="M21.6303 45.0647C22.7648 43.399 23.4299 41.3749 23.4299 39.1923C23.4299 37.6044 23.0776 36.1008 22.4489 34.7579C22.2076 34.2423 22.1731 33.711 22.1731 33.1541C22.1731 28.1767 18.2221 24.1417 13.3485 24.1417C8.47478 24.1417 4.52385 28.1767 4.52385 33.1541C4.52385 33.7133 4.48722 34.2459 4.24524 34.7637C3.57623 36.1953 3.22116 37.8091 3.27183 39.5127C3.33296 41.5669 3.99106 43.4727 5.0727 45.0564L21.6303 45.0647Z" fill="#B36212"/>
<path d="M3.90816 47.2968C3.90816 41.978 8.13008 37.6664 13.338 37.6664C18.5459 37.6664 22.7678 41.978 22.7678 47.2968H3.90816Z" fill="#FF8CCC"/>
<path d="M13.338 37.6664C12.7097 37.6664 12.0959 37.7291 11.5021 37.8488C15.8312 38.7213 19.096 42.6197 19.096 47.2968H22.7678C22.7678 41.9781 18.546 37.6664 13.338 37.6664Z" fill="#FF78C2"/>
<path d="M17.7912 29.3849C14.9858 35.5005 8.65783 34.3964 7.26711 34.1211C7.51349 37.3263 10.1363 39.8493 13.338 39.8493C16.7024 39.8493 19.4296 37.0639 19.4296 33.628C19.4296 31.9875 18.807 30.4964 17.7912 29.3849Z" fill="#FFDBD3"/>
<path d="M17.7912 29.3848C17.2009 30.6716 16.4546 31.6387 15.6313 32.3612C15.7143 32.7702 15.7579 33.1937 15.7579 33.6278C15.7579 36.4102 13.9693 38.766 11.5023 39.5614C12.0816 39.7483 12.6983 39.849 13.3381 39.849C16.7024 39.849 19.4297 37.0636 19.4297 33.6278C19.4296 31.9875 18.807 30.4963 17.7912 29.3848V29.3848Z" fill="#FFD1C7"/>
<path d="M8.42386 10.0489C8.80417 10.0489 9.11234 9.73406 9.11234 9.34575V1.40625H16.8855C17.2658 1.40625 17.574 1.09144 17.574 0.703125C17.574 0.314813 17.2658 0 16.8855 0H8.42386C8.04354 0 7.73538 0.314813 7.73538 0.703125V9.34575C7.73538 9.73416 8.04354 10.0489 8.42386 10.0489V10.0489Z" fill="black"/>
<path d="M43.7331 37.9512C43.3528 37.9512 43.0447 38.266 43.0447 38.6543V46.5938H35.2715C34.8912 46.5938 34.583 46.9086 34.583 47.2969C34.583 47.6852 34.8912 48 35.2715 48H43.7331C44.1134 48 44.4216 47.6852 44.4216 47.2969V38.6543C44.4216 38.2659 44.1134 37.9512 43.7331 37.9512Z" fill="black"/>
<path d="M16.0114 9.21961H23.8754C24.2557 9.21961 24.5639 8.90479 24.5639 8.51648C24.5639 8.12817 24.2557 7.81335 23.8754 7.81335H16.0114C15.6311 7.81335 15.3229 8.12817 15.3229 8.51648C15.3229 8.90479 15.6311 9.21961 16.0114 9.21961Z" fill="black"/>
<path d="M16.0114 17.3855H23.8754C24.2557 17.3855 24.5639 17.0707 24.5639 16.6824C24.5639 16.2941 24.2557 15.9792 23.8754 15.9792H16.0114C15.6311 15.9792 15.3229 16.2941 15.3229 16.6824C15.3229 17.0707 15.6311 17.3855 16.0114 17.3855Z" fill="black"/>
<path d="M16.0114 21.7367H35.8964C36.2768 21.7367 36.5849 21.4219 36.5849 21.0336C36.5849 20.6453 36.2768 20.3304 35.8964 20.3304H16.0114C15.6311 20.3304 15.3229 20.6453 15.3229 21.0336C15.3229 21.4219 15.6311 21.7367 16.0114 21.7367V21.7367Z" fill="black"/>
<path d="M23.1602 43.7328H39.5422C39.9225 43.7328 40.2306 43.418 40.2306 43.0296V22.9062C40.2306 21.9971 38.8537 21.9971 38.8537 22.9062V42.3264H23.6725C23.9013 41.537 24.044 40.7202 24.096 39.896H35.9098C36.2901 39.896 36.5982 39.5811 36.5982 39.1928V29.9212C36.5982 29.5329 36.2901 29.2181 35.9098 29.2181H22.0456C21.5284 28.0307 20.7847 26.9681 19.8707 26.0877H31.4221C31.8024 26.0877 32.1106 25.7729 32.1106 25.3846C32.1106 24.9963 31.8024 24.6815 31.4221 24.6815H18.0006C16.6243 23.8902 15.0371 23.4384 13.3484 23.4384C13.3333 23.4384 13.3183 23.4384 13.3033 23.4385V12.7656H27.8296V16.6825C27.8296 17.0708 28.1378 17.3856 28.5181 17.3856H35.9098C36.2901 17.3856 36.5982 17.0708 36.5982 16.6825V12.7656H38.8536V19.0312C38.8536 19.9403 40.2305 19.9403 40.2305 19.0312V4.97034C40.2305 4.58202 39.9224 4.26721 39.5421 4.26721H12.6148C12.2345 4.26721 11.9264 4.58202 11.9264 4.97034V23.5451C10.3239 23.7881 8.82123 24.4433 7.51937 25.4754C6.81621 26.033 7.66074 27.1438 8.36372 26.5863C9.80071 25.447 11.5244 24.8449 13.3484 24.8449C17.8347 24.8449 21.4845 28.5724 21.4845 33.1541C21.4845 33.7637 21.5261 34.4165 21.8277 35.0611C22.434 36.356 22.7413 37.7459 22.7413 39.1922C22.7413 40.2881 22.566 41.3487 22.2188 42.3593C21.3266 40.6881 19.9895 39.2712 18.3312 38.3075C19.4403 37.0742 20.1181 35.4304 20.1181 33.6278C20.1181 31.869 19.4704 30.1918 18.2944 28.905C17.8559 28.5582 17.4803 28.6187 17.1677 29.0865C16.0766 31.4651 14.2897 32.9371 11.8566 33.4615C10.9169 33.6641 9.38046 33.8232 7.39829 33.4307C6.88469 33.4032 6.61214 33.6516 6.58093 34.176C6.6999 35.7236 7.32063 37.1715 8.34288 38.3086C6.69485 39.2669 5.36416 40.6729 4.47236 42.3312C4.16089 41.4219 3.98914 40.4716 3.95995 39.4913C3.91387 37.9411 4.21891 36.4523 4.86662 35.0665C5.17056 34.4162 5.21242 33.7631 5.21242 33.1541C5.21242 31.7377 5.56722 30.3397 6.23853 29.1112C6.67236 28.3174 5.46982 27.632 5.03617 28.4259C4.25058 29.8634 3.83547 31.4983 3.83547 33.154C3.83547 33.6814 3.80004 34.0839 3.62397 34.4607C2.88088 36.0507 2.53085 37.7576 2.58373 39.534C2.63146 41.1405 3.01306 42.6772 3.71843 44.1065C3.39319 45.1228 3.2197 46.1977 3.2197 47.2967C3.2197 47.685 3.52786 47.9998 3.90817 47.9998C4.28849 47.9998 4.59665 47.685 4.59665 47.2967C4.59665 43.9177 6.49437 40.8016 9.44848 39.2995C10.582 40.1125 11.9335 40.5521 13.338 40.5521C14.783 40.5521 16.1238 40.088 17.2251 39.2983C20.1806 40.7999 22.0794 43.9169 22.0794 47.2967C22.0794 47.685 22.3875 47.9998 22.7678 47.9998C23.1482 47.9998 23.4563 47.685 23.4563 47.2967C23.4563 46.2103 23.2869 45.1474 22.9687 44.1414C23.0354 44.0068 23.0991 43.8704 23.1602 43.7328V43.7328ZM35.2214 15.9793H29.2067V8.96727H35.2214V15.9793ZM38.8537 5.67346V11.3593H36.5983V8.26415C36.5983 7.87584 36.2902 7.56102 35.9098 7.56102H28.5182C28.1379 7.56102 27.8297 7.87584 27.8297 8.26415V11.3593H13.3033V5.67346H38.8537ZM8.09815 34.9684C9.84963 35.1929 11.2365 35.0325 12.1409 34.8375C14.625 34.3021 16.5968 32.8698 17.8991 30.67C18.4469 31.5483 18.7413 32.5696 18.7413 33.6278C18.7413 36.6706 16.3175 39.146 13.3381 39.146C10.8412 39.146 8.69033 37.372 8.09815 34.9684ZM22.5344 30.6245H35.2213V38.4898H24.097C24.0112 37.0837 23.6668 35.7293 23.07 34.4546C22.8963 34.0835 22.8615 33.6818 22.8615 33.1541C22.8615 32.2794 22.7476 31.4314 22.5344 30.6245V30.6245Z" fill="black"/>
</svg>
