<svg width="48" height="48" viewBox="0 0 48 48" fill="none" xmlns="http://www.w3.org/2000/svg">
<g clip-path="url(#clip0)">
<path d="M41.7255 10.6898V21.3019C41.7255 22.3374 40.8861 23.1769 39.8505 23.1769H14.3341L10.6569 26.8462V23.1769H2.57812C1.54256 23.1769 0.703125 22.3374 0.703125 21.3019V12.5648C0.703125 11.5293 1.54256 10.6898 2.57812 10.6898H41.7255Z" fill="#FFD54D"/>
<path d="M6.27451 2.5816V11.3186C6.27451 12.3542 7.11394 13.1936 8.14951 13.1936H33.6659L37.3431 16.863V13.1936H45.4219C46.4574 13.1936 47.2969 12.3542 47.2969 11.3186V2.5816C47.2969 1.54604 46.4574 0.706604 45.4219 0.706604H8.14951C7.11404 0.706604 6.27451 1.54604 6.27451 2.5816V2.5816Z" fill="#FFF5B5"/>
<path d="M45.4219 0.706604H41.6719C42.7074 0.706604 43.5469 1.54604 43.5469 2.5816V11.3186C43.5469 12.3542 42.7074 13.1936 41.6719 13.1936H45.4219C46.4574 13.1936 47.2969 12.3542 47.2969 11.3186V2.5816C47.2969 1.54604 46.4574 0.706604 45.4219 0.706604V0.706604Z" fill="#FFEF8F"/>
<path d="M47.2969 33.0189V41.7559C47.2969 42.7915 46.4574 43.6309 45.4219 43.6309H28.7181L26.8794 47.3003L25.0408 43.6309H8.14951C7.11394 43.6309 6.27451 42.7915 6.27451 41.7559V33.0189C6.27451 31.9833 7.11394 31.1439 8.14951 31.1439H45.4219C46.4574 31.1439 47.2969 31.9834 47.2969 33.0189Z" fill="#D4D9FF"/>
<path d="M26.8794 47.3004L28.7181 43.631H25.0409L26.8794 47.3004Z" fill="#C7CDFF"/>
<path d="M45.4219 31.1439H41.6719C42.7074 31.1439 43.5469 31.9833 43.5469 33.0189V41.7559C43.5469 42.7915 42.7074 43.6309 41.6719 43.6309H45.4219C46.4574 43.6309 47.2969 42.7915 47.2969 41.7559V33.0189C47.2969 31.9834 46.4574 31.1439 45.4219 31.1439Z" fill="#C7CDFF"/>
<path d="M16.9461 39.2221C17.773 39.2221 18.4432 38.5518 18.4432 37.725C18.4432 36.8982 17.773 36.2279 16.9461 36.2279C16.1193 36.2279 15.4491 36.8982 15.4491 37.725C15.4491 38.5518 16.1193 39.2221 16.9461 39.2221Z" fill="white"/>
<path d="M23.5058 39.2221C24.3327 39.2221 25.0029 38.5518 25.0029 37.725C25.0029 36.8982 24.3327 36.2279 23.5058 36.2279C22.679 36.2279 22.0087 36.8982 22.0087 37.725C22.0087 38.5518 22.679 39.2221 23.5058 39.2221Z" fill="white"/>
<path d="M30.0655 39.2221C30.8924 39.2221 31.5626 38.5518 31.5626 37.725C31.5626 36.8982 30.8924 36.2279 30.0655 36.2279C29.2387 36.2279 28.5684 36.8982 28.5684 37.725C28.5684 38.5518 29.2387 39.2221 30.0655 39.2221Z" fill="white"/>
<path d="M36.6253 39.2221C37.4522 39.2221 38.1224 38.5518 38.1224 37.725C38.1224 36.8982 37.4522 36.2279 36.6253 36.2279C35.7985 36.2279 35.1282 36.8982 35.1282 37.725C35.1282 38.5518 35.7985 39.2221 36.6253 39.2221Z" fill="white"/>
<path d="M13.5394 3.89307L14.479 5.79553L16.5802 6.1006L15.0597 7.58147L15.4187 9.67247L13.5394 8.68528L11.6602 9.67247L12.019 7.58147L10.4987 6.1006L12.5998 5.79553L13.5394 3.89307Z" fill="#FFD54D"/>
<path d="M45.4219 0.00457764H8.14959C6.72797 0.00457764 5.57147 1.16117 5.57147 2.5827V9.98773H2.57812C1.15659 9.98773 0 11.1443 0 12.5659V13.9733C0 14.8824 1.40625 14.8824 1.40625 13.9733V12.5659C1.40625 11.9196 1.93191 11.394 2.57812 11.394H5.5725C5.61197 12.7814 6.75272 13.8979 8.1495 13.8979H33.375L36.8463 17.3617C37.2925 17.807 38.0461 17.4695 38.0461 16.864V13.8978H41.0222V21.3028C41.0222 21.949 40.4965 22.4747 39.8503 22.4747H14.3341C14.1479 22.4747 13.9692 22.5485 13.8374 22.6801L11.36 25.1522V23.1779C11.36 22.7895 11.0452 22.4748 10.6568 22.4748H2.57812C1.93191 22.4748 1.40625 21.9491 1.40625 21.3029V17.8482C1.40625 16.9391 0 16.9391 0 17.8482V21.3029C0 22.7244 1.15659 23.881 2.57812 23.881H9.95381V26.8473C9.95381 27.4527 10.7074 27.7903 11.1536 27.345L14.6249 23.8811H39.8504C41.272 23.8811 42.4285 22.7245 42.4285 21.303V13.8979H45.4219C46.8434 13.8979 48 12.7414 48 11.3198V2.5827C48 1.16117 46.8434 0.00457764 45.4219 0.00457764V0.00457764ZM46.5938 11.3197C46.5938 11.9659 46.0681 12.4916 45.4219 12.4916H37.3431C36.9547 12.4916 36.6399 12.8063 36.6399 13.1947V15.1692L34.1625 12.697C34.0307 12.5655 33.852 12.4916 33.6658 12.4916H8.14959C7.50338 12.4916 6.97772 11.9659 6.97772 11.3197V2.5827C6.97772 1.93648 7.50338 1.41083 8.14959 1.41083H45.4219C46.0681 1.41083 46.5938 1.93648 46.5938 2.5827V11.3197Z" fill="black"/>
<path d="M45.4219 30.4407H43.9673C43.5788 30.4407 43.2641 30.7555 43.2641 31.1439C43.2641 31.5323 43.5788 31.847 43.9673 31.847H45.4219C46.0681 31.847 46.5938 32.3726 46.5938 33.0189V41.7559C46.5938 42.4021 46.0681 42.9278 45.4219 42.9278H28.7181C28.4519 42.9278 28.2086 43.078 28.0895 43.316L26.8794 45.7308L25.6695 43.316C25.5503 43.078 25.3071 42.9278 25.0409 42.9278H8.14951C7.50329 42.9278 6.97763 42.4021 6.97763 41.7559V33.0189C6.97763 32.3726 7.50329 31.847 8.14951 31.847H40.2186C40.607 31.847 40.9217 31.5323 40.9217 31.1439C40.9217 30.7555 40.607 30.4407 40.2186 30.4407H8.14951C6.72788 30.4407 5.57138 31.5973 5.57138 33.0189V41.7559C5.57138 43.1775 6.72788 44.334 8.14951 44.334H24.6068L26.2508 47.6153C26.5054 48.1234 27.2534 48.1234 27.508 47.6154L29.1522 44.334H45.4219C46.8435 44.334 48 43.1775 48 41.7559V33.0189C48 31.5973 46.8435 30.4407 45.4219 30.4407V30.4407Z" fill="black"/>
<path d="M14.7458 37.725C14.7458 38.9381 15.7328 39.9252 16.9461 39.9252C18.1593 39.9252 19.1464 38.9382 19.1464 37.725C19.1464 36.5118 18.1594 35.5248 16.9461 35.5248C15.7328 35.5248 14.7458 36.5119 14.7458 37.725ZM17.7401 37.725C17.7401 38.1628 17.384 38.519 16.9461 38.519C16.5083 38.519 16.1521 38.1628 16.1521 37.725C16.1521 37.2872 16.5083 36.931 16.9461 36.931C17.384 36.931 17.7401 37.2872 17.7401 37.725Z" fill="black"/>
<path d="M21.3056 37.725C21.3056 38.9381 22.2926 39.9252 23.5058 39.9252C24.7191 39.9252 25.7061 38.9382 25.7061 37.725C25.7061 36.5118 24.7191 35.5248 23.5058 35.5248C22.2926 35.5248 21.3056 36.5119 21.3056 37.725V37.725ZM24.2998 37.725C24.2998 38.1628 23.9436 38.519 23.5057 38.519C23.0679 38.519 22.7118 38.1628 22.7118 37.725C22.7118 37.2872 23.0679 36.931 23.5057 36.931C23.9436 36.931 24.2998 37.2872 24.2998 37.725Z" fill="black"/>
<path d="M27.8653 37.725C27.8653 38.9381 28.8523 39.9252 30.0655 39.9252C31.2788 39.9252 32.2658 38.9382 32.2658 37.725C32.2658 36.5118 31.2788 35.5248 30.0655 35.5248C28.8523 35.5248 27.8653 36.5119 27.8653 37.725ZM30.8595 37.725C30.8595 38.1628 30.5034 38.519 30.0655 38.519C29.6277 38.519 29.2716 38.1628 29.2716 37.725C29.2716 37.2872 29.6277 36.931 30.0655 36.931C30.5034 36.931 30.8595 37.2872 30.8595 37.725Z" fill="black"/>
<path d="M34.4251 37.725C34.4251 38.9381 35.4121 39.9252 36.6253 39.9252C37.8385 39.9252 38.8255 38.9382 38.8255 37.725C38.8255 36.5118 37.8385 35.5248 36.6253 35.5248C35.4121 35.5248 34.4251 36.5119 34.4251 37.725ZM37.4193 37.725C37.4193 38.1628 37.0631 38.519 36.6253 38.519C36.1875 38.519 35.8313 38.1628 35.8313 37.725C35.8313 37.2872 36.1875 36.931 36.6253 36.931C37.0631 36.931 37.4193 37.2872 37.4193 37.725Z" fill="black"/>
<path d="M42.2813 4.30963H20.2768C19.8884 4.30963 19.5737 4.62435 19.5737 5.01276C19.5737 5.40116 19.8884 5.71588 20.2768 5.71588H42.2813C42.6697 5.71588 42.9844 5.40116 42.9844 5.01276C42.9844 4.62435 42.6697 4.30963 42.2813 4.30963Z" fill="black"/>
<path d="M32.5313 7.84973H20.2768C19.8884 7.84973 19.5737 8.16445 19.5737 8.55286C19.5737 8.94126 19.8884 9.25598 20.2768 9.25598H32.5313C32.9197 9.25598 33.2344 8.94126 33.2344 8.55286C33.2344 8.16445 32.9197 7.84973 32.5313 7.84973Z" fill="black"/>
<path d="M16.6812 5.40478L14.9458 5.15278L14.1698 3.58162C13.9166 3.0689 13.1622 3.0689 12.909 3.58162L12.1331 5.15278L10.3977 5.40478C9.83145 5.487 9.59839 6.20503 10.0082 6.60422L11.2636 7.82709L10.9673 9.55359C10.8705 10.1175 11.4809 10.5607 11.9873 10.295L13.5395 9.47953L15.0919 10.295C15.5958 10.5595 16.2088 10.1178 16.1119 9.55359L15.8156 7.82709L17.071 6.60422C17.4805 6.20503 17.2474 5.487 16.6812 5.40478ZM14.5691 7.07784C14.2783 7.36115 14.3625 8.03925 14.4847 8.38772C13.8955 7.91493 13.1833 7.91484 12.5941 8.38772C12.8275 7.6875 12.6111 7.02075 12.0105 6.59165C12.749 6.59737 13.3163 6.18506 13.5394 5.4809C13.7624 6.18497 14.3297 6.59728 15.0683 6.59165L14.5691 7.07784Z" fill="black"/>
</g>
<defs>
<clipPath id="clip0">
<rect width="48" height="48" fill="white"/>
</clipPath>
</defs>
</svg>
