<svg width="46" height="46" viewBox="0 0 46 46" fill="none" xmlns="http://www.w3.org/2000/svg">
<path d="M9.56789 4.89763C10.3083 4.89323 11.0607 5.05764 11.7675 5.41277C14.1563 6.61304 15.1189 9.5209 13.9179 11.9079C13.0722 13.5884 11.3792 14.5612 9.61748 14.5717L9.63832 18.6473C12.8834 18.6281 16.0021 16.8337 17.56 13.7379C19.7726 9.34104 17.9992 3.9844 13.5989 1.77352C12.2969 1.11931 10.9108 0.814031 9.54704 0.822117L9.56789 4.89763Z" fill="#A6F5CF"/>
<path d="M7.41784 14.0566C5.02916 12.8564 4.06644 9.94846 5.26751 7.56149L1.62539 5.73145C-0.5872 10.1283 1.18616 15.485 5.58644 17.6958C6.8885 18.35 8.27455 18.6553 9.63842 18.6472L9.61758 14.5716C8.87711 14.5761 8.1247 14.4117 7.41784 14.0566V14.0566Z" fill="#FFD54D"/>
<path d="M9.56795 4.89762L9.54711 0.822021C6.30199 0.841247 3.18336 2.63563 1.62544 5.73152L5.26757 7.56157C6.11332 5.88093 7.80636 4.90814 9.56795 4.89762V4.89762Z" fill="#FF8CCC"/>
<path d="M34.8913 8.92529H8.63715V45.1782H29.2625L34.8913 39.4382V8.92529Z" fill="#FFF5B5"/>
<path d="M29.2625 45.1781V39.4381H34.8913L29.2625 45.1781Z" fill="#FFD54D"/>
<path d="M44.9457 32.1837C44.4425 32.6865 43.627 32.6865 43.1238 32.1837L35.2149 24.2808C34.7111 23.7774 34.7111 22.9609 35.2149 22.4575C35.718 21.9547 36.5335 21.9547 37.0368 22.4575L44.9457 30.3604C45.4495 30.8638 45.4495 31.6803 44.9457 32.1837V32.1837Z" fill="#7776D0"/>
<path d="M37.907 29.1696C37.2933 28.5563 37.2933 27.5616 37.907 26.9484L39.7156 25.1412C40.3287 24.5287 41.322 24.5287 41.9351 25.1412C42.5488 25.7545 42.5488 26.7492 41.9351 27.3624L40.1265 29.1696C39.5134 29.7821 38.52 29.7821 37.907 29.1696V29.1696Z" fill="#FFD54D"/>
<path d="M33.2072 28.7221C37.8793 28.7221 41.6667 24.9375 41.6667 20.269C41.6667 15.6005 37.8793 11.816 33.2072 11.816C28.5351 11.816 24.7477 15.6005 24.7477 20.269C24.7477 24.9375 28.5351 28.7221 33.2072 28.7221Z" fill="#D9DDFF"/>
<path d="M33.2072 11.816C32.5906 11.816 31.9895 11.8819 31.4104 12.0071C35.2194 12.8303 38.0731 16.2166 38.0731 20.269C38.0731 24.3215 35.2194 27.7078 31.4104 28.531C31.9895 28.6562 32.5906 28.7221 33.2072 28.7221C37.8793 28.7221 41.6667 24.9376 41.6667 20.269C41.6667 15.6005 37.8793 11.816 33.2072 11.816Z" fill="#C7CDFF"/>
<path d="M35.7508 22.9147C34.3484 22.3337 32.329 21.9538 30.6512 22.9145C29.1434 23.5797 27.9462 24.8167 27.3323 26.3504C30.5743 29.4783 35.8265 29.4822 39.0731 26.3593C38.4602 24.8215 37.2613 23.5813 35.7508 22.9147V22.9147Z" fill="#7776D0"/>
<path d="M33.2026 23.9346C35.3496 23.9346 37.0901 22.1941 37.0901 20.0471C37.0901 17.9002 35.3496 16.1597 33.2026 16.1597C31.0556 16.1597 29.3151 17.9002 29.3151 20.0471C29.3151 22.1941 31.0556 23.9346 33.2026 23.9346Z" fill="#FFDBD3"/>
<path d="M30.1681 15.973C30.1681 15.973 31.0389 21.4603 37.09 20.0471C37.09 20.0471 37.09 14.0485 30.1681 15.973V15.973Z" fill="#FFD54D"/>
<path d="M45.422 29.8839L42.8193 27.2832C43.4512 26.0647 42.8011 24.5165 41.4921 24.1092C42.0363 22.9413 42.3405 21.64 42.3405 20.2691C42.3405 16.051 39.4621 12.492 35.5651 11.4506V8.92521C35.5651 8.55309 35.2636 8.25141 34.8913 8.25141H19.07C18.3484 3.62491 14.2294 0.125808 9.54302 0.148178C5.91617 0.16965 2.65165 2.19294 1.02347 5.42854C-0.410288 8.27773 -0.333654 11.6418 1.22831 14.4275C1.65433 15.1874 2.82989 14.5283 2.40369 13.7684C1.17171 11.5713 1.01467 8.95593 1.9491 6.64821L4.39886 7.87902C3.98362 9.03248 3.96556 10.2836 4.3569 11.4657C4.91104 13.1393 6.27993 14.4792 7.96345 15.0002V17.8117C6.81439 17.5798 5.70235 17.0908 4.75202 16.404C4.04588 15.8938 3.25663 16.9859 3.96277 17.4962C5.14319 18.3492 6.52825 18.9353 7.96345 19.1825V45.1782C7.96345 45.5503 8.26513 45.852 8.63725 45.852H29.2626C29.4429 45.852 29.6177 45.7781 29.7436 45.6499L35.3724 39.9099C35.495 39.7849 35.5652 39.6124 35.5652 39.4382V35.5336C35.5652 34.6625 34.2176 34.6625 34.2176 35.5336V38.7644H29.2626C28.8904 38.7644 28.5888 39.0661 28.5888 39.4382V44.5044H9.31096V9.59901H34.2175V11.1976C33.8858 11.161 33.5486 11.1421 33.2072 11.1421C28.171 11.1421 24.0739 15.2364 24.0739 20.269C24.0739 25.2392 28.236 29.3958 33.2072 29.3958C33.5486 29.3958 33.8858 29.377 34.2175 29.3403V31.6932C34.2175 32.5644 35.5651 32.5644 35.5651 31.6932V29.0874C36.0073 28.9693 36.4362 28.8188 36.8492 28.6386C37.2128 29.998 38.7914 30.6951 40.0407 30.0556L42.6475 32.6604C44.4336 34.4453 47.2124 31.6728 45.422 29.8839V29.8839ZM29.9363 40.112H33.2869C32.17 41.2509 31.0532 42.3898 29.9363 43.5287V40.112ZM13.2965 2.3755C15.6332 3.54962 17.241 5.71189 17.7033 8.25141H14.9039C14.3083 6.13271 12.4277 4.51396 10.2385 4.26044L10.2245 1.51887C11.2919 1.5991 12.3225 1.88614 13.2965 2.3755V2.3755ZM8.87685 1.52678L8.88395 2.91687L8.89087 4.26816C7.30232 4.46958 5.89021 5.34427 5.00465 6.67525C4.188 6.26486 3.37127 5.85456 2.55462 5.44417C3.92055 3.20014 6.25577 1.75308 8.87685 1.52678V1.52678ZM8.63716 8.25141C8.26504 8.25141 7.96336 8.55309 7.96336 8.92521V13.5669C6.87315 13.1035 6.0088 12.1676 5.63614 11.0421C5.28657 9.9864 5.36949 8.85783 5.86945 7.86429C6.5765 6.45928 7.99516 5.58073 9.57186 5.57138C11.2901 5.55943 12.8715 6.64992 13.4857 8.25141H8.63716ZM33.2072 12.4898C37.5002 12.4898 40.9928 15.9796 40.9928 20.2691C40.9928 22.128 40.3369 23.8367 39.2442 25.1762C38.6674 24.1859 37.856 23.3524 36.8765 22.7477C37.4341 21.9911 37.7639 21.057 37.7639 20.0472C37.7639 19.9377 37.7416 17.3493 35.8042 15.877C34.4168 14.8227 32.4596 14.6365 29.9877 15.3238C29.6576 15.4155 29.449 15.7403 29.5027 16.0786C29.5091 16.1185 29.5736 16.5056 29.7681 17.0462C29.0474 17.8728 28.6414 18.9428 28.6414 20.0472C28.6414 21.0562 28.9709 21.99 29.5278 22.7461C28.5511 23.3492 27.74 24.1814 27.1631 25.1673C26.0747 23.8291 25.4216 22.1238 25.4216 20.269C25.4215 15.9796 28.9141 12.4898 33.2072 12.4898ZM29.9889 20.0472C29.9889 19.4586 30.1438 18.8984 30.435 18.4093C30.8039 18.9852 31.311 19.5697 32.0035 20.0355C32.9138 20.6476 33.9869 20.9545 35.2093 20.9545C35.563 20.9545 35.9292 20.9287 36.3075 20.8773C35.9406 22.2482 34.6877 23.2608 33.2026 23.2608C31.4306 23.2608 29.9889 21.8192 29.9889 20.0472V20.0472ZM30.9934 16.462C32.7189 16.0865 34.0585 16.2481 34.981 16.9443C35.9346 17.664 36.2549 18.827 36.3622 19.5062C34.9132 19.7466 33.7054 19.5514 32.7659 18.9242C31.7247 18.229 31.2189 17.136 30.9934 16.462V16.462ZM28.1479 26.1774C28.6653 25.1408 29.4908 24.2856 30.5156 23.7309C31.2697 24.2825 32.1988 24.6083 33.2026 24.6083C34.2057 24.6083 35.1342 24.2829 35.888 23.732C36.9154 24.2882 37.7405 25.1437 38.2578 26.1849C36.8972 27.3462 35.1327 28.0482 33.2072 28.0482C31.2775 28.0482 29.5096 27.3433 28.1479 26.1774V26.1774ZM38.3832 28.6929C38.1891 28.4991 38.0953 28.2271 38.1264 27.956C39.1779 27.2816 40.0881 26.3921 40.7866 25.3564C41.5556 25.3236 42.008 26.3276 41.4587 26.8861L39.6502 28.693C39.301 29.042 38.7326 29.0421 38.3832 28.6929V28.6929ZM44.4695 31.7072C44.2297 31.9466 43.8396 31.9467 43.6 31.7072L41.0701 29.1791L41.9402 28.3098L44.4695 30.8371C44.7098 31.1271 44.7098 31.4172 44.4695 31.7072Z" fill="black"/>
<path d="M12.9687 14.9446H22.271C22.6431 14.9446 22.9448 14.6429 22.9448 14.2708C22.9448 13.8987 22.6431 13.597 22.271 13.597H12.9687C12.5966 13.597 12.2949 13.8987 12.2949 14.2708C12.2949 14.6429 12.5965 14.9446 12.9687 14.9446Z" fill="black"/>
<path d="M12.9687 19.2049H20.6951C21.0672 19.2049 21.3689 18.9032 21.3689 18.5311C21.3689 18.159 21.0672 17.8573 20.6951 17.8573H12.9687C12.5966 17.8573 12.2949 18.159 12.2949 18.5311C12.2949 18.9032 12.5965 19.2049 12.9687 19.2049Z" fill="black"/>
<path d="M12.9687 23.4652H20.6951C21.0672 23.4652 21.3689 23.1635 21.3689 22.7914C21.3689 22.4193 21.0672 22.1176 20.6951 22.1176H12.9687C12.5966 22.1176 12.2949 22.4193 12.2949 22.7914C12.2949 23.1635 12.5965 23.4652 12.9687 23.4652Z" fill="black"/>
<path d="M12.9687 27.7255H22.271C22.6431 27.7255 22.9448 27.4238 22.9448 27.0517C22.9448 26.6796 22.6431 26.3779 22.271 26.3779H12.9687C12.5966 26.3779 12.2949 26.6796 12.2949 27.0517C12.2949 27.4238 12.5965 27.7255 12.9687 27.7255Z" fill="black"/>
<path d="M30.3257 30.6382H12.9687C12.5966 30.6382 12.2949 30.9399 12.2949 31.312C12.2949 31.6841 12.5966 31.9858 12.9687 31.9858H30.3257C30.6979 31.9858 30.9995 31.6841 30.9995 31.312C30.9995 30.9399 30.6978 30.6382 30.3257 30.6382Z" fill="black"/>
<path d="M30.9995 35.5723C30.9995 35.2002 30.6979 34.8985 30.3257 34.8985H12.9687C12.5966 34.8985 12.2949 35.2002 12.2949 35.5723C12.2949 35.9444 12.5966 36.2461 12.9687 36.2461H30.3257C30.6978 36.2461 30.9995 35.9444 30.9995 35.5723Z" fill="black"/>
<path d="M12.9687 39.1588C12.5966 39.1588 12.2949 39.4605 12.2949 39.8326C12.2949 40.2047 12.5966 40.5064 12.9687 40.5064H19.8195C20.1916 40.5064 20.4933 40.2047 20.4933 39.8326C20.4933 39.4605 20.1916 39.1588 19.8195 39.1588H12.9687Z" fill="black"/>
</svg>
