<svg width="48" height="47" viewBox="0 0 48 47" fill="none" xmlns="http://www.w3.org/2000/svg">
<g clip-path="url(#clip0)">
<path d="M29.3467 25.6269C36.3645 25.6269 42.0536 20.0444 42.0536 13.1582C42.0536 6.27193 36.3645 0.689514 29.3467 0.689514C22.3289 0.689514 16.6399 6.27193 16.6399 13.1582C16.6399 20.0444 22.3289 25.6269 29.3467 25.6269Z" fill="#FF8CCC"/>
<path d="M29.3467 0.689514C28.7097 0.689514 28.0837 0.735502 27.4718 0.824358C33.6006 1.71374 38.3038 6.897 38.3038 13.1582C38.3038 19.4194 33.6006 24.6026 27.4718 25.492C28.0837 25.5808 28.7097 25.6269 29.3467 25.6269C36.3645 25.6269 42.0536 20.0445 42.0536 13.1582C42.0536 6.27189 36.3645 0.689514 29.3467 0.689514V0.689514Z" fill="#FF78C2"/>
<path d="M13.4099 40.6605C20.4278 40.6605 26.1168 35.0781 26.1168 28.1919C26.1168 21.3056 20.4278 15.7232 13.4099 15.7232C6.39214 15.7232 0.703079 21.3056 0.703079 28.1919C0.703079 35.0781 6.39214 40.6605 13.4099 40.6605Z" fill="#FFD54D"/>
<path d="M13.41 15.7232C12.7729 15.7232 12.1469 15.7693 11.535 15.858C17.6639 16.7474 22.367 21.9307 22.367 28.1919C22.367 34.4531 17.6639 39.6363 11.535 40.5257C12.1469 40.6145 12.7729 40.6605 13.41 40.6605C20.4278 40.6605 26.1168 35.0782 26.1168 28.1919C26.1168 21.3056 20.4278 15.7232 13.41 15.7232V15.7232Z" fill="#FFC919"/>
<path d="M34.5879 46.3114C41.6057 46.3114 47.2947 40.729 47.2947 33.8428C47.2947 26.9565 41.6057 21.3741 34.5879 21.3741C27.5701 21.3741 21.881 26.9565 21.881 33.8428C21.881 40.729 27.5701 46.3114 34.5879 46.3114Z" fill="#A6F5CF"/>
<path d="M34.5879 21.3731C33.9509 21.3731 33.3248 21.4191 32.713 21.508C38.8418 22.3973 43.5449 27.5806 43.5449 33.8418C43.5449 40.103 38.8418 45.2862 32.713 46.1756C33.3248 46.2644 33.9509 46.3104 34.5879 46.3104C41.6057 46.3104 47.2947 40.7281 47.2947 33.8418C47.2947 26.9555 41.6057 21.3731 34.5879 21.3731V21.3731Z" fill="#8AEDBD"/>
<path d="M29.3467 14.9694C27.3924 14.9694 25.5541 15.7171 24.1707 17.0746C23.5286 17.7048 24.524 18.6772 25.1661 18.0472C26.2839 16.9504 27.7686 16.3463 29.3467 16.3463C30.9248 16.3463 32.4095 16.9504 33.5273 18.0472C34.1698 18.6773 35.1648 17.7047 34.5227 17.0746C33.1392 15.7171 31.301 14.9694 29.3467 14.9694V14.9694Z" fill="black"/>
<path d="M27.0587 12.2436C27.7833 12.2436 27.9738 11.2756 27.4097 10.9581L23.7887 8.9204C23.0005 8.47685 22.2998 9.67062 23.0879 10.1142L26.7089 12.1519C26.8195 12.2141 26.9399 12.2436 27.0587 12.2436Z" fill="black"/>
<path d="M34.9048 8.92043L31.2838 10.9581C30.4744 11.4136 31.2309 12.5763 31.9846 12.1519L35.6056 10.1142C36.3937 9.67065 35.693 8.47661 34.9048 8.92043V8.92043Z" fill="black"/>
<path d="M9.11473 26.0956C10.0196 26.0956 10.0211 24.7186 9.11473 24.7186C8.20986 24.7186 8.20836 26.0956 9.11473 26.0956Z" fill="black"/>
<path d="M17.7053 24.7186C16.8005 24.7186 16.799 26.0956 17.7053 26.0956C18.6101 26.0956 18.6116 24.7186 17.7053 24.7186Z" fill="black"/>
<path d="M9.11473 32.9195H17.7053C18.0936 32.9195 18.4084 32.6113 18.4084 32.2311C18.4084 31.8508 18.0936 31.5426 17.7053 31.5426H9.11473C8.72643 31.5426 8.41164 31.8508 8.41164 32.2311C8.41164 32.6113 8.72634 32.9195 9.11473 32.9195V32.9195Z" fill="black"/>
<path d="M39.6009 21.6407C41.6434 19.2706 42.7567 16.2975 42.7567 13.1605C42.7567 5.90563 36.741 0.00335693 29.3467 0.00335693C21.9524 0.00335693 15.9368 5.90572 15.9368 13.1606C15.9368 13.8819 15.9964 14.6004 16.1147 15.3075C15.2372 15.13 14.332 15.0372 13.4101 15.0372C10.6196 15.0372 7.94458 15.8701 5.67406 17.446C4.93234 17.9607 5.74558 19.084 6.48721 18.5693C8.51868 17.1593 10.9126 16.4141 13.4101 16.4141C18.7004 16.4141 23.368 19.8267 24.896 24.76C22.5938 27.1234 21.178 30.3247 21.178 33.8442C21.178 34.8837 21.3016 35.8954 21.5349 36.8659C19.3136 38.8721 16.4366 39.9745 13.4101 39.9745C6.79104 39.9745 1.40619 34.6899 1.40619 28.1943C1.40619 25.5219 2.2949 23.0027 3.97641 20.9088C4.53842 20.2091 3.43297 19.358 2.87106 20.0578C0.992768 22.3966 0 25.2102 0 28.1943C0 35.4491 6.01567 41.3514 13.41 41.3514C16.5637 41.3514 19.5719 40.2803 21.9761 38.3178C23.8461 43.3771 28.7936 47.0012 34.5879 47.0012C38.2307 47.0012 41.6388 45.5925 44.1841 43.0346C44.8184 42.397 43.8113 41.4362 43.1769 42.0737C40.8986 44.3634 37.8483 45.6243 34.5879 45.6243C27.9691 45.6243 22.5841 40.3397 22.5841 33.8441C22.5841 27.3484 27.969 22.0639 34.5879 22.0639C41.2068 22.0639 46.5917 27.3485 46.5917 33.8441C46.5917 35.8892 46.0496 37.9035 45.024 39.669C44.5745 40.4428 45.7969 41.1234 46.2464 40.3498C47.3922 38.3771 47.9978 36.1276 47.9978 33.8442C47.9978 28.3273 44.5191 23.5927 39.6009 21.6407V21.6407ZM26.0265 23.7248C24.6162 19.8875 21.4743 16.9577 17.6235 15.7042C17.4373 14.8732 17.343 14.0193 17.343 13.1605C17.343 6.66485 22.7278 1.38025 29.3467 1.38025C35.9656 1.38025 41.3505 6.66485 41.3505 13.1605C41.3505 16.1519 40.22 18.9768 38.1583 21.1604C37.0211 20.8519 35.8237 20.6869 34.5878 20.6869C31.3359 20.687 28.3507 21.8286 26.0265 23.7248V23.7248Z" fill="black"/>
<path d="M31.6489 32.1178C31.6489 32.498 31.9637 32.8063 32.352 32.8063C32.7403 32.8063 33.0551 32.498 33.0551 32.1178C33.0551 30.596 31.7927 29.3579 30.2409 29.3579C28.6891 29.3579 27.4268 30.596 27.4268 32.1178C27.4268 32.498 27.7416 32.8063 28.1299 32.8063C28.5181 32.8063 28.8329 32.498 28.8329 32.1178C28.8329 31.3552 29.4645 30.7348 30.2409 30.7348C31.0173 30.7348 31.6489 31.3552 31.6489 32.1178Z" fill="black"/>
<path d="M40.8669 32.8063C41.2552 32.8063 41.57 32.498 41.57 32.1178C41.57 30.596 40.3077 29.3579 38.7559 29.3579C37.2042 29.3579 35.9417 30.596 35.9417 32.1178C35.9417 32.498 36.2565 32.8063 36.6448 32.8063C37.0331 32.8063 37.3479 32.498 37.3479 32.1178C37.3479 31.3552 37.9795 30.7348 38.7559 30.7348C39.5323 30.7348 40.1638 31.3552 40.1638 32.1178C40.1638 32.498 40.4786 32.8063 40.8669 32.8063Z" fill="black"/>
<path d="M34.5879 40.4346C36.5422 40.4346 38.3805 39.687 39.7639 38.3294C40.0382 38.0603 40.0376 37.6244 39.7628 37.3558C39.4879 37.0872 39.0428 37.0877 38.7685 37.3568C37.6508 38.4536 36.166 39.0577 34.5879 39.0577C33.0098 39.0577 31.5251 38.4536 30.4073 37.3568C30.133 37.0878 29.688 37.0872 29.4129 37.3558C29.1381 37.6244 29.1376 38.0603 29.4119 38.3294C30.7954 39.687 32.6336 40.4346 34.5879 40.4346V40.4346Z" fill="black"/>
<path d="M42.6127 20.4997C42.4171 20.8282 42.5305 21.2497 42.8659 21.4412C42.8846 21.4519 44.7524 22.5305 46.1877 24.3977C46.7523 25.1322 47.8461 24.2655 47.3111 23.5696C45.7074 21.4832 43.6606 20.3011 43.5742 20.2518C43.2389 20.0603 42.8083 20.1712 42.6127 20.4997Z" fill="black"/>
<path d="M45.4657 20.4016C45.4722 20.4063 46.1294 20.8757 46.771 21.5772C47.3851 22.2483 48.42 21.3163 47.8184 20.6586C47.0708 19.8412 46.3206 19.3079 46.2891 19.2855C45.5526 18.7653 44.7306 19.8799 45.4657 20.4016V20.4016Z" fill="black"/>
<path d="M6.57276 41.6701C6.55523 41.6645 4.80228 41.0886 2.96739 39.1706C2.34586 38.521 1.31962 39.4623 1.94116 40.112C4.02007 42.2849 6.05079 42.9517 6.13619 42.9789C6.96856 43.245 7.43063 41.9444 6.57276 41.6701Z" fill="black"/>
<path d="M4.18287 43.0393C4.17574 43.0354 3.46412 42.6496 2.73834 42.0318C2.0524 41.4475 1.12966 42.4866 1.8156 43.0707C2.66118 43.7907 3.4733 44.2286 3.50743 44.2469C4.26836 44.6543 5.00052 43.4794 4.18287 43.0393Z" fill="black"/>
<path d="M14.7467 7.10068C15.0876 7.20963 15.5208 6.99732 15.6333 6.65998C15.6391 6.64281 16.2272 4.92638 18.1859 3.12972C18.8494 2.52113 17.8881 1.51637 17.2246 2.12486C15.0054 4.16046 14.3245 6.14888 14.2966 6.2325C14.1761 6.59389 14.3776 6.98263 14.7467 7.10068Z" fill="black"/>
<path d="M13.2807 4.59208C13.637 4.76465 13.9551 4.67396 14.235 4.31982C14.2389 4.31284 14.633 3.61605 15.264 2.90539C15.8605 2.23374 14.7994 1.33013 14.203 2.00187C13.4676 2.82984 13.0203 3.62504 13.0017 3.65845C12.8155 3.99184 12.9405 4.4095 13.2807 4.59208Z" fill="black"/>
</g>
<defs>
<clipPath id="clip0">
<rect width="48" height="47" fill="white"/>
</clipPath>
</defs>
</svg>
