<svg width="53" height="53" viewBox="0 0 53 53" fill="none" xmlns="http://www.w3.org/2000/svg">
<g clip-path="url(#clip0)">
<path d="M52.2236 29.6055C49.38 26.8469 44.7779 26.8469 41.9342 29.6055C39.0905 26.8469 34.4884 26.8469 31.6447 29.6055C28.8011 26.8469 24.199 26.8469 21.3553 29.6055C18.5116 26.8469 13.9095 26.8469 11.0658 29.6055C8.22214 26.8469 3.62004 26.8469 0.776367 29.6055C0.776367 15.3987 12.2932 3.88184 26.5 3.88184C40.7068 3.88184 52.2236 15.3987 52.2236 29.6055Z" fill="#FFD54D"/>
<path d="M48.0055 27.5937C49.5472 27.7849 51.0383 28.4555 52.2236 29.6055C52.2236 15.3987 40.7068 3.88184 26.5 3.88184C25.803 3.88184 25.1126 3.90958 24.4297 3.96392C37.005 4.96544 47.0321 15.0106 48.0055 27.5937Z" fill="#FFC919"/>
<path d="M26.5 3.89331C18.0303 3.89331 11.1586 15.374 11.1018 29.5722C13.9482 26.8478 18.5234 26.8583 21.3552 29.6055C24.1989 26.8469 28.801 26.8469 31.6447 29.6055C34.4766 26.8583 39.0518 26.8478 41.8981 29.5722C41.8413 15.374 34.9696 3.89331 26.5 3.89331Z" fill="#FFF5B5"/>
<path d="M26.5 3.89331C23.613 3.89331 21.2698 15.336 21.2427 29.5015C21.2801 29.5363 21.3184 29.5696 21.3553 29.6054C24.199 26.8468 28.8011 26.8468 31.6448 29.6054C31.6816 29.5696 31.7199 29.5363 31.7574 29.5015C31.7303 15.336 29.3871 3.89331 26.5 3.89331Z" fill="#FFD54D"/>
<path d="M9.67529 47.5852L13.8891 43.7595L18.103 47.5852V27.5182H9.67529V47.5852Z" fill="#D4D9FF"/>
<path d="M13.9624 27.5182V43.826L18.103 47.5852V27.5182H13.9624Z" fill="#C7CDFF"/>
<path d="M13.8891 37.7342C15.5421 37.7342 16.5877 35.4084 17.9245 34.6344C19.3024 33.8366 21.831 34.0671 22.6297 32.6902C23.4048 31.3538 21.9668 29.2965 21.9668 27.6437C21.9668 25.9908 23.4049 23.9336 22.6297 22.5971C21.831 21.2202 19.3025 21.4507 17.9245 20.6529C16.5877 19.8789 15.5421 17.5532 13.8891 17.5532C12.2362 17.5532 11.1906 19.8789 9.85376 20.6529C8.47587 21.4507 5.94719 21.2202 5.14857 22.5971C4.37344 23.9336 5.81138 25.9908 5.81138 27.6437C5.81138 29.2965 4.37354 31.3538 5.14867 32.6902C5.94729 34.0671 8.47587 33.8366 9.85387 34.6344C11.1907 35.4084 12.2363 37.7342 13.8891 37.7342Z" fill="#FF8CCC"/>
<path d="M22.6297 22.5971C21.8311 21.2202 19.3025 21.4507 17.9245 20.6529C16.5877 19.8789 15.5421 17.5532 13.8892 17.5532C13.0913 17.5532 12.4348 18.0952 11.8188 18.743C12.4789 19.437 17.8262 21.5921 17.8262 27.6437C17.8262 34.0122 12.4789 35.8503 11.8188 36.5443C12.4348 37.1921 13.0913 37.7342 13.8892 37.7342C15.5421 37.7342 16.5877 35.4084 17.9245 34.6344C19.3024 33.8366 21.8311 34.0671 22.6297 32.6902C23.4048 31.3538 21.9669 29.2965 21.9669 27.6437C21.9669 25.9908 23.4048 23.9335 22.6297 22.5971Z" fill="#FF78C2"/>
<path d="M13.8891 32.6886C16.6782 32.6886 18.9393 30.4299 18.9393 27.6436C18.9393 24.8574 16.6782 22.5987 13.8891 22.5987C11.0999 22.5987 8.83887 24.8574 8.83887 27.6436C8.83887 30.4299 11.0999 32.6886 13.8891 32.6886Z" fill="white"/>
<path d="M45.2384 10.8671C40.4166 6.04531 34.0639 3.31043 27.2764 3.11654V0.776367C27.2764 0.347502 26.9288 0 26.5 0C26.0712 0 25.7236 0.347502 25.7236 0.776367V3.11654C18.9361 3.31053 12.5835 6.04531 7.7616 10.8671C2.75652 15.8723 0 22.5271 0 29.6055C0 30.2699 0.822121 30.6428 1.31693 30.1627C2.30509 29.2042 3.5716 28.5862 4.93832 28.3848C4.85757 28.7446 4.73698 29.1272 4.61866 29.5025C3.65752 32.5518 4.65644 34.1105 7.71305 34.7705C7.71699 34.7713 8.89893 34.9788 8.89893 35.1142V47.5851C8.89893 48.2398 9.69807 48.6131 10.1972 48.1599L13.8892 44.8082L17.5812 48.1599C18.0705 48.6041 18.8795 48.246 18.8795 47.5851V35.1142C18.8795 34.9788 20.0614 34.7713 20.0654 34.7705C21.2738 34.5095 22.6435 34.214 23.3014 33.0798C23.9897 31.8927 23.4517 30.4435 23.0811 29.2515C23.9063 28.7552 24.8104 28.4562 25.7291 28.3496V48.241C25.7291 50.8652 27.864 53.0001 30.4881 53.0001C33.1123 53.0001 35.2472 50.8652 35.2472 48.241V45.7539C35.2472 45.325 34.8996 44.9775 34.4708 44.9775C34.042 44.9775 33.6944 45.325 33.6944 45.7539V48.2409C33.6944 50.0088 32.2561 51.4473 30.4881 51.4473C28.7202 51.4473 27.2819 50.0088 27.2819 48.2409V28.351C28.6846 28.5163 30.0362 29.1265 31.1043 30.1627C31.4927 30.539 32.0072 30.3717 32.3248 30.0314C34.8532 27.7192 38.8375 27.744 41.3344 30.106C41.6368 30.4253 42.1366 30.4909 42.4748 30.1628C45.0137 27.7001 49.1445 27.7001 51.6832 30.1628C52.1658 30.6311 53 30.278 53 29.6055C53 22.5271 50.2435 15.8723 45.2384 10.8671ZM20.0652 20.5168C18.6992 20.2219 17.9834 19.8313 17.0394 18.7748C16.225 17.8635 15.305 16.8339 13.9986 16.7791C15.2229 13.3323 16.9181 10.424 18.9434 8.31034C20.5172 6.66775 22.2485 5.55931 24.0445 5.02941C23.5562 5.8917 23.1076 7.04859 22.6937 8.50702C21.8209 11.5834 21.1658 15.7881 20.7962 20.6822C20.5506 20.6217 20.3048 20.5686 20.0652 20.5168ZM8.85959 11.9651C11.9009 8.92377 15.589 6.76454 19.6138 5.61562C16.4616 8.03685 13.8248 12.1152 12.1538 17.3967C11.6255 17.7826 11.1675 18.2951 10.7388 18.7749C9.80759 19.817 9.04375 20.2296 7.71305 20.5169C4.65375 21.1771 3.65441 22.7258 4.61856 25.7848C4.72797 26.1318 4.83925 26.4851 4.91927 26.821C3.73412 26.965 2.60404 27.3625 1.60418 27.9814C1.99071 21.9286 4.53254 16.2922 8.85959 11.9651ZM14.4109 43.1849C14.115 42.9161 13.6633 42.9161 13.3672 43.1849L10.4516 45.8318V36.1932C12.975 38.9572 14.8021 38.9581 17.3265 36.1932V45.8318L14.4109 43.1849ZM21.958 32.3007C21.6447 32.841 20.6752 33.0503 19.7376 33.2526C18.0727 33.6118 17.0235 34.2 15.8816 35.4778C14.3587 37.182 13.4615 37.2289 11.8968 35.4777C10.7612 34.2068 9.71712 33.6143 8.04078 33.2526C5.85805 32.7815 5.39513 32.2041 6.09966 29.9691C6.33971 29.2077 6.58794 28.42 6.58794 27.6435C6.58794 26.867 6.33971 26.0795 6.09966 25.3177C5.39513 23.0827 5.85816 22.5056 8.04078 22.0344C9.70563 21.675 10.7548 21.0873 11.8967 19.8094C13.4196 18.1051 14.3169 18.0582 15.8816 19.8094C17.0175 21.0802 18.0612 21.6725 19.7376 22.0344C20.6752 22.2368 21.6447 22.4461 21.958 22.9864C22.2533 23.4953 21.9612 24.4217 21.6788 25.3176C21.4387 26.0793 21.1905 26.8669 21.1905 27.6434C21.1905 28.4199 21.4387 29.2075 21.6788 29.969C21.9612 30.8653 22.2533 31.7917 21.958 32.3007ZM22.7432 27.6436C22.7432 27.1061 22.9549 26.4343 23.1597 25.7847C23.5255 24.6242 23.9401 23.3089 23.3013 22.2075C23.053 21.7795 22.7033 21.4708 22.2991 21.2384C22.2991 21.2384 22.9659 13.9407 23.8193 10.3624C24.0318 9.47137 24.9149 4.66969 26.5001 4.66969C27.0297 4.66969 28.3257 6.10587 29.4408 11.5414C30.3523 15.9849 30.8892 21.8115 30.9705 28.0772C28.525 26.4818 25.3648 26.3093 22.7434 27.6626C22.7432 27.6563 22.7432 27.65 22.7432 27.6436ZM42.6428 28.0574C42.4087 21.8863 40.8971 16.0715 38.3325 11.5458C38.1211 11.1728 37.6474 11.0419 37.2742 11.2531C36.9011 11.4645 36.7701 11.9382 36.9815 12.3113C39.4056 16.5891 40.8431 22.0987 41.0855 27.9694C38.4815 26.3724 35.1309 26.3668 32.5216 27.9522C32.4342 21.63 31.8872 15.7404 30.9617 11.2294C30.388 8.43269 29.7252 6.37242 28.962 5.02786C31.0812 5.65112 33.0969 7.07933 34.8903 9.24767C35.1635 9.57809 35.653 9.62468 35.9833 9.35108C36.3137 9.0778 36.3601 8.58848 36.0868 8.25796C35.2332 7.22591 34.3294 6.34323 33.3858 5.61531C37.4108 6.76423 41.099 8.92356 44.1404 11.9649C48.4679 16.2923 51.0096 21.929 51.3957 27.9819C48.7326 26.338 45.2819 26.3628 42.6428 28.0574Z" fill="black"/>
<path d="M13.8891 21.8224C10.6763 21.8224 8.0625 24.4339 8.0625 27.6436C8.0625 28.8345 8.42118 29.9807 9.09993 30.9581C9.34444 31.3101 9.82827 31.3975 10.1804 31.1529C10.5326 30.9084 10.6199 30.4245 10.3752 30.0724C9.87806 29.3564 9.61523 28.5166 9.61523 27.6437C9.61523 25.2901 11.5324 23.3752 13.8891 23.3752C16.2457 23.3752 18.1629 25.2901 18.1629 27.6437C18.1629 30.2085 15.8007 32.2348 13.2674 31.8667C12.8433 31.8041 12.4491 32.099 12.3875 32.5234C12.3259 32.9478 12.62 33.3417 13.0443 33.4033C16.5092 33.907 19.7158 31.1484 19.7158 27.6437C19.7157 24.4339 17.1019 21.8224 13.8891 21.8224Z" fill="black"/>
</g>
<defs>
<clipPath id="clip0">
<rect width="53" height="53" fill="white"/>
</clipPath>
</defs>
</svg>
