<svg width="48" height="47" viewBox="0 0 48 47" fill="none" xmlns="http://www.w3.org/2000/svg">
<path d="M0.703125 7.04972V33.0891C0.703125 36.6024 3.65297 39.4503 7.29187 39.4503H28.0646L35.9912 46.3114V39.4503H40.7081C44.3469 39.4503 47.2969 36.6023 47.2969 33.0891V7.04972C47.2969 3.53647 44.347 0.688477 40.7081 0.688477H7.29187C3.65306 0.688477 0.703125 3.53647 0.703125 7.04972V7.04972Z" fill="#FFF5B5"/>
<path d="M40.7082 0.688477H36.9583C40.5971 0.688477 43.547 3.53647 43.547 7.04972V33.0891C43.547 36.6024 40.5972 39.4503 36.9583 39.4503H40.7082C44.3471 39.4503 47.297 36.6023 47.297 33.0891V7.04972C47.2969 3.53647 44.3471 0.688477 40.7082 0.688477V0.688477Z" fill="#FFEF8F"/>
<path d="M23.7946 33.9027C31.6224 33.9027 37.968 27.6892 37.968 20.0245C37.968 12.3599 31.6224 6.14642 23.7946 6.14642C15.9669 6.14642 9.6212 12.3599 9.6212 20.0245C9.6212 27.6892 15.9669 33.9027 23.7946 33.9027Z" fill="#FFD54D"/>
<path d="M23.7946 6.14648C23.159 6.14648 22.5331 6.18752 21.9196 6.26692C28.861 7.16525 34.218 12.9823 34.218 20.0246C34.218 27.0669 28.8611 32.884 21.9196 33.7823C22.5331 33.8617 23.159 33.9027 23.7946 33.9027C31.6223 33.9027 37.968 27.6893 37.968 20.0246C37.9679 12.3598 31.6223 6.14648 23.7946 6.14648V6.14648Z" fill="#FFC919"/>
<path d="M31.4369 20.8853C31.4369 25.0094 28.0153 28.3525 23.7945 28.3525C19.5737 28.3525 16.1521 25.0094 16.1521 20.8853H31.4369Z" fill="white"/>
<path d="M35.9914 47C35.823 47 35.6567 46.9408 35.5255 46.8273L27.7984 40.1389H7.29187C3.27112 40.1389 0 36.9764 0 33.0892V12.7466C0 12.3663 0.314812 12.0582 0.703125 12.0582C1.09144 12.0582 1.40625 12.3663 1.40625 12.7466V33.0892C1.40625 36.2172 4.04653 38.762 7.29187 38.762H28.0646C28.2362 38.762 28.4018 38.8234 28.5303 38.9346L35.2881 44.784V39.4504C35.2881 39.0701 35.6029 38.762 35.9912 38.762H40.7081C43.9535 38.762 46.5937 36.2172 46.5937 33.0892V7.04972C46.5937 3.92175 43.9535 1.37695 40.7082 1.37695H7.29187C4.04653 1.37695 1.40625 3.92175 1.40625 7.04972V9.10194C1.40625 9.48225 1.09144 9.79041 0.703125 9.79041C0.314812 9.79041 0 9.48225 0 9.10194V7.04972C0 3.16249 3.27112 0 7.29187 0H40.7081C44.7289 0 48 3.16249 48 7.04972V33.0892C48 36.9764 44.7289 40.1389 40.7082 40.1389H36.6944V46.3115C36.6943 46.6699 36.3547 47 35.9914 47V47Z" fill="black"/>
<path d="M23.7946 34.5911C15.5917 34.5911 8.91808 28.0565 8.91808 20.0246C8.91808 11.9925 15.5917 5.45789 23.7946 5.45789C31.9975 5.45789 38.6711 11.9925 38.6711 20.0246C38.6711 23.0079 37.7555 25.8766 36.0231 28.3205C35.8017 28.6328 35.3636 28.7104 35.0445 28.4935C34.7255 28.2768 34.6464 27.8477 34.8678 27.5353C36.4359 25.323 37.2648 22.7259 37.2648 20.0246C37.2648 12.7517 31.222 6.83484 23.7945 6.83484C16.367 6.83484 10.3242 12.7517 10.3242 20.0246C10.3242 27.2974 16.367 33.2141 23.7945 33.2141C26.9745 33.2141 30.0617 32.1079 32.4873 30.0992C32.7839 29.8536 33.2275 29.8899 33.4782 30.1804C33.729 30.4706 33.6919 30.9051 33.3954 31.1506C30.7163 33.3693 27.3067 34.5911 23.7946 34.5911V34.5911Z" fill="black"/>
<path d="M21.4004 17.8515C21.0121 17.8515 20.6973 17.5434 20.6973 17.1631C20.6973 16.2713 19.9564 15.546 19.0457 15.546C18.1351 15.546 17.3942 16.2713 17.3942 17.1631C17.3942 17.5434 17.0794 17.8515 16.6911 17.8515C16.3027 17.8515 15.9879 17.5434 15.9879 17.1631C15.9879 15.5122 17.3596 14.169 19.0457 14.169C20.7318 14.169 22.1035 15.5122 22.1035 17.1631C22.1035 17.5433 21.7887 17.8515 21.4004 17.8515V17.8515Z" fill="black"/>
<path d="M30.898 17.8515C30.5097 17.8515 30.1949 17.5434 30.1949 17.1631C30.1949 16.2713 29.454 15.546 28.5434 15.546C27.6327 15.546 26.8918 16.2713 26.8918 17.1631C26.8918 17.5434 26.577 17.8515 26.1887 17.8515C25.8003 17.8515 25.4855 17.5434 25.4855 17.1631C25.4855 15.5122 26.8573 14.169 28.5434 14.169C30.2295 14.169 31.6011 15.5122 31.6011 17.1631C31.6011 17.5433 31.2863 17.8515 30.898 17.8515V17.8515Z" fill="black"/>
<path d="M23.7946 29.041C19.1929 29.041 15.4491 25.3824 15.4491 20.8853C15.4491 20.505 15.7639 20.1968 16.1522 20.1968H31.4369C31.8252 20.1968 32.14 20.505 32.14 20.8853C32.14 25.3824 28.3963 29.041 23.7946 29.041ZM16.8908 21.5739C17.2453 24.9894 20.2062 27.6641 23.7946 27.6641C27.383 27.6641 30.3439 24.9894 30.6983 21.5739H16.8908Z" fill="black"/>
</svg>
