<svg width="47" height="48" viewBox="0 0 47 48" fill="none" xmlns="http://www.w3.org/2000/svg">
<g clip-path="url(#clip0)">
<path d="M15.5647 27.9809C11.9838 25.0705 9.14432 21.3581 8.02892 16.8127C7.09707 13.0154 8.14186 8.38848 11.6713 6.18285C15.6802 3.67758 21.2345 5.28296 23.4967 9.28828C25.7645 5.2729 31.3055 3.6916 35.3221 6.18285C38.857 8.37536 39.8937 13.026 38.9644 16.8127C37.8523 21.3447 35.0262 25.0486 31.4602 27.9552L15.5647 27.9809Z" fill="#FF6362"/>
<path d="M35.3221 6.18293C33.4511 5.02251 31.2493 4.7457 29.2018 5.18697C30.0511 5.37669 30.8782 5.70472 31.649 6.18293C35.184 8.37545 36.2207 13.0261 35.2914 16.8128C34.1793 21.3448 31.3532 25.0487 27.7872 27.9553H31.4603C35.0262 25.0487 37.8523 21.3448 38.9644 16.8128C39.8937 13.0261 38.857 8.37545 35.3221 6.18293Z" fill="#FF5554"/>
<path d="M27.4306 24.7195C27.4134 24.7125 27.3955 24.7056 27.3783 24.6987C26.3356 25.595 24.9783 26.1475 23.4964 26.1475C22.0103 26.1475 20.6503 25.5924 19.6071 24.6925C19.5906 24.7016 19.5738 24.7098 19.5573 24.7191C17.9333 25.4222 16.544 26.5475 15.5297 27.9521C17.687 29.711 20.1152 31.1783 22.5987 32.3602C23.1663 32.6303 23.8271 32.6303 24.3948 32.3602C26.8769 31.1789 29.3038 29.7127 31.4602 27.9551C30.4456 26.5493 29.0556 25.423 27.4306 24.7195Z" fill="#A6F5CF"/>
<path d="M23.4964 17.8153C24.7943 19.646 27.2431 20.4751 29.4171 19.8091C29.4171 19.6213 29.4125 19.4363 29.4037 19.2543C29.224 15.5671 26.3263 13.5443 23.4446 13.5812C20.563 13.618 17.6974 15.7144 17.582 19.4041C17.5779 19.5374 17.5757 19.6723 17.5757 19.809C19.7491 20.4749 22.1978 19.6469 23.4964 17.8153Z" fill="#B36212"/>
<path d="M29.4171 19.8091C27.243 20.4751 24.7942 19.646 23.4964 17.8153C22.1978 19.6469 19.7491 20.4749 17.5756 19.8091C17.2822 23.1267 20.094 26.1475 23.4964 26.1475C26.8976 26.1475 29.7104 23.1273 29.4171 19.8091Z" fill="#FFDBD3"/>
<path d="M29.4171 19.8091C28.1916 20.1845 26.8788 20.0848 25.7342 19.5985L25.7441 19.8091C25.9824 22.5044 24.171 25.0031 21.6597 25.8462C22.24 26.0411 22.8577 26.1475 23.4964 26.1475C26.8976 26.1475 29.7104 23.1272 29.4171 19.8091Z" fill="#FFD1C7"/>
<path d="M25.7448 42.1906C28.581 41.7702 31.3129 40.5877 33.2746 38.5936C34.8179 36.9927 37.3532 39.3325 35.816 40.9398C30.5346 46.4624 21.5969 46.7832 14.9068 43.9782H9.59424V38.1603H14.8056C15.8457 36.7818 17.8833 36.4366 19.2319 37.6131C20.8744 39.0463 23.2235 39.1379 25.2938 38.781C27.4719 38.4055 28.157 41.7117 25.9635 42.1387" fill="#FFDBD3"/>
<path d="M33.2745 38.5935C33.0344 38.8376 32.7828 39.0695 32.5208 39.2893C32.713 39.8086 32.6464 40.4134 32.143 40.9397C29.3818 43.827 25.6213 45.2924 21.7051 45.6328C26.8591 46.0663 32.1962 44.7248 35.816 40.9397C37.3532 39.3325 34.8179 36.9927 33.2745 38.5935Z" fill="#FFD1C7"/>
<path d="M9.65526 46.3258C8.36465 46.3258 7.31848 45.3019 7.31848 44.0389V38.1361C7.31848 36.873 8.36465 35.8491 9.65517 35.8491H9.65526C10.9458 35.8491 11.9919 36.873 11.9919 38.1361V44.0389C11.9919 45.3019 10.9458 46.3258 9.65526 46.3258Z" fill="#7776D0"/>
<path d="M42.6068 12.5565C42.2276 12.5781 41.9374 12.8963 41.9594 13.2683C41.9815 13.6269 42.2845 13.9028 42.6463 13.9028C42.6601 13.9028 42.6738 13.9028 42.6876 13.9019C43.0669 13.8795 43.357 13.5613 43.335 13.1892C43.312 12.8181 42.987 12.5341 42.6068 12.5565Z" fill="black"/>
<path d="M25.9083 34.5832C25.5677 34.7486 25.429 35.1539 25.598 35.4874C25.7581 35.8022 26.2006 35.9484 26.5208 35.7902C26.8615 35.6249 27.0001 35.2204 26.8312 34.887C26.6621 34.5536 26.2489 34.4179 25.9083 34.5832Z" fill="black"/>
<path d="M41.5242 10.5642C41.606 10.867 41.8851 11.0666 42.19 11.0666C42.5961 11.0666 42.9635 10.6163 42.8566 10.2218C42.7602 9.86137 42.3837 9.64667 42.0155 9.74094C41.6482 9.83531 41.4278 10.2037 41.5242 10.5642Z" fill="black"/>
<path d="M39.4947 6.0166C40.0495 6.0166 40.383 5.30652 40.0099 4.89509C39.7583 4.61639 39.323 4.59033 39.0384 4.83748C38.7537 5.08463 38.7271 5.51062 38.9796 5.78931C39.1156 5.9394 39.3048 6.0166 39.4947 6.0166Z" fill="black"/>
<path d="M30.7062 32.6556C31.0024 32.9727 31.3219 33.0284 31.6649 32.8228C31.9771 32.6098 32.0533 32.1901 31.8366 31.8845C31.619 31.579 31.1892 31.5044 30.877 31.7174H30.8779C30.5657 31.9293 30.4886 32.35 30.7062 32.6556Z" fill="black"/>
<path d="M28.4491 33.2388C28.1204 33.4275 28.0111 33.8399 28.204 34.1618C28.3892 34.4685 28.8332 34.58 29.147 34.4008C29.4748 34.2121 29.5841 33.7997 29.3913 33.4788C29.1984 33.157 28.7769 33.0501 28.4491 33.2388Z" fill="black"/>
<path d="M35.2873 28.1134C35.0192 28.3776 35.0201 28.8037 35.2901 29.0669C35.6152 29.3293 35.94 29.3281 36.2643 29.0633C36.5325 28.7991 36.5306 28.3722 36.2607 28.1106C35.9907 27.8474 35.5555 27.8492 35.2873 28.1134Z" fill="black"/>
<path d="M33.1671 30.0106C32.8751 30.2487 32.8356 30.6739 33.079 30.9597C33.39 31.2513 33.7132 31.2801 34.0486 31.046C34.3406 30.8079 34.3801 30.3827 34.1368 30.0969C33.8934 29.8111 33.459 29.7716 33.1671 30.0106Z" fill="black"/>
<path d="M15.3383 2.34806C15.6965 2.34806 16.044 1.98525 16.0261 1.63987C16.0068 1.26771 15.6836 0.982011 15.3034 1.00088C14.9233 1.01976 14.6313 1.337 14.6506 1.70818C14.6698 2.06856 14.9738 2.34806 15.3383 2.34806Z" fill="black"/>
<path d="M41.1468 8.3857C41.615 8.3857 41.9806 7.82382 41.7584 7.40251C41.5839 7.07097 41.1689 6.94146 40.83 7.11231C40.4921 7.28298 40.3599 7.68929 40.5343 8.02002C40.6565 8.2526 40.897 8.3857 41.1468 8.3857Z" fill="black"/>
<path d="M34.4251 2.86216C34.7585 2.97081 35.1839 2.76123 35.2947 2.43257C35.4132 2.07857 35.2167 1.69742 34.8549 1.58148C34.494 1.46555 34.1047 1.65788 33.9853 2.01107C33.8668 2.36517 34.0633 2.74622 34.4251 2.86216Z" fill="black"/>
<path d="M36.9017 4.02949C37.2144 4.19153 37.6178 4.19072 37.8558 3.83537C38.064 3.52432 37.9761 3.10651 37.6574 2.9025C37.3397 2.6984 36.9127 2.78468 36.7043 3.09563C36.4958 3.40758 36.584 3.82548 36.9017 4.02949Z" fill="black"/>
<path d="M31.7199 2.35704C31.7337 2.35794 31.7484 2.35893 31.7622 2.35893C32.123 2.35893 32.427 2.08302 32.449 1.72524C32.472 1.35407 32.1827 1.03422 31.8035 1.01175C31.4233 0.989281 31.0974 1.27229 31.0744 1.64346C31.0514 2.01553 31.3398 2.33457 31.7199 2.35704Z" fill="black"/>
<path d="M20.7569 3.38775C21.0796 3.53648 21.5205 3.37939 21.6715 3.06151C21.8322 2.72359 21.6835 2.32277 21.3382 2.16549C20.9938 2.00821 20.5843 2.1547 20.4236 2.49172C20.2629 2.82964 20.4117 3.23047 20.7569 3.38775Z" fill="black"/>
<path d="M18.1279 2.54572C18.4681 2.61402 18.8694 2.34782 18.9369 2.01556C19.0113 1.65059 18.7689 1.29569 18.3961 1.2237C18.0223 1.1509 17.6605 1.38817 17.5862 1.75314C17.5118 2.11882 17.7542 2.47301 18.1279 2.54572Z" fill="black"/>
<path d="M28.8357 2.54124C29.2246 2.54124 29.5866 2.12172 29.5133 1.74228C29.4426 1.3765 29.0827 1.13565 28.7089 1.20485C28.3352 1.27414 28.0891 1.62635 28.1598 1.99222C28.2223 2.31575 28.5106 2.54124 28.8357 2.54124Z" fill="black"/>
<path d="M23.5383 4.89863C24.0705 4.89863 24.416 4.22611 24.0792 3.80749C23.8432 3.51541 23.4098 3.46508 23.1114 3.69515C22.8129 3.92612 22.7615 4.35032 22.9975 4.6424C23.1334 4.81046 23.3345 4.89863 23.5383 4.89863Z" fill="black"/>
<path d="M26.0423 3.4077C26.2324 3.27173 26.3273 3.25169 26.327 3.34749C26.6731 3.19282 26.8265 2.79289 26.6685 2.45416C26.5115 2.11526 26.1029 1.96526 25.7567 2.11984C25.081 2.42154 25.3409 3.4077 26.0423 3.4077Z" fill="black"/>
<path d="M12.455 2.85941C12.8751 2.85941 13.2431 2.38291 13.1116 1.98046C12.9959 1.62556 12.6084 1.42955 12.2466 1.54287C11.8839 1.65611 11.6837 2.03528 11.7994 2.38947C11.8931 2.67598 12.1639 2.85941 12.455 2.85941Z" fill="black"/>
<path d="M4.52496 16.6646C4.90236 16.6187 5.16957 16.2817 5.12274 15.9124C5.07499 15.543 4.73065 15.2806 4.35324 15.3273C3.97584 15.3731 3.70863 15.7101 3.75638 16.0804C3.75638 16.0795 3.75638 16.0795 3.75638 16.0795C3.79953 16.421 4.09613 16.6699 4.43864 16.6699C4.46711 16.6699 4.49557 16.6682 4.52496 16.6646Z" fill="black"/>
<path d="M5.57813 8.21577C5.93514 8.39983 6.30052 8.24247 6.50924 7.93438C6.68646 7.60455 6.55699 7.19752 6.2209 7.02308C5.88482 6.84963 5.46793 6.97545 5.29071 7.30528C5.11257 7.63421 5.24204 8.04223 5.57813 8.21577Z" fill="black"/>
<path d="M4.30729 13.7986C4.65292 13.82 5.01766 13.5037 5.04006 13.1695C5.06485 12.7983 4.77744 12.4776 4.3982 12.4532C4.01804 12.429 3.69022 12.7103 3.66543 13.0814C3.64064 13.4526 3.92805 13.7735 4.30729 13.7986Z" fill="black"/>
<path d="M6.736 21.2084C6.57897 20.8696 6.17035 20.7204 5.82417 20.875C5.47799 21.0297 5.32555 21.4295 5.4835 21.7683C5.5992 22.0164 5.84896 22.1629 6.11066 22.1629C6.5652 22.1629 6.93094 21.6265 6.736 21.2084Z" fill="black"/>
<path d="M4.65079 10.9435C4.98761 11.0332 5.4033 10.8015 5.49559 10.4698C5.59568 10.1103 5.37805 9.74007 5.01167 9.64202C4.64437 9.54505 4.26604 9.75706 4.16687 10.1165C4.06678 10.4752 4.28349 10.8455 4.65079 10.9435Z" fill="black"/>
<path d="M5.73054 18.605H5.72963C5.61943 18.2491 5.2356 18.0478 4.87106 18.1557C4.50743 18.2644 4.30174 18.6401 4.41193 18.9969C4.50192 19.288 4.77556 19.4749 5.07124 19.4749C5.48803 19.4749 5.85442 19.006 5.73054 18.605Z" fill="black"/>
<path d="M42.0944 18.2563C41.7308 18.1458 41.3461 18.3453 41.2331 18.7012C41.1211 19.0571 41.325 19.4336 41.6886 19.5442C42.0229 19.6471 42.4458 19.4264 42.5499 19.0984C42.6619 18.7434 42.458 18.366 42.0944 18.2563Z" fill="black"/>
<path d="M42.6307 15.4306C42.2542 15.3812 41.908 15.6409 41.8575 16.0103C41.8079 16.3788 42.0733 16.7176 42.4498 16.767C42.7936 16.8066 43.177 16.5268 43.223 16.1873C43.2735 15.818 43.0081 15.4791 42.6307 15.4306Z" fill="black"/>
<path d="M38.1662 25.9222C37.8705 25.6895 37.4362 25.7353 37.1983 26.0256C36.9596 26.3158 37.0073 26.74 37.3039 26.9729C37.6408 27.2014 37.9634 27.1672 38.2718 26.8703C38.5105 26.5801 38.4628 26.1558 38.1662 25.9222Z" fill="black"/>
<path d="M23.497 36.5613C23.8774 36.5613 24.1857 36.2596 24.1857 35.8873C24.1857 35.515 23.8774 35.2133 23.497 35.2133C23.1167 35.2133 22.8083 35.515 22.8083 35.8873C22.8083 36.2596 23.1167 36.5613 23.497 36.5613Z" fill="black"/>
<path d="M41.1285 20.9704C40.7832 20.8141 40.3737 20.9614 40.2148 21.2994C40.055 21.6373 40.2056 22.0381 40.5509 22.1945C40.8748 22.3404 41.3145 22.1851 41.4646 21.8646C41.6244 21.5267 41.4738 21.1267 41.1285 20.9704Z" fill="black"/>
<path d="M39.8052 23.5362C39.4829 23.3384 39.0578 23.4346 38.8567 23.7501H38.8558C38.6538 24.0655 38.752 24.4807 39.0743 24.6784C39.3834 24.8689 39.8303 24.766 40.0238 24.4654C40.2249 24.15 40.1275 23.7339 39.8052 23.5362Z" fill="black"/>
<path d="M17.5154 33.4266C17.3217 33.7466 17.43 34.1599 17.7578 34.3496C18.0708 34.5308 18.5161 34.4186 18.7009 34.1123C18.8946 33.7923 18.7863 33.3789 18.4585 33.1893C18.1316 32.9997 17.7091 33.1056 17.5154 33.4266Z" fill="black"/>
<path d="M15.0748 31.825C14.8562 32.1298 14.9315 32.5503 15.2428 32.7642C15.5857 32.9706 15.9056 32.9157 16.2024 32.5997C16.42 32.2951 16.3447 31.8746 16.0334 31.6606C15.7221 31.4467 15.2924 31.5205 15.0748 31.825Z" fill="black"/>
<path d="M20.0737 34.8421C19.9038 35.1755 20.0416 35.5799 20.3822 35.7463C20.7026 35.9043 21.1451 35.7613 21.306 35.4451C21.4759 35.1117 21.3381 34.7073 20.9975 34.541C20.6578 34.3746 20.2437 34.5094 20.0737 34.8421Z" fill="black"/>
<path d="M12.7782 30.0305C12.5339 30.3162 12.5725 30.7413 12.8636 30.9804C13.1989 31.2151 13.5224 31.1871 13.8342 30.8967C14.0784 30.6109 14.0399 30.1859 13.7488 29.9469C13.4568 29.7078 13.0224 29.7456 12.7782 30.0305Z" fill="black"/>
<path d="M8.76453 25.8414C8.46702 26.0742 8.41835 26.4975 8.65526 26.7886C8.96288 27.0873 9.28546 27.1229 9.6231 26.8956C9.92062 26.6637 9.96928 26.2395 9.73237 25.9483C9.49455 25.6571 9.06113 25.6096 8.76453 25.8414Z" fill="black"/>
<path d="M7.49919 24.6946C7.99302 24.6946 8.35326 24.0905 8.0832 23.6656C7.88302 23.3493 7.45787 23.2522 7.13556 23.4481C6.81233 23.6449 6.71316 24.0602 6.91334 24.3765C7.04373 24.5823 7.26871 24.6946 7.49919 24.6946Z" fill="black"/>
<path d="M11.1455 29.191C11.32 29.191 11.4944 29.1263 11.6294 28.996C11.9003 28.7344 11.903 28.3084 11.6358 28.0432C11.3686 27.7782 10.9324 27.7755 10.6616 28.037C10.2255 28.458 10.5455 29.191 11.1455 29.191Z" fill="black"/>
<path d="M9.80585 4.08167C10.3055 4.08167 10.6632 3.46587 10.3844 3.04186C10.1777 2.73 9.75167 2.64013 9.43212 2.84144C9.11257 3.04366 9.02074 3.46075 9.22735 3.77341C9.35866 3.97293 9.57996 4.08167 9.80585 4.08167Z" fill="black"/>
<path d="M7.11248 5.76577C7.44342 6.01229 7.76757 5.99611 8.08492 5.71724C8.34019 5.44142 8.31815 5.01453 8.03533 4.7655C7.75343 4.51574 7.31817 4.53722 7.0629 4.81403C6.80762 5.09002 6.82966 5.51602 7.11248 5.76577Z" fill="black"/>
<path d="M10.3819 7.15452C10.0922 6.9133 9.65742 6.94755 9.41114 7.23127C7.27463 9.68971 6.48842 13.4215 7.3593 16.9702C8.22136 20.4831 10.1265 23.7265 13.0218 26.6106C15.467 29.0464 18.5406 31.1621 22.1591 32.9002C23.0331 33.3202 23.9644 33.3197 24.8313 32.9016C28.4511 31.1631 31.5258 29.0471 33.9716 26.6106C36.867 23.7265 38.7721 20.4831 39.6342 16.9701C40.5482 13.2454 39.704 8.10276 35.6908 5.61367C33.6522 4.34917 31.1842 3.98959 28.7415 4.60144C26.6105 5.1351 24.7502 6.36464 23.4966 8.03967C21.1208 4.86719 16.6787 3.46411 12.9007 4.83547C12.0659 5.13878 12.5447 6.40193 13.3797 6.09942C16.8833 4.82738 21.0624 6.37147 22.894 9.6144C23.1514 10.0703 23.8421 10.0702 24.0995 9.6144C25.1275 7.79423 26.9439 6.44309 29.0829 5.90737C31.1539 5.38872 33.2388 5.68871 34.9534 6.75225C37.366 8.24853 39.4406 11.9859 38.2948 16.6552C37.4919 19.9269 35.7068 22.9585 32.9891 25.6658C32.5378 26.1154 32.0635 26.5538 31.5671 26.9805C30.7188 25.9669 29.6826 25.1226 28.5155 24.4939C29.8431 22.9645 30.1867 21.1719 30.0915 19.2221C29.9984 17.3121 29.2387 15.6852 27.8945 14.5171C26.6971 13.4767 25.1483 12.9066 23.5244 12.9066C23.4948 12.9066 23.4651 12.9068 23.4356 12.9072C21.7803 12.9283 20.2078 13.5396 19.0076 14.6284C17.6843 15.8291 16.9532 17.4734 16.8935 19.3835C16.8345 21.2814 17.1845 23.0037 18.4752 24.4919C17.3081 25.1201 16.2716 25.964 15.4229 26.9775C14.9277 26.5517 14.4546 26.1143 14.0043 25.6657C11.2865 22.9584 9.5014 19.9269 8.69857 16.6551C7.94028 13.5649 8.63172 10.2086 10.4603 8.10438C10.7067 7.8211 10.6716 7.39565 10.3819 7.15452ZM23.4537 14.2552C23.4764 14.2549 23.4989 14.2548 23.5218 14.2548C25.9925 14.2548 28.5544 15.9718 28.7158 19.2864C26.9198 19.3783 25.1428 18.9554 24.0623 17.431C23.793 17.0512 23.1951 17.0579 22.9306 17.431C21.9167 18.8612 20.0321 19.6148 18.2761 19.2874C18.446 16.0243 20.9914 14.2867 23.4537 14.2552ZM18.4042 20.6705C20.264 20.9001 22.2054 20.2097 23.4964 18.8798C24.8263 20.2496 26.8212 20.9279 28.7347 20.6512C28.646 21.7869 28.1528 22.8941 27.3259 23.7765C25.2342 26.0086 21.7591 26.0093 19.6669 23.7766C18.8399 22.8942 18.3468 21.7868 18.2581 20.6513C18.3067 20.6583 18.3554 20.6647 18.4042 20.6705ZM16.4808 27.8409C17.3079 26.8506 18.3404 26.0467 19.5082 25.4851C21.8611 27.251 25.1288 27.251 27.4821 25.4868C28.6499 26.0487 29.6825 26.8533 30.5091 27.8437C28.6885 29.2612 26.6102 30.5378 24.3194 31.6457C23.7424 31.9242 23.2441 31.9217 22.6648 31.6413C20.3764 30.5339 18.2999 29.2577 16.4808 27.8409Z" fill="black"/>
<path d="M36.1695 38.0702C35.2904 37.2617 33.8418 37.0231 32.7785 38.1261C31.5134 39.412 29.8315 40.3852 27.9529 40.9879C28.2537 39.3693 26.8897 37.8221 25.1743 38.1173C23.5248 38.4017 21.2346 38.4578 19.6902 37.1101C18.1699 35.7838 15.81 36.0266 14.4788 37.4865H12.6071C12.3037 36.1653 11.0953 35.1753 9.65514 35.1753C7.98694 35.1753 6.62976 36.5036 6.62976 38.1363V44.0391C6.62976 45.6718 7.98694 47.0001 9.65523 47.0001C11.1086 47.0001 12.3259 45.9918 12.6153 44.6524H14.7667C17.5296 45.7897 20.5479 46.3851 23.5452 46.3851C26.2114 46.3851 28.7843 45.9022 31.0293 44.9762C31.8498 44.6378 31.3148 43.3947 30.4944 43.734C28.2151 44.6741 25.5599 45.1204 22.8171 45.0242C20.1997 44.9325 17.5581 44.3566 15.1781 43.3588C15.0923 43.3228 15.0001 43.3043 14.9068 43.3043H12.6806V38.8346H14.8056C15.0242 38.8346 15.2298 38.733 15.3596 38.5609C16.1442 37.5212 17.7533 37.2261 18.7736 38.1165C20.3219 39.4674 22.6177 39.9266 25.4132 39.4451C26.988 39.1727 27.0456 41.3382 25.6944 41.5184C23.9333 41.7534 22.0968 41.7554 20.3182 41.38C19.9467 41.3013 19.58 41.5328 19.4998 41.8968C19.4196 42.2607 19.656 42.6193 20.0278 42.6977C22.3706 43.1924 24.9674 43.1453 27.3399 42.5654C29.9095 41.9374 32.1331 40.7256 33.7753 39.0563C34.4399 38.3669 35.1476 38.9803 35.226 39.0525C35.305 39.1253 35.979 39.7829 35.3131 40.4793C34.8018 41.0138 34.2399 41.5111 33.6428 41.9573C32.9234 42.495 33.7897 43.5439 34.4788 43.0287C35.1364 42.5373 35.7554 41.9896 36.3187 41.4005C37.3854 40.2852 37.051 38.881 36.1695 38.0702ZM11.3033 44.039C11.3033 44.9284 10.564 45.6519 9.65532 45.6519C8.74662 45.6519 8.00733 44.9284 8.00733 44.039V38.1362C8.00733 37.2468 8.74662 36.5233 9.65541 36.5233C10.5641 36.5233 11.3034 37.2468 11.3034 38.1362V44.039H11.3033Z" fill="black"/>
</g>
<defs>
<clipPath id="clip0">
<rect width="47" height="46" fill="white" transform="translate(0 1)"/>
</clipPath>
</defs>
</svg>
