<svg width="405" height="317" viewBox="0 0 405 317" fill="none" xmlns="http://www.w3.org/2000/svg">
<path d="M204.5 316.7C311.583 316.7 398.39 311.632 398.39 305.38C398.39 299.128 311.583 294.06 204.5 294.06C97.4176 294.06 10.61 299.128 10.61 305.38C10.61 311.632 97.4176 316.7 204.5 316.7Z" fill="#F5F5F5"/>
<path d="M384.85 252.6L389.93 171.74C390.377 164.628 389.362 157.501 386.947 150.797C384.533 144.093 380.771 137.955 375.893 132.761C371.015 127.567 365.124 123.428 358.585 120.598C352.045 117.769 344.995 116.309 337.87 116.31V116.31C324.546 116.312 311.729 121.412 302.046 130.564C292.364 139.717 286.551 152.227 285.8 165.53L280.5 259.97H377C379 259.969 380.925 259.206 382.383 257.837C383.841 256.468 384.723 254.596 384.85 252.6Z" fill="#FDCA51"/>
<path opacity="0.1" d="M385.03 249.69L389.93 171.76C390.377 164.648 389.362 157.521 386.947 150.817C384.533 144.113 380.771 137.975 375.893 132.781C371.015 127.587 365.124 123.448 358.585 120.618C352.045 117.789 344.995 116.329 337.87 116.33V116.33C324.546 116.332 311.729 121.432 302.046 130.584C292.364 139.737 286.551 152.247 285.8 165.55L280.5 259.97H374.09C376.876 259.961 379.556 258.894 381.586 256.986C383.617 255.078 384.848 252.47 385.03 249.69V249.69Z" fill="black"/>
<path d="M369.19 259.97L374.73 171.74C375.175 164.629 374.159 157.502 371.744 150.799C369.33 144.095 365.567 137.958 360.69 132.764C355.812 127.571 349.922 123.431 343.383 120.601C336.844 117.771 329.795 116.311 322.67 116.31V116.31C309.346 116.309 296.527 121.409 286.844 130.562C277.161 139.715 271.349 152.227 270.6 165.53L265.27 259.97H369.19Z" fill="#FDCA51"/>
<path d="M370.85 275.16H372.18C372.539 275.141 372.878 274.994 373.139 274.747C373.399 274.499 373.562 274.167 373.6 273.81L375.6 259.98H367.5L369.5 273.81C369.537 274.155 369.691 274.478 369.937 274.723C370.182 274.969 370.505 275.123 370.85 275.16Z" fill="#FDCA51"/>
<path opacity="0.7" d="M370.85 275.16H372.18C372.539 275.141 372.878 274.994 373.139 274.747C373.399 274.499 373.562 274.167 373.6 273.81L375.6 259.98H367.5L369.5 273.81C369.537 274.155 369.691 274.478 369.937 274.723C370.182 274.969 370.505 275.123 370.85 275.16Z" fill="white"/>
<path d="M240.2 275.16H241.4C241.74 275.125 242.057 274.97 242.293 274.722C242.53 274.475 242.67 274.152 242.69 273.81L244.5 259.98H237.14L238.93 273.81C238.949 274.148 239.087 274.47 239.319 274.716C239.551 274.963 239.863 275.12 240.2 275.16V275.16Z" fill="#FDCA51"/>
<path opacity="0.5" d="M240.2 275.16H241.4C241.74 275.125 242.057 274.97 242.293 274.722C242.53 274.475 242.67 274.152 242.69 273.81L244.5 259.98H237.14L238.93 273.81C238.949 274.148 239.087 274.47 239.319 274.716C239.551 274.963 239.863 275.12 240.2 275.16V275.16Z" fill="white"/>
<path d="M277.81 275.16H279.02C279.36 275.125 279.677 274.97 279.913 274.722C280.15 274.475 280.29 274.152 280.31 273.81L282.09 259.98H274.74L276.5 273.81C276.52 274.155 276.664 274.481 276.904 274.728C277.145 274.976 277.466 275.129 277.81 275.16V275.16Z" fill="#FDCA51"/>
<path opacity="0.7" d="M277.81 275.16H279.02C279.36 275.125 279.677 274.97 279.913 274.722C280.15 274.475 280.29 274.152 280.31 273.81L282.09 259.98H274.74L276.5 273.81C276.52 274.155 276.664 274.481 276.904 274.728C277.145 274.976 277.466 275.129 277.81 275.16V275.16Z" fill="white"/>
<path d="M330.35 275.16H331.68C332.039 275.139 332.379 274.992 332.641 274.745C332.902 274.498 333.068 274.167 333.11 273.81L335.11 259.98H327L329 273.81C329.035 274.156 329.189 274.479 329.435 274.725C329.681 274.971 330.004 275.125 330.35 275.16V275.16Z" fill="#FDCA51"/>
<path opacity="0.5" d="M330.35 275.16H331.68C332.039 275.139 332.379 274.992 332.641 274.745C332.902 274.498 333.068 274.167 333.11 273.81L335.11 259.98H327L329 273.81C329.035 274.156 329.189 274.479 329.435 274.725C329.681 274.971 330.004 275.125 330.35 275.16V275.16Z" fill="white"/>
<path d="M286.32 226.69H250.76L248.41 192.41L247.9 185.05L247.67 181.66C247.606 180.77 247.489 179.886 247.32 179.01C247.32 178.82 247.24 178.61 247.2 178.42C247.179 178.276 247.142 178.136 247.09 178C246.132 174.506 244.265 171.328 241.68 168.79C238.697 165.843 234.754 164.069 230.57 163.79H264.02C264.38 163.79 264.75 163.79 265.12 163.79C269.655 163.81 274.002 165.605 277.23 168.79C279.818 171.328 281.688 174.505 282.65 178C282.702 178.136 282.739 178.276 282.76 178.42C282.995 179.487 283.152 180.57 283.23 181.66L283.46 185.05L286.32 226.69Z" fill="#FDCA51"/>
<path opacity="0.1" d="M286.32 226.69H250.76L248.41 192.41L247.9 185.05L247.67 181.66C247.606 180.77 247.489 179.886 247.32 179.01C247.32 178.82 247.24 178.61 247.2 178.42C247.179 178.276 247.142 178.136 247.09 178C246.132 174.506 244.265 171.328 241.68 168.79C238.697 165.843 234.754 164.069 230.57 163.79H264.02C264.38 163.79 264.75 163.79 265.12 163.79C269.655 163.81 274.002 165.605 277.23 168.79C279.818 171.328 281.688 174.505 282.65 178C282.702 178.136 282.739 178.276 282.76 178.42C282.995 179.487 283.152 180.57 283.23 181.66L283.46 185.05L286.32 226.69Z" fill="black"/>
<g opacity="0.1">
<path opacity="0.1" d="M314.5 208.39H328.78C332.26 208.39 335.07 210.59 335.07 213.3V221.74C335.07 224.46 332.26 226.65 328.78 226.65H314.5V208.39Z" fill="black"/>
</g>
<path d="M319.08 208.39H256.18C253.187 208.39 250.76 210.816 250.76 213.81V221.24C250.76 224.233 253.187 226.66 256.18 226.66H319.08C322.073 226.66 324.5 224.233 324.5 221.24V213.81C324.5 210.816 322.073 208.39 319.08 208.39Z" fill="#FDCA51"/>
<path d="M404.5 183.96C404.508 188.741 402.826 193.371 399.749 197.031C396.673 200.692 392.401 203.146 387.69 203.96L384.04 252.69C383.72 256.83 380.71 260 377.11 260H337.89C341.49 260 344.49 256.83 344.81 252.69L346.81 226.69L348.5 203.93C351.582 203.401 354.499 202.162 357.021 200.312C359.543 198.462 361.6 196.051 363.03 193.27C363.227 192.917 363.403 192.553 363.56 192.18C364.715 189.594 365.309 186.792 365.3 183.96C365.298 182.573 365.157 181.189 364.88 179.83C364.77 179.29 364.63 178.75 364.48 178.22C363.768 175.838 362.629 173.605 361.12 171.63V171.63C359.227 169.165 356.794 167.168 354.008 165.791C351.222 164.415 348.158 163.696 345.05 163.69H384.27C387.413 163.679 390.515 164.412 393.32 165.83C396.062 167.195 398.457 169.169 400.32 171.6V171.6C403.042 175.145 404.512 179.491 404.5 183.96V183.96Z" fill="#FDCA51"/>
<path opacity="0.1" d="M404.5 183.96C404.508 188.741 402.826 193.371 399.749 197.031C396.673 200.692 392.401 203.146 387.69 203.96L384.04 252.69C383.72 256.83 380.71 260 377.11 260H337.89C341.49 260 344.49 256.83 344.81 252.69L346.81 226.69L348.5 203.93C351.582 203.401 354.499 202.162 357.021 200.312C359.543 198.462 361.6 196.051 363.03 193.27C363.227 192.917 363.403 192.553 363.56 192.18C364.715 189.594 365.309 186.792 365.3 183.96C365.298 182.573 365.157 181.189 364.88 179.83C364.77 179.29 364.63 178.75 364.48 178.22C363.768 175.838 362.629 173.605 361.12 171.63V171.63C359.227 169.165 356.794 167.168 354.008 165.791C351.222 164.415 348.158 163.696 345.05 163.69H384.27C387.413 163.679 390.515 164.412 393.32 165.83C396.062 167.195 398.457 169.169 400.32 171.6V171.6C403.042 175.145 404.512 179.491 404.5 183.96V183.96Z" fill="black"/>
<path d="M365.31 183.97C365.31 193.97 358.72 202.3 350.07 203.97L346.73 252.69C346.44 256.83 343.73 260.01 340.45 260.01H235.71C232.45 260.01 229.71 256.83 229.43 252.69L226.08 203.88C217.6 202.1 211.19 193.88 211.19 184C211.17 179.852 212.347 175.786 214.58 172.29C216.269 169.624 218.596 167.421 221.35 165.88C223.857 164.47 226.684 163.73 229.56 163.73C234.097 163.757 238.444 165.55 241.68 168.73C244.265 171.265 246.131 174.439 247.09 177.93C247.142 178.072 247.179 178.22 247.2 178.37C247.436 179.434 247.594 180.513 247.67 181.6L247.91 184.99L250.76 226.69H325.4L328.49 181.69C328.93 175.33 332.03 170.03 336.33 167.52C339.048 165.345 342.367 164.057 345.84 163.83C346.205 163.793 346.573 163.776 346.94 163.78C349.732 163.764 352.484 164.452 354.94 165.78C355.016 165.814 355.09 165.854 355.16 165.9C357.696 167.308 359.872 169.283 361.52 171.67C364.002 175.29 365.324 179.58 365.31 183.97V183.97Z" fill="#FDCA51"/>
<path opacity="0.1" d="M323.67 259.98H235.67C232.41 259.98 229.67 256.8 229.39 252.66L226.04 203.85C217.56 202.07 211.15 193.85 211.15 183.97C211.13 179.822 212.307 175.756 214.54 172.26C216.229 169.594 218.556 167.391 221.31 165.85C223.817 164.44 226.644 163.7 229.52 163.7C234.057 163.727 238.404 165.52 241.64 168.7C244.225 171.235 246.091 174.409 247.05 177.9C247.102 178.042 247.139 178.19 247.16 178.34C247.396 179.403 247.554 180.483 247.63 181.57L247.87 184.96L250.76 226.69H325.4L323.67 259.98Z" fill="white"/>
<path d="M312.26 121.41C310.52 122.41 308.93 123.24 307.26 124.09C305.59 124.94 303.95 125.72 302.26 126.5C298.9 128.03 295.5 129.5 292 130.77C288.472 132.082 284.881 133.217 281.24 134.17C277.453 135.188 273.585 135.88 269.68 136.24L268.85 136.32H268.46C264.93 135.91 261.8 135.32 258.66 134.62C255.52 133.92 252.41 133.23 249.33 132.44C246.25 131.65 243.19 130.84 240.13 129.96C237.07 129.08 234.04 128.17 231.01 127.14L232.4 120.2C238.69 120.6 244.97 121.2 251.19 121.85L260.48 122.78C263.54 123.08 266.67 123.34 269.41 123.44H268.2C271.338 122.881 274.433 122.099 277.46 121.1C280.59 120.1 283.72 118.96 286.85 117.62C289.98 116.28 293.08 114.9 296.16 113.43C297.74 112.71 299.27 111.95 300.77 111.2C302.27 110.45 303.87 109.65 305.24 108.94L312.26 121.41Z" fill="#263238"/>
<path opacity="0.1" d="M312.26 121.41C310.52 122.41 308.93 123.24 307.26 124.09C305.59 124.94 303.95 125.72 302.26 126.5C298.9 128.03 295.5 129.5 292 130.77C288.472 132.082 284.881 133.217 281.24 134.17C277.453 135.188 273.585 135.88 269.68 136.24L268.85 136.32H268.46C264.93 135.91 261.8 135.32 258.66 134.62C255.52 133.92 252.41 133.23 249.33 132.44C246.25 131.65 243.19 130.84 240.13 129.96C237.07 129.08 234.04 128.17 231.01 127.14L232.4 120.2C238.69 120.6 244.97 121.2 251.19 121.85L260.48 122.78C263.54 123.08 266.67 123.34 269.41 123.44H268.2C271.338 122.881 274.433 122.099 277.46 121.1C280.59 120.1 283.72 118.96 286.85 117.62C289.98 116.28 293.08 114.9 296.16 113.43C297.74 112.71 299.27 111.95 300.77 111.2C302.27 110.45 303.87 109.65 305.24 108.94L312.26 121.41Z" fill="black"/>
<path d="M231.13 116.39C229.652 115.353 228.018 114.556 226.29 114.03L223.7 124.14L231.46 127.4L232.34 126.32C232.937 125.599 233.38 124.763 233.643 123.865C233.906 122.967 233.984 122.024 233.871 121.095C233.757 120.166 233.456 119.269 232.985 118.46C232.514 117.651 231.882 116.947 231.13 116.39V116.39Z" fill="#FFC3BD"/>
<path d="M223.7 124.14L226.29 114.03L219.05 110.08L216.87 117.2L223.7 124.14Z" fill="#FFC3BD"/>
<path opacity="0.2" d="M287.91 131.69H288.19H288.31C292.13 131.28 303.36 129.39 311.48 121.38C310.27 119.04 308.61 117.23 306.58 116.82C300.98 115.76 294.12 119.77 287.91 131.69Z" fill="black"/>
<path d="M294.5 183.96C304.08 158.09 297.78 134.3 298.98 121.13C299.275 117.883 300.619 114.821 302.81 112.407C305 109.993 307.917 108.358 311.12 107.75C317.66 106.49 325.75 105.07 333.46 104.03C335.614 103.732 337.808 103.905 339.889 104.535C341.971 105.164 343.892 106.237 345.52 107.679C347.148 109.121 348.445 110.898 349.322 112.888C350.199 114.879 350.635 117.035 350.6 119.21C349.93 158.21 337.43 183.96 337.43 183.96L317.23 183.87L294.5 183.96Z" fill="#FDCA51"/>
<path opacity="0.8" d="M294.5 183.96C304.08 158.09 297.78 134.3 298.98 121.13C299.275 117.883 300.619 114.821 302.81 112.407C305 109.993 307.917 108.358 311.12 107.75C317.66 106.49 325.75 105.07 333.46 104.03C335.614 103.732 337.808 103.905 339.889 104.535C341.971 105.164 343.892 106.237 345.52 107.679C347.148 109.121 348.445 110.898 349.322 112.888C350.199 114.879 350.635 117.035 350.6 119.21C349.93 158.21 337.43 183.96 337.43 183.96L317.23 183.87L294.5 183.96Z" fill="white"/>
<path d="M217.86 272.23L215.3 289.06H223.43L228.77 272.23H217.86Z" fill="#FFC3BD"/>
<path d="M214.26 285.31L225.13 285.05C225.215 285.04 225.301 285.048 225.383 285.074C225.464 285.099 225.539 285.142 225.604 285.199C225.668 285.255 225.719 285.325 225.755 285.402C225.79 285.48 225.809 285.564 225.81 285.65V293.65C225.761 294.093 225.553 294.503 225.223 294.803C224.893 295.103 224.466 295.273 224.02 295.28C220.24 295.28 218.44 295.14 213.66 295.28C208.571 295.264 203.488 294.93 198.44 294.28C194.57 293.62 195.62 289.99 197.37 289.93C205.27 289.64 209.69 287.99 212.53 285.93C213.025 285.542 213.632 285.325 214.26 285.31V285.31Z" fill="#263238"/>
<path opacity="0.2" d="M216.83 278.98L217.86 272.23H228.77L226.15 280.65L216.83 278.98Z" fill="black"/>
<path d="M289.5 177.9C289.5 177.9 223.35 178.56 222.32 199.51C220.86 229.63 215.77 275.51 215.77 275.51L228.24 278.94C228.24 278.94 246.04 233.41 246.73 209.88C265.34 206.18 313.17 209.88 318.79 197.66C321.537 191.441 322.278 184.52 320.91 177.86L289.5 177.9Z" fill="#FDCA51"/>
<path opacity="0.6" d="M289.5 177.9C289.5 177.9 223.35 178.56 222.32 199.51C220.86 229.63 215.77 275.51 215.77 275.51L228.24 278.94C228.24 278.94 246.04 233.41 246.73 209.88C265.34 206.18 313.17 209.88 318.79 197.66C321.537 191.441 322.278 184.52 320.91 177.86L289.5 177.9Z" fill="black"/>
<path d="M276.06 278.74L280.47 290.16H289.39L286.32 278.15L276.06 278.74Z" fill="#FFC3BD"/>
<path opacity="0.2" d="M287.15 281.39L285.42 272.6L274.15 274L277.04 281.64L287.15 281.39Z" fill="black"/>
<path d="M278.05 286.38H289.44C289.624 286.366 289.806 286.426 289.947 286.546C290.087 286.665 290.175 286.836 290.19 287.02L290.74 295.55C290.73 296.012 290.538 296.451 290.207 296.772C289.876 297.094 289.432 297.273 288.97 297.27C284.97 297.2 283.11 296.98 278.1 296.98C275.03 296.98 268.81 297.28 264.56 297.28C260.31 297.28 260.43 293.28 262.22 292.97C270.32 291.35 273.45 289.12 276.3 286.97C276.807 286.594 277.419 286.388 278.05 286.38V286.38Z" fill="#263238"/>
<path d="M307.29 177.9C307.29 177.9 247.29 181.97 248.77 202.9C250.38 225.82 274.41 278.97 274.41 278.97H286.5C286.5 278.97 278.5 230.75 274.82 207.39C291.74 207.39 330.95 209.94 336.59 197.69C339.325 191.467 340.059 184.548 338.69 177.89L307.29 177.9Z" fill="#FDCA51"/>
<path opacity="0.5" d="M307.29 177.9C307.29 177.9 247.29 181.97 248.77 202.9C250.38 225.82 274.41 278.97 274.41 278.97H286.5C286.5 278.97 278.5 230.75 274.82 207.39C291.74 207.39 330.95 209.94 336.59 197.69C339.325 191.467 340.059 184.548 338.69 177.89L307.29 177.9Z" fill="black"/>
<path d="M316.38 93.1098C317.76 98.4498 318.19 105.11 310.73 107.86C308.66 111.16 307.65 114.64 315.62 113.4C321.964 112.58 327.738 109.314 331.71 104.3C326.94 100.12 327.81 87.2998 329.02 80.0698L316.38 93.1098Z" fill="#FFC3BD"/>
<path d="M315.5 102.83C308.65 104 303.02 109.3 300 115.55C296.98 121.8 296.25 128.92 296.31 135.87C296.37 142.82 297.16 149.74 296.97 156.68C296.76 164.68 294.83 170.35 292.07 177.89C292.07 179.68 294.78 180.69 297.07 181.16C301.85 170.73 304.99 160.75 304.66 149.29C304.41 140.97 304.3 131.49 305.66 123.29C307.02 115.09 316.83 104.38 316.36 102.9L315.5 102.83Z" fill="#263238"/>
<path opacity="0.3" d="M322.2 97.0298C321.482 97.563 320.664 97.9458 319.794 98.1554C318.925 98.3651 318.022 98.3972 317.14 98.2498C317.156 96.9509 317.063 95.6529 316.86 94.3698L325.14 87.5698C325.321 88.4536 325.438 89.3492 325.49 90.2498C325.579 91.5686 325.323 92.8878 324.746 94.077C324.169 95.2661 323.291 96.284 322.2 97.0298V97.0298Z" fill="black"/>
<path d="M309.82 61.5298C301.07 66.4798 300.98 80.4698 303.68 88.5298C304.361 90.6447 305.611 92.5317 307.292 93.9846C308.973 95.4374 311.021 96.4002 313.212 96.7676C315.403 97.1351 317.654 96.8931 319.717 96.0681C321.78 95.2431 323.576 93.8669 324.91 92.0898C329.19 86.6798 328.57 81.2198 328.36 71.8198C328.15 62.4198 318.58 56.5898 309.82 61.5298Z" fill="#FFC3BD"/>
<path opacity="0.2" d="M312.64 86.6899C309.82 87.8999 306.73 89.4699 303.88 89.1299C304.647 91.1565 305.943 92.9403 307.634 94.2952C309.325 95.6501 311.349 96.5265 313.494 96.8329C315.639 97.1393 317.827 96.8646 319.83 96.0374C321.832 95.2102 323.576 93.8608 324.88 92.1299C328.41 87.6899 329.5 84.6899 328.5 76.6099C323.02 83.0299 318.67 84.0899 312.64 86.6899Z" fill="black"/>
<path d="M321.1 64.6899C320.192 66.1662 319.787 67.8976 319.948 69.6235C320.108 71.3494 320.825 72.9765 321.99 74.2599C322.78 75.0899 323.75 75.7299 324.51 76.5799C325.695 77.9136 326.312 79.6576 326.23 81.4399C326.408 80.2932 326.979 79.244 327.846 78.4723C328.712 77.7005 329.82 77.2543 330.98 77.2099C329.793 80.8833 328.607 84.5499 327.42 88.2099C329.769 87.1143 331.799 85.4369 333.318 83.3369C334.837 81.2369 335.795 78.7837 336.1 76.2099C336.86 69.1099 328.1 53.8999 321.1 64.6899Z" fill="#263238"/>
<path d="M300.68 65.1799C300.011 65.9235 299.533 66.8195 299.29 67.7899C299.173 68.2706 299.206 68.7756 299.385 69.237C299.564 69.6983 299.88 70.0937 300.29 70.3699C301.048 70.6751 301.886 70.7173 302.67 70.4899L310.67 69.0999C315.25 68.2999 319.83 67.5099 324.35 66.4199C326.35 65.9399 328.66 65.1699 329.46 63.2499C332.05 56.9999 320.99 56.1899 317.29 56.3599C310.99 56.6899 304.62 60.3099 300.68 65.1799Z" fill="#263238"/>
<path d="M329.78 75.6099C327.16 76.1999 326.04 79.9699 326.11 82.3899C326.11 85.1399 328.11 86.9299 330.43 85.2699C332.153 83.9891 333.325 82.1019 333.71 79.9899C334.18 77.3999 332.41 75.0199 329.78 75.6099Z" fill="#FFC3BD"/>
<path d="M311.27 85.16C310.873 85.4245 310.423 85.5984 309.951 85.6693C309.479 85.7401 308.997 85.7062 308.54 85.57C309.54 83.31 309.42 83.82 309.73 79.98L311.27 85.16Z" fill="#ED847E"/>
<path d="M315.88 72.6898C315.13 71.8498 313.08 71.5298 311.97 71.6898C311.858 71.7044 311.744 71.6751 311.653 71.6081C311.562 71.541 311.5 71.4413 311.48 71.3298C311.465 71.2099 311.496 71.0886 311.566 70.9904C311.637 70.8921 311.742 70.8241 311.86 70.7998C313.26 70.5898 315.59 71.0098 316.54 72.0598C316.623 72.1439 316.669 72.257 316.669 72.3748C316.669 72.4926 316.623 72.6057 316.54 72.6898C316.484 72.7478 316.416 72.7922 316.34 72.8198C316.259 72.8448 316.172 72.8458 316.091 72.8227C316.009 72.7997 315.936 72.7535 315.88 72.6898V72.6898Z" fill="#263238"/>
<path d="M302.94 74.56C302.846 74.4951 302.781 74.3962 302.759 74.2843C302.736 74.1723 302.758 74.056 302.82 73.96C303.17 73.329 303.662 72.7881 304.258 72.3803C304.853 71.9724 305.535 71.7087 306.25 71.61C306.305 71.6087 306.359 71.6183 306.41 71.6383C306.461 71.6583 306.507 71.6883 306.546 71.7265C306.586 71.7647 306.617 71.8103 306.638 71.8607C306.659 71.9112 306.67 71.9653 306.67 72.02C306.676 72.1414 306.634 72.2603 306.554 72.3517C306.474 72.443 306.361 72.4998 306.24 72.51C305.676 72.6 305.14 72.8169 304.673 73.1443C304.205 73.4717 303.818 73.9011 303.54 74.4C303.504 74.4652 303.452 74.5203 303.389 74.5604C303.326 74.6006 303.254 74.6245 303.18 74.63C303.094 74.637 303.009 74.6121 302.94 74.56Z" fill="#263238"/>
<path d="M310.5 89.23C311.462 90.4542 312.347 91.7366 313.15 93.07L313.77 92.81C316.59 91.59 317.39 89.89 317.43 88.38C317.396 87.1787 317.025 86.011 316.36 85.01C315.36 86.74 312.83 88.12 311.45 88.79C310.86 89.08 310.5 89.23 310.5 89.23Z" fill="#2E353A"/>
<path d="M311.43 88.79L311.84 89.35C311.953 89.5003 312.112 89.6085 312.293 89.6575C312.475 89.7064 312.667 89.6932 312.84 89.62C314.92 88.62 316.3 87.62 316.84 86.49C316.889 86.3834 316.915 86.2674 316.915 86.15C316.915 86.0326 316.889 85.9166 316.84 85.81C316.706 85.5325 316.553 85.2651 316.38 85.01C315.33 86.74 312.81 88.12 311.43 88.79Z" fill="white"/>
<path d="M313.75 92.8099C316.57 91.5899 317.37 89.8899 317.41 88.3799C316.339 88.8741 315.387 89.5938 314.62 90.4899C314.092 91.1516 313.787 91.964 313.75 92.8099Z" fill="#DE5753"/>
<path d="M306.15 77.6899C305.66 77.7799 305.39 78.4799 305.53 79.2299C305.67 79.9799 306.2 80.5199 306.69 80.4199C307.18 80.3199 307.45 79.6399 307.31 78.8899C307.17 78.1399 306.64 77.6899 306.15 77.6899Z" fill="#263238"/>
<path d="M314.73 76.31C314.24 76.4 313.97 77.09 314.11 77.85C314.25 78.61 314.78 79.14 315.27 79.04C315.76 78.94 316.03 78.25 315.89 77.5C315.75 76.75 315.22 76.22 314.73 76.31Z" fill="#263238"/>
<path opacity="0.9" d="M302.37 81.7498L308.68 80.3298L308.79 83.0098L302.92 84.4098L302.37 81.7498Z" fill="white"/>
<g opacity="0.8">
<g opacity="0.8">
<path opacity="0.9" d="M310.6 79.91L311.35 82.37L319.45 80.63L318.97 77.79L310.6 79.91Z" fill="white"/>
</g>
</g>
<path d="M308.72 81.3199L308.68 80.3299L310.6 79.9099L310.88 80.8399L308.72 81.3199Z" fill="#263238"/>
<path d="M306.42 182.81C306.42 182.81 317.81 187.22 320.42 188.08C323.42 189.255 326.578 189.979 329.79 190.23C331.419 190.339 333.052 190.101 334.581 189.53C336.111 188.959 337.501 188.07 338.66 186.92C341.38 184.02 342.23 179.62 342.94 175.49C345.02 163.363 347.107 151.237 349.2 139.11C350.2 133.11 352.83 124.11 352.61 120.72C352.2 114.42 348.19 106.98 337.98 102.89C333.98 101.3 330.09 101.89 326.75 105.89C324.75 108.27 318.93 114.01 317.5 124.12C316.36 132.22 314.58 142.71 314.69 150.94C314.82 161.76 310.5 175.4 306.42 182.81Z" fill="#263238"/>
<path d="M352.05 117.39C353.21 127.93 347.38 154.5 346.26 156.1C341.48 171.51 328.35 163.2 326.45 162.49C323.14 161.27 319.77 158.88 316.62 157.29C310.51 154.29 304.72 151.81 299.04 148.04L302.24 141.72C308.47 143.84 326.1 148.4 329.01 149.11C330.27 149.44 335.18 152.01 335.13 148.62C335.82 147.49 336.78 125.48 338.89 117.7C339.131 116.827 339.549 116.013 340.12 115.31L340.31 115.07C341.08 114.105 342.101 113.369 343.26 112.945C344.42 112.52 345.674 112.422 346.885 112.661C348.097 112.901 349.219 113.468 350.13 114.302C351.041 115.136 351.705 116.204 352.05 117.39V117.39Z" fill="#263238"/>
<path opacity="0.1" d="M352.05 117.39C353.21 127.93 347.38 154.5 346.26 156.1C341.48 171.51 328.35 163.2 326.45 162.49C323.14 161.27 319.77 158.88 316.62 157.29C310.51 154.29 304.72 151.81 299.04 148.04L302.24 141.72C308.47 143.84 326.1 148.4 329.01 149.11C330.27 149.44 335.18 152.01 335.13 148.62C335.82 147.49 336.78 125.48 338.89 117.7C339.131 116.827 339.549 116.013 340.12 115.31L340.31 115.07C341.08 114.105 342.101 113.369 343.26 112.945C344.42 112.52 345.674 112.422 346.885 112.661C348.097 112.901 349.219 113.468 350.13 114.302C351.041 115.136 351.705 116.204 352.05 117.39V117.39Z" fill="white"/>
<path d="M299.74 157.19H270.14L266.76 118.57H296.36L299.74 157.19Z" fill="#263238"/>
<path opacity="0.5" d="M299.74 157.19H270.14L266.76 118.57H296.36L299.74 157.19Z" fill="white"/>
<path d="M298.69 157H269.09L265.71 118.38H295.31L298.69 157Z" fill="#FDCA51"/>
<path opacity="0.8" d="M298.69 157H269.09L265.71 118.38H295.31L298.69 157Z" fill="white"/>
<path d="M286.95 120.79H274.5L274.08 115.96H286.52L286.95 120.79Z" fill="#FDCA51"/>
<path d="M274.08 115.96L275.3 115.54H288.19L288.37 117.59L287.41 118.7L287.35 120.38L286.95 120.79L286.52 115.96H274.08Z" fill="#FDCA51"/>
<path opacity="0.5" d="M274.08 115.96L275.3 115.54H288.19L288.37 117.59L287.41 118.7L287.35 120.38L286.95 120.79L286.52 115.96H274.08Z" fill="black"/>
<path d="M304.6 143.81L305.27 147.42C303.67 151.59 294.5 150.49 294.5 150.49V139.82L302.59 141.7C303.092 141.822 303.548 142.086 303.904 142.46C304.26 142.834 304.502 143.303 304.6 143.81V143.81Z" fill="#FFC3BD"/>
<path d="M294.48 139.82L294.52 150.51L286.4 150.71L284.54 141.31L294.48 139.82Z" fill="#FFC3BD"/>
<path d="M325.4 226.69L328.49 181.69C328.93 175.33 332.03 170.03 336.33 167.52C339.048 165.345 342.367 164.057 345.84 163.83C346.205 163.793 346.573 163.776 346.94 163.78C349.732 163.764 352.484 164.452 354.94 165.78C355.016 165.814 355.09 165.854 355.16 165.9C357.696 167.308 359.872 169.283 361.52 171.67C364.013 175.3 365.339 179.606 365.32 184.01C365.32 194.01 358.73 202.34 350.08 204.01L346.73 252.69C346.44 256.83 343.73 260.01 340.45 260.01H323.67L325.4 226.69Z" fill="#FDCA51"/>
<path opacity="0.1" d="M325.4 226.69L328.49 181.69C328.93 175.33 332.03 170.03 336.33 167.52C339.048 165.345 342.367 164.057 345.84 163.83C346.205 163.793 346.573 163.776 346.94 163.78C349.732 163.764 352.484 164.452 354.94 165.78C355.016 165.814 355.09 165.854 355.16 165.9C357.696 167.308 359.872 169.283 361.52 171.67C364.013 175.3 365.339 179.606 365.32 184.01C365.32 194.01 358.73 202.34 350.08 204.01L346.73 252.69C346.44 256.83 343.73 260.01 340.45 260.01H323.67L325.4 226.69Z" fill="white"/>
<path d="M172.8 17.2901V59.1001C172.8 60.1609 172.379 61.1784 171.628 61.9285C170.878 62.6787 169.861 63.1001 168.8 63.1001H125.98L110.68 74.9301C110.246 75.258 109.729 75.4581 109.187 75.5079C108.645 75.5576 108.101 75.4551 107.614 75.2118C107.128 74.9686 106.719 74.5942 106.433 74.131C106.148 73.6678 105.998 73.1341 106 72.5901V63.1001H103.61C102.549 63.1001 101.532 62.6787 100.782 61.9285C100.031 61.1784 99.61 60.1609 99.61 59.1001V17.2801C99.6126 16.7593 99.7184 16.2441 99.9213 15.7645C100.124 15.2848 100.42 14.8502 100.792 14.4856C101.164 14.1211 101.605 13.8339 102.088 13.6407C102.572 13.4475 103.089 13.3521 103.61 13.3601H168.87C169.912 13.3601 170.912 13.7741 171.649 14.5111C172.386 15.2482 172.8 16.2478 172.8 17.2901V17.2901Z" stroke="#FDCA51" stroke-miterlimit="10"/>
<path d="M132.7 7.46997H124.53V8.46997H132.7V7.46997Z" fill="#FDCA51"/>
<path d="M94.5 19.25H93.5V14.32C93.5026 12.4997 94.2276 10.7548 95.5157 9.46861C96.8038 8.18239 98.5497 7.45996 100.37 7.45996H118.6V8.45996H100.35C98.7957 8.4626 97.3057 9.08052 96.2057 10.1786C95.1057 11.2767 94.4853 12.7657 94.48 14.32L94.5 19.25Z" fill="#FDCA51"/>
<path d="M152.27 43.99C151.835 43.9925 151.405 43.9051 151.006 43.7332C150.607 43.5614 150.247 43.3088 149.951 42.9913C149.654 42.6738 149.426 42.2984 149.281 41.8886C149.137 41.4787 149.078 41.0434 149.11 40.61V40.61C150.18 28.42 159.84 27.3 161.05 13.44C161.4 9.44 159.94 7.94 157.15 7.94C154.36 7.94 152.64 9.45 152.29 13.44L152.09 15.72C152 16.7501 151.527 17.7089 150.764 18.4069C150.001 19.1049 149.004 19.4914 147.97 19.49V19.49C147.398 19.4894 146.832 19.3699 146.308 19.1389C145.784 18.908 145.314 18.5708 144.928 18.1486C144.541 17.7264 144.247 17.2285 144.063 16.6865C143.879 16.1445 143.81 15.5702 143.86 15L143.95 14C144.73 5.08 149.56 0 158.09 0C166.62 0 170.55 5.1 169.77 14C168.5 28.45 157.95 30.69 157.05 40.88C157.055 40.9299 157.055 40.9801 157.05 41.03C157.004 41.8384 156.652 42.5988 156.065 43.1563C155.477 43.7137 154.7 44.0262 153.89 44.03L152.27 43.99ZM156.6 52.47C156.51 53.5187 156.029 54.4952 155.253 55.2064C154.477 55.9175 153.463 56.3114 152.41 56.31C151.827 56.3109 151.25 56.1903 150.716 55.9558C150.182 55.7214 149.702 55.3783 149.308 54.9484C148.914 54.5184 148.613 54.0111 148.426 53.4587C148.239 52.9064 148.169 52.321 148.22 51.74C148.31 50.6896 148.792 49.7116 149.571 49.0003C150.349 48.2889 151.366 47.8961 152.42 47.9C153.002 47.902 153.577 48.0247 154.109 48.2602C154.642 48.4958 155.119 48.8391 155.512 49.2686C155.905 49.698 156.204 50.2042 156.392 50.7552C156.579 51.3063 156.65 51.8901 156.6 52.47V52.47Z" fill="#FDCA51"/>
<path d="M141 34.2H118C117.47 34.2 116.961 33.9892 116.586 33.6142C116.211 33.2391 116 32.7304 116 32.2C116 31.6695 116.211 31.1608 116.586 30.7857C116.961 30.4107 117.47 30.2 118 30.2H141C141.53 30.2 142.039 30.4107 142.414 30.7857C142.789 31.1608 143 31.6695 143 32.2C143 32.7304 142.789 33.2391 142.414 33.6142C142.039 33.9892 141.53 34.2 141 34.2Z" fill="#FDCA51"/>
<path d="M137.82 42.1201H118.04C117.51 42.1201 117.001 41.9094 116.626 41.5343C116.251 41.1593 116.04 40.6506 116.04 40.1201C116.04 39.5897 116.251 39.081 116.626 38.7059C117.001 38.3308 117.51 38.1201 118.04 38.1201H137.82C138.35 38.1201 138.859 38.3308 139.234 38.7059C139.609 39.081 139.82 39.5897 139.82 40.1201C139.82 40.6506 139.609 41.1593 139.234 41.5343C138.859 41.9094 138.35 42.1201 137.82 42.1201Z" fill="#FDCA51"/>
<path d="M134.64 50.03H118.04C117.51 50.03 117.001 49.8193 116.626 49.4442C116.251 49.0692 116.04 48.5605 116.04 48.03C116.04 47.4996 116.251 46.9909 116.626 46.6158C117.001 46.2407 117.51 46.03 118.04 46.03H134.64C135.17 46.03 135.679 46.2407 136.054 46.6158C136.429 46.9909 136.64 47.4996 136.64 48.03C136.64 48.5605 136.429 49.0692 136.054 49.4442C135.679 49.8193 135.17 50.03 134.64 50.03Z" fill="#FDCA51"/>
<path d="M87.58 213.2H72.97C69.41 213.2 66.53 215.45 66.53 218.2V226.84C66.53 229.62 69.41 231.84 72.97 231.84H87.58V213.2Z" fill="#FDCA51"/>
<path d="M19.68 253.89L14.6 173.03C14.1533 165.92 15.1681 158.794 17.5819 152.091C19.9956 145.388 23.757 139.251 28.6341 134.058C33.5113 128.865 39.4007 124.727 45.939 121.898C52.4773 119.069 59.5259 117.61 66.65 117.61V117.61C79.9753 117.609 92.7955 122.708 102.48 131.861C112.165 141.014 117.979 153.526 118.73 166.83L124.05 261.27H27.5C25.5036 261.261 23.5851 260.494 22.1332 259.124C20.6812 257.753 19.8043 255.882 19.68 253.89V253.89Z" fill="#FDCA51"/>
<path opacity="0.1" d="M19.5 250.96L14.6 173.03C14.1533 165.92 15.1681 158.794 17.5819 152.091C19.9956 145.388 23.757 139.251 28.6341 134.058C33.5113 128.865 39.4007 124.727 45.939 121.898C52.4773 119.069 59.5259 117.61 66.65 117.61V117.61C79.9753 117.609 92.7955 122.708 102.48 131.861C112.165 141.014 117.979 153.526 118.73 166.83L124.05 261.27H30.5C27.6984 261.275 25.0002 260.212 22.956 258.296C20.9118 256.38 19.6758 253.756 19.5 250.96Z" fill="black"/>
<path d="M35.34 261.27L29.8 173.03C29.3533 165.919 30.3684 158.792 32.7827 152.089C35.197 145.385 38.9594 139.248 43.8376 134.054C48.7158 128.861 54.6064 124.723 61.1459 121.895C67.6854 119.066 74.7351 117.608 81.86 117.61V117.61C95.1836 117.612 108.001 122.712 117.684 131.864C127.366 141.017 133.179 153.528 133.93 166.83L139.26 261.27H35.34Z" fill="#FDCA51"/>
<path d="M33.68 276.46H32.35C31.9902 276.437 31.6499 276.288 31.3886 276.039C31.1273 275.791 30.9614 275.458 30.92 275.1L28.92 261.27H37.03L35.03 275.1C34.9953 275.447 34.8422 275.772 34.5964 276.019C34.3505 276.267 34.027 276.423 33.68 276.46V276.46Z" fill="#FDCA51"/>
<path opacity="0.7" d="M33.68 276.46H32.35C31.9902 276.437 31.6499 276.288 31.3886 276.039C31.1273 275.791 30.9614 275.458 30.92 275.1L28.92 261.27H37.03L35.03 275.1C34.9953 275.447 34.8422 275.772 34.5964 276.019C34.3505 276.267 34.027 276.423 33.68 276.46V276.46Z" fill="white"/>
<path d="M164.33 276.46H163.12C162.779 276.423 162.462 276.265 162.226 276.016C161.99 275.767 161.849 275.443 161.83 275.1L160.05 261.27H167.4L165.62 275.1C165.601 275.443 165.461 275.767 165.224 276.016C164.988 276.265 164.671 276.423 164.33 276.46V276.46Z" fill="#FDCA51"/>
<path opacity="0.5" d="M164.33 276.46H163.12C162.779 276.423 162.462 276.265 162.226 276.016C161.99 275.767 161.849 275.443 161.83 275.1L160.05 261.27H167.4L165.62 275.1C165.601 275.443 165.461 275.767 165.224 276.016C164.988 276.265 164.671 276.423 164.33 276.46V276.46Z" fill="white"/>
<path d="M126.72 276.46H125.5C125.159 276.423 124.842 276.265 124.606 276.016C124.37 275.767 124.229 275.443 124.21 275.1L122.42 261.27H129.78L128 275.1C127.979 275.44 127.84 275.763 127.606 276.011C127.372 276.26 127.059 276.418 126.72 276.46Z" fill="#FDCA51"/>
<path opacity="0.7" d="M126.72 276.46H125.5C125.159 276.423 124.842 276.265 124.606 276.016C124.37 275.767 124.229 275.443 124.21 275.1L122.42 261.27H129.78L128 275.1C127.979 275.44 127.84 275.763 127.606 276.011C127.372 276.26 127.059 276.418 126.72 276.46Z" fill="white"/>
<path d="M74.18 276.46H72.85C72.4895 276.438 72.1482 276.29 71.8865 276.041C71.6248 275.792 71.4595 275.459 71.42 275.1L69.42 261.27H77.53L75.53 275.1C75.4953 275.447 75.3422 275.772 75.0964 276.019C74.8505 276.267 74.527 276.423 74.18 276.46V276.46Z" fill="#FDCA51"/>
<path opacity="0.5" d="M74.18 276.46H72.85C72.4895 276.438 72.1482 276.29 71.8865 276.041C71.6248 275.792 71.4595 275.459 71.42 275.1L69.42 261.27H77.53L75.53 275.1C75.4953 275.447 75.3422 275.772 75.0964 276.019C74.8505 276.267 74.527 276.423 74.18 276.46V276.46Z" fill="white"/>
<path d="M118.21 227.94H153.77L156.12 193.69L156.62 186.33L156.86 182.94C156.922 182.051 157.035 181.166 157.2 180.29C157.2 180.1 157.29 179.9 157.33 179.71C157.351 179.563 157.388 179.419 157.44 179.28C158.399 175.789 160.265 172.614 162.85 170.08C165.83 167.135 169.77 165.36 173.95 165.08H140.5C140.13 165.08 139.77 165.08 139.4 165.08C134.863 165.102 130.514 166.897 127.28 170.08C124.695 172.614 122.829 175.789 121.87 179.28C121.818 179.419 121.781 179.563 121.76 179.71C121.525 180.774 121.368 181.853 121.29 182.94L121.06 186.33L118.21 227.94Z" fill="#FDCA51"/>
<path opacity="0.1" d="M118.21 227.94H153.77L156.12 193.69L156.62 186.33L156.86 182.94C156.922 182.051 157.035 181.166 157.2 180.29C157.2 180.1 157.29 179.9 157.33 179.71C157.351 179.563 157.388 179.419 157.44 179.28C158.399 175.789 160.265 172.614 162.85 170.08C165.83 167.135 169.77 165.36 173.95 165.08H140.5C140.13 165.08 139.77 165.08 139.4 165.08C134.863 165.102 130.514 166.897 127.28 170.08C124.695 172.614 122.829 175.789 121.87 179.28C121.818 179.419 121.781 179.563 121.76 179.71C121.525 180.774 121.368 181.853 121.29 182.94L121.06 186.33L118.21 227.94Z" fill="black"/>
<g opacity="0.1">
<path opacity="0.1" d="M90.03 209.69H75.74C72.27 209.69 69.46 211.89 69.46 214.6V223.05C69.46 225.76 72.27 227.96 75.74 227.96H90.03V209.69Z" fill="black"/>
</g>
<path d="M148.34 209.68H85.44C82.4466 209.68 80.02 212.107 80.02 215.1V222.53C80.02 225.523 82.4466 227.95 85.44 227.95H148.34C151.333 227.95 153.76 225.523 153.76 222.53V215.1C153.76 212.107 151.333 209.68 148.34 209.68Z" fill="#FDCA51"/>
<path d="M3.18344e-05 185.26C-0.00844017 190.041 1.67431 194.671 4.75064 198.331C7.82697 201.992 12.0986 204.446 16.81 205.26L20.5 253.95C20.82 258.09 23.82 261.27 27.42 261.27H66.65C63.05 261.27 60.05 258.09 59.73 253.95L57.73 227.95L56.01 205.24C52.9322 204.701 50.0207 203.458 47.5035 201.607C44.9862 199.756 42.9315 197.347 41.5 194.57C41.31 194.21 41.14 193.84 40.98 193.47C39.8199 190.889 39.2233 188.09 39.23 185.26C39.2304 183.869 39.3745 182.481 39.66 181.12C39.77 180.58 39.91 180.04 40.05 179.52C40.7676 177.135 41.9092 174.9 43.42 172.92V172.92C45.289 170.494 47.6819 168.521 50.42 167.15C53.2126 165.746 56.2944 165.013 59.42 165.01H20.26C18.2256 165.009 16.2027 165.316 14.26 165.92C10.2593 167.154 6.74061 169.6 4.19003 172.92V172.92C1.4691 176.458 -0.00419145 180.797 3.18344e-05 185.26Z" fill="#FDCA51"/>
<path opacity="0.1" d="M3.18344e-05 185.26C-0.00844017 190.041 1.67431 194.671 4.75064 198.331C7.82697 201.992 12.0986 204.446 16.81 205.26L20.5 253.95C20.82 258.09 23.82 261.27 27.42 261.27H66.65C63.05 261.27 60.05 258.09 59.73 253.95L57.73 227.95L56.01 205.24C52.9322 204.701 50.0207 203.458 47.5035 201.607C44.9862 199.756 42.9315 197.347 41.5 194.57C41.31 194.21 41.14 193.84 40.98 193.47C39.8199 190.889 39.2233 188.09 39.23 185.26C39.2304 183.869 39.3745 182.481 39.66 181.12C39.77 180.58 39.91 180.04 40.05 179.52C40.7676 177.135 41.9092 174.9 43.42 172.92V172.92C45.289 170.494 47.6819 168.521 50.42 167.15C53.2126 165.746 56.2944 165.013 59.42 165.01H20.26C18.2256 165.009 16.2027 165.316 14.26 165.92C10.2593 167.154 6.74061 169.6 4.19003 172.92V172.92C1.4691 176.458 -0.00419145 180.797 3.18344e-05 185.26Z" fill="black"/>
<path d="M39.22 185.26C39.22 195.26 45.81 203.6 54.46 205.26L57.8 253.99C58.09 258.14 60.8 261.31 64.08 261.31H168.82C172.08 261.31 174.82 258.14 175.1 253.99L178.45 205.19C186.92 203.41 193.33 195.19 193.33 185.3C193.353 181.153 192.18 177.087 189.95 173.59C188.256 170.925 185.926 168.722 183.17 167.18C180.664 165.779 177.841 165.043 174.97 165.04C170.432 165.06 166.082 166.855 162.85 170.04C160.264 172.575 158.394 175.749 157.43 179.24C157.386 179.381 157.353 179.524 157.33 179.67C157.09 180.733 156.933 181.813 156.86 182.9L156.62 186.29L153.77 227.93H79.13L76.04 182.93C75.59 176.57 72.5 171.27 68.2 168.76C65.478 166.593 62.1611 165.306 58.69 165.07C58.32 165.07 57.96 165.07 57.59 165.07C54.7977 165.054 52.0465 165.742 49.59 167.07C49.5097 167.098 49.4326 167.135 49.36 167.18C46.8302 168.596 44.6554 170.569 43 172.95C40.5154 176.572 39.1966 180.867 39.22 185.26V185.26Z" fill="#FDCA51"/>
<path opacity="0.1" d="M80.85 261.27H168.85C172.11 261.27 174.85 258.1 175.13 253.95L178.48 205.15C186.95 203.37 193.36 195.15 193.36 185.26C193.383 181.113 192.21 177.047 189.98 173.55C188.286 170.884 185.956 168.682 183.2 167.14C180.694 165.739 177.871 165.003 175 165C170.462 165.02 166.112 166.815 162.88 170C160.294 172.535 158.424 175.709 157.46 179.2C157.416 179.341 157.383 179.484 157.36 179.63C157.12 180.693 156.963 181.773 156.89 182.86L156.65 186.25L153.8 227.89H79.13L80.85 261.27Z" fill="white"/>
<path d="M107.63 278.48L116.16 280.84L123.82 260.79L115.29 258.43L107.63 278.48Z" fill="#FFC3BD"/>
<path d="M119.98 278.18C119.307 277.308 118.334 276.716 117.25 276.52L108.5 274.81C108.296 274.751 108.076 274.774 107.889 274.875C107.702 274.976 107.562 275.147 107.5 275.35L104.79 283.35C104.712 283.567 104.679 283.798 104.69 284.028C104.702 284.259 104.76 284.484 104.859 284.692C104.959 284.901 105.098 285.087 105.27 285.241C105.442 285.395 105.642 285.514 105.86 285.59H105.92C109.16 286.87 111.35 286.43 116.41 287.41C119.54 288.01 126.09 290.09 130.47 289.91C134.85 289.73 134.84 285.4 133 285.08C126.5 284.08 121.5 280.16 119.98 278.18Z" fill="#263238"/>
<g opacity="0.2">
<path opacity="0.2" d="M123.82 260.8L119.87 271.14L111.34 268.76L115.28 258.43L123.82 260.8Z" fill="black"/>
</g>
<path d="M95.3501 184.69C95.3501 184.69 146.71 184.41 145.11 201.61C144.03 213.23 138.45 225.44 134.11 237.23C127.8 254.32 122.33 269.23 122.33 269.23L110.63 265.18C110.63 265.18 121.14 215.76 128.22 210.7H84.79C70.42 210.7 64.21 194.92 78.2 176.52C86.75 176.55 95.3501 184.69 95.3501 184.69Z" fill="#FDCA51"/>
<path opacity="0.6" d="M95.3501 184.69C95.3501 184.69 146.71 184.41 145.11 201.61C145.9 212.3 122.32 269.21 122.32 269.21L110.62 265.16C110.62 265.16 121.13 215.74 128.21 210.68H84.79C70.42 210.68 64.21 194.9 78.2 176.5C86.75 176.55 95.3501 184.69 95.3501 184.69Z" fill="black"/>
<path d="M131.57 153.46C125.25 159.23 112.84 145.57 110.84 143.95C106.56 140.45 93.98 128.71 94.64 124.63C96.64 112.63 116.32 129.63 122.01 141.35L131.57 153.46Z" fill="#263238"/>
<path d="M76.26 117.35C73.09 118.02 69.66 116.88 67.43 119.23C65.2 121.58 64.27 124.88 63.95 128.1C63.6684 132.599 63.9033 137.115 64.65 141.56C65.3167 146.98 66.0134 152.397 66.74 157.81C67.1909 162.269 67.0192 166.768 66.23 171.18V171.18C66.1468 171.648 66.2214 172.131 66.4422 172.553C66.663 172.975 67.0174 173.311 67.45 173.51C67.45 173.51 92.04 174.35 99.19 174.08C102.99 173.94 100.38 163.94 101.55 158.08C101.81 156.78 104.35 151.44 104.73 150.08C106.49 143.63 105.32 139.19 103.73 132.71C102.54 128 102.05 121.21 99.65 120.71C95.33 119.82 85.08 115.47 76.26 117.35Z" fill="#FDCA51"/>
<path opacity="0.8" d="M76.26 117.35C73.09 118.02 69.66 116.88 67.43 119.23C65.2 121.58 64.27 124.88 63.95 128.1C63.6684 132.599 63.9033 137.115 64.65 141.56C65.3167 146.98 66.0134 152.397 66.74 157.81C67.1909 162.269 67.0192 166.768 66.23 171.18V171.18C66.1468 171.648 66.2214 172.131 66.4422 172.553C66.663 172.975 67.0174 173.311 67.45 173.51C67.45 173.51 92.04 174.35 99.19 174.08C102.99 173.94 100.38 163.94 101.55 158.08C101.81 156.78 104.35 151.44 104.73 150.08C106.49 143.63 105.32 139.19 103.73 132.71C102.54 128 102.05 121.21 99.65 120.71C95.33 119.82 85.08 115.47 76.26 117.35Z" fill="white"/>
<path d="M72.75 121.97C72.42 121.47 63.75 114.19 62.2 122.6C60.01 134.31 64.54 145.83 64.54 145.83C64.54 145.83 65.54 158.5 69.26 159.77C72.98 161.04 76.44 161.35 77.68 159.18C78.4819 157.488 78.9051 155.642 78.92 153.77C78.92 153.77 78.5 130.69 72.75 121.97Z" fill="#263238"/>
<path d="M78.74 101.28C79.63 106.67 80.38 116.52 76.53 119.99C76.53 119.99 85.94 124.92 92.12 133.52C93.4922 132.496 94.507 131.065 95.0204 129.432C95.5338 127.798 95.5197 126.045 94.98 124.42C94.6702 123.394 94.1561 122.442 93.4687 121.621C92.7813 120.799 91.9347 120.126 90.98 119.64C87.33 117.64 87.68 113.86 88.68 110.32L78.74 101.28Z" fill="#E8BFBF"/>
<path opacity="0.2" d="M79.97 110.43L83.48 111.78C84.9828 112.361 86.5908 112.62 88.2 112.54C87.9497 113.639 87.9497 114.781 88.2 115.88C86.9416 116.224 85.6104 116.196 84.3678 115.798C83.1253 115.4 82.0248 114.651 81.2 113.64C80.6327 112.637 80.2182 111.555 79.97 110.43V110.43Z" fill="black"/>
<path d="M167.1 261.24H176.66L166.65 237.27L160.17 248.27L167.1 261.24Z" fill="#FFC3BD"/>
<path d="M175.87 258.97L164.66 256.42C164.468 256.372 164.265 256.397 164.091 256.492C163.916 256.586 163.784 256.742 163.72 256.93L160.59 265.55C160.527 265.767 160.508 265.995 160.534 266.219C160.559 266.444 160.629 266.662 160.738 266.86C160.848 267.057 160.995 267.232 161.172 267.372C161.349 267.513 161.553 267.618 161.77 267.68C165.7 268.5 167.63 268.68 172.56 269.81C175.56 270.5 183.28 272.52 187.47 273.47C191.66 274.42 192.76 270.32 191.09 269.54C183.61 266.08 179.56 262.77 177.39 259.95C177.011 259.458 176.474 259.112 175.87 258.97V258.97Z" fill="#263238"/>
<g opacity="0.2">
<path opacity="0.2" d="M166.65 237.27L170.91 247.48L162.31 252.28L160.17 248.28L166.65 237.27Z" fill="black"/>
</g>
<path d="M66.04 173.62L65.04 176.88C64.91 177.13 65.2 177.39 65.62 177.41L102.62 178.53C102.96 178.53 103.23 178.39 103.26 178.18L103.69 174.9C103.69 174.68 103.43 174.48 103.08 174.46L66.68 173.36C66.5598 173.341 66.4367 173.355 66.3239 173.401C66.2112 173.447 66.113 173.523 66.04 173.62V173.62Z" fill="#263238"/>
<path d="M112.32 200.37C100.15 205.56 86.95 210.74 79.77 210.74C65.39 210.74 52.62 200.36 66.23 176.74C74.79 176.74 89.66 176.98 89.66 176.98C89.66 176.98 117.66 168.98 138.04 171.34C142.869 171.904 147.396 173.983 150.969 177.28C154.543 180.577 156.98 184.921 157.93 189.69C163.09 215.69 171.04 243.81 171.04 243.81L160.81 250.81C160.81 250.81 144.86 217.28 135.68 190.69C130.82 192.22 121.89 196.29 112.32 200.37Z" fill="#FDCA51"/>
<path opacity="0.5" d="M157.93 189.69C156.984 184.918 154.548 180.569 150.974 177.268C147.401 173.967 142.872 171.885 138.04 171.32C117.7 169 89.66 176.96 89.66 176.96C89.66 176.96 74.79 176.69 66.23 176.72C52.4 200.24 65.39 210.72 79.77 210.72C86.95 210.72 100.15 205.54 112.32 200.35C121.89 196.27 130.82 192.2 135.68 190.64C144.86 217.26 160.81 250.8 160.81 250.8L171.04 243.8C171.04 243.8 163.09 215.69 157.93 189.69Z" fill="black"/>
<path d="M145.11 201.69C144.785 205.031 144.284 208.352 143.61 211.64C143.56 211.53 143.52 211.43 143.48 211.32C143.44 211.21 143.48 211.27 143.48 211.24C143.447 211.129 143.404 211.022 143.35 210.92C140.63 204.16 137.97 197.23 135.72 190.7H135.79C141.61 193.17 145.58 196.69 145.11 201.69Z" fill="#FDCA51"/>
<path opacity="0.6" d="M145.11 201.69C144.785 205.031 144.284 208.352 143.61 211.64C143.56 211.53 143.52 211.43 143.48 211.32C143.44 211.21 143.48 211.27 143.48 211.24C143.447 211.129 143.404 211.022 143.35 210.92C140.63 204.16 137.97 197.23 135.72 190.7H135.79C141.61 193.17 145.58 196.69 145.11 201.69Z" fill="black"/>
<path d="M72.18 96.0999C75.18 104.55 76.28 108.19 81.9 111.36C90.37 116.14 100.07 110.58 99.65 101.36C99.27 93.1099 94.42 80.6699 85.02 79.6699C82.9462 79.4366 80.8472 79.7379 78.9227 80.545C76.9982 81.3521 75.3123 82.6383 74.0253 84.2811C72.7383 85.9239 71.8931 87.8687 71.5701 89.9304C71.2471 91.9922 71.4571 94.1023 72.18 96.0599V96.0999Z" fill="#E8BFBF"/>
<path d="M87.37 94.9998C87.58 95.7298 88.11 96.1598 88.57 95.9998C89.03 95.8398 89.21 95.1998 89.03 94.4898C88.85 93.7798 88.3 93.3298 87.83 93.4898C87.36 93.6498 87.17 94.2998 87.37 94.9998Z" fill="#263238"/>
<path d="M95.22 92.5198C95.43 93.2598 95.96 93.6898 96.42 93.5198C96.88 93.3498 97.06 92.7199 96.88 92.0099C96.7 91.2999 96.14 90.8499 95.69 91.0099C95.24 91.1699 95.02 91.8298 95.22 92.5198Z" fill="#263238"/>
<path d="M95.5 91.1199L97.04 90.1199C97.04 90.1199 96.55 91.6899 95.5 91.1199Z" fill="#263238"/>
<path d="M92.41 94.1199C93.492 95.5403 94.7639 96.8054 96.19 97.8799C95.9037 98.2338 95.5429 98.5204 95.1333 98.7191C94.7236 98.9179 94.2753 99.024 93.82 99.0299L92.41 94.1199Z" fill="#ED847E"/>
<path d="M66.66 101.69C67.2743 103.211 67.7399 104.789 68.05 106.4C68.1352 108.02 67.6139 109.614 66.5879 110.871C65.5619 112.128 64.1046 112.959 62.5 113.2C63.8974 113.572 65.3805 113.45 66.6981 112.854C68.0157 112.258 69.0869 111.225 69.73 109.93C68.9656 111.966 67.4525 113.632 65.5 114.59C66.8955 114.605 68.2757 114.298 69.5332 113.693C70.7907 113.087 71.8915 112.2 72.75 111.1C72.28 112.32 71.75 113.53 71.33 114.75C73.7045 113.312 75.6543 111.269 76.98 108.83C77.51 107.83 77.91 106.53 77.21 105.65C76.51 104.77 75.4 104.83 74.38 104.81C73.36 104.79 72.13 104.55 71.76 103.6C71.39 102.65 72.07 101.7 72.81 101.05C73.55 100.4 74.44 99.7998 74.71 98.8498C74.8381 98.1623 74.7899 97.4536 74.57 96.7898C74.11 94.9498 73.6567 93.1065 73.21 91.2598C73.0886 90.6079 72.8552 89.982 72.52 89.4098C70.52 86.4098 68.29 90.8098 67.52 92.2998C66.0787 95.2148 65.7722 98.5615 66.66 101.69V101.69Z" fill="#263238"/>
<path d="M71.59 104.38C72.7226 105.852 74.3897 106.819 76.23 107.07C78.68 107.37 79.54 105.07 78.56 102.98C77.67 101.06 75.33 98.6099 73.02 99.2599C70.71 99.9099 70.21 102.54 71.59 104.38Z" fill="#E8BFBF"/>
<path d="M87.5 88.9599C87.4838 89.0532 87.4397 89.1393 87.3737 89.2071C87.3077 89.2749 87.2228 89.3212 87.13 89.3399C85.13 89.7199 83.97 92.1299 83.97 92.1499C83.9198 92.259 83.8289 92.3441 83.7168 92.387C83.6047 92.43 83.4803 92.4275 83.37 92.3799C83.2635 92.3299 83.1808 92.2401 83.1396 92.1298C83.0985 92.0195 83.1022 91.8975 83.15 91.7899C83.24 91.6999 84.48 88.9299 86.96 88.4499C87.0763 88.4321 87.195 88.4594 87.2917 88.5264C87.3884 88.5933 87.4558 88.6948 87.48 88.8099C87.5014 88.8568 87.5084 88.909 87.5 88.9599V88.9599Z" fill="#263238"/>
<path d="M92.84 86.96C92.7732 86.9495 92.705 86.953 92.6396 86.9702C92.5742 86.9874 92.513 87.018 92.46 87.06C92.35 87.18 91.98 87.39 92.19 87.5C93.41 88.12 95.1 89.14 96.4 88.93C96.62 88.93 97.14 88.7 97.03 88.54C96.9548 88.4593 96.8601 88.3994 96.755 88.3661C96.6499 88.3328 96.5379 88.3273 96.43 88.35C95.43 88.49 94.02 87.52 93.06 87.02C92.9895 86.9907 92.9156 86.9706 92.84 86.96Z" fill="#263238"/>
<path d="M87.64 93.5898L89.19 92.5898C89.19 92.5898 88.7 94.1798 87.64 93.5898Z" fill="#263238"/>
<path d="M87.5 75.9699C84.09 75.3499 83.65 75.1199 80.19 75.3399C76.6953 75.4493 73.3162 76.6175 70.5 78.6899C67.8692 80.8645 66.0133 83.8325 65.21 87.1499C64.4239 90.4553 64.3354 93.8883 64.95 97.2299C65.0604 98.826 65.7504 100.327 66.89 101.45C67.0061 99.6528 67.3112 97.873 67.8 96.1399C68.3099 94.3903 69.36 92.8467 70.8 91.7299C71.4356 91.3861 71.9832 90.9001 72.4 90.3099C72.6164 89.7263 72.738 89.1119 72.76 88.4899C73.0736 87.0898 73.9108 85.8626 75.1 85.0599C76.2812 84.2759 77.5456 83.6253 78.87 83.1199C83.08 81.3099 87.67 80.2699 91.55 77.8299C90.2805 77.0478 88.9205 76.4232 87.5 75.9699V75.9699Z" fill="#263238"/>
<path d="M70.05 89.3499C70.9657 90.4618 72.2191 91.2447 73.62 91.5799C75.28 91.9599 79.43 91.8599 79.68 91.4299C79.93 90.9999 78.45 86.3399 76.77 86.0599C77.929 87.1787 79.3131 88.0378 80.83 88.5799C82.5464 88.9231 84.3137 88.9231 86.03 88.5799C86.91 88.3799 84.94 84.7399 83.51 83.6999C87.82 84.5999 92.38 85.6299 95.51 88.6999C98.64 91.7699 99.99 96.6299 99.83 101.16C100.563 100.569 101.153 99.819 101.553 98.9665C101.953 98.114 102.154 97.1816 102.14 96.2399C102.895 98.5823 103.172 101.052 102.953 103.504C102.735 105.955 102.027 108.338 100.87 110.51C105.45 106.75 107.16 100.18 105.96 94.3799C104.76 88.5799 100.96 83.5299 96.3501 79.8199C92.3501 76.6499 87.59 74.2799 82.52 74.1599C75.87 73.9599 63.55 81.5199 70.05 89.3499Z" fill="#263238"/>
<path d="M75.44 116.09C75.44 115.76 75.52 115.32 75.56 114.86C75.6473 113.804 75.3398 112.753 74.697 111.911C74.0541 111.068 73.1217 110.494 72.08 110.3C71.7708 110.245 71.4818 110.108 71.2428 109.904C71.0038 109.7 70.8234 109.437 70.72 109.14C69.95 106.9 69.65 106.22 68.91 104.02C66.91 103.53 64.5 104.28 62.41 104.5C61.8305 107.009 61.7896 109.613 62.29 112.14C62.3702 112.705 62.5902 113.241 62.93 113.7C64.8278 115.255 66.9268 116.546 69.17 117.54C70.97 118.09 73.5 116.26 75.44 116.09Z" fill="#E8BFBF"/>
<path d="M69.38 117.59C69.38 117.59 63.87 153.14 69.55 158.59C72.88 161.77 75.76 160.01 77.55 158.02C78.2062 157.278 78.6999 156.408 78.9996 155.464C79.2992 154.52 79.3982 153.524 79.29 152.54L75.42 116.12C75.42 116.12 71.62 113.87 69.38 117.59Z" fill="#E8BFBF"/>
<path d="M128.58 149.69C130.843 147.715 132.465 145.111 133.24 142.21C133.417 141.187 133.484 140.147 133.44 139.11C133.39 132.67 131.57 120.86 131.57 120.86L126.34 119.13C126.34 119.13 124.71 128.13 124.34 133.05C124.27 134.05 124.16 135.16 124.04 136.37C123.81 138.57 123.53 140.99 123.28 143L128.58 149.69Z" fill="#E8BFBF"/>
<path d="M131.57 153.46C133.18 151.99 133.45 150.21 134.28 146.46C135.07 142.88 134.18 138.46 133.44 139.13C133.348 139.214 133.279 139.321 133.24 139.44C131.97 142.44 127.03 139.81 125.63 138.31C125.027 137.737 124.497 137.092 124.05 136.39C123.866 136.122 123.768 135.805 123.768 135.48C123.768 135.155 123.866 134.838 124.05 134.57C122.53 133.94 121.31 139.92 122.05 141.39L122.43 142.5C123.032 144.301 123.961 145.975 125.17 147.44L127.92 150.75L131.57 153.46Z" fill="#263238"/>
<path d="M126.2 119.88L125.58 110.74C127.197 111.51 128.869 112.161 130.58 112.69C133.12 113.56 136.58 112.03 135.78 113.69C134.504 116.16 133.082 118.551 131.52 120.85L126.2 119.88Z" fill="#E8BFBF"/>
<path d="M125.58 110.74L129.5 101.59L134.62 104.72C136.03 107.78 135.86 113.72 135.86 113.72C135.86 113.72 128.74 114 125.58 110.74Z" fill="#E8BFBF"/>
<path d="M91.81 103.69C91.94 104.34 92.41 104.8 92.81 104.69C93.21 104.58 93.46 104 93.32 103.35C93.18 102.7 92.72 102.24 92.32 102.35C91.92 102.46 91.67 103.08 91.81 103.69Z" fill="#263238"/>
<path d="M79.13 227.94L76.04 182.94C75.59 176.58 72.5 171.28 68.2 168.77C65.478 166.603 62.1611 165.316 58.69 165.08C58.32 165.08 57.96 165.08 57.59 165.08C54.7977 165.064 52.0465 165.752 49.59 167.08C49.5097 167.108 49.4326 167.145 49.36 167.19C46.8302 168.606 44.6554 170.579 43 172.96C40.5025 176.588 39.1763 180.895 39.2 185.3C39.2 195.3 45.79 203.64 54.44 205.3L57.78 254.03C58.07 258.18 60.78 261.35 64.06 261.35H80.83L79.13 227.94Z" fill="#FDCA51"/>
<path opacity="0.1" d="M79.13 227.94L76.04 182.94C75.59 176.58 72.5 171.28 68.2 168.77C65.478 166.603 62.1611 165.316 58.69 165.08C58.32 165.08 57.96 165.08 57.59 165.08C54.7977 165.064 52.0465 165.752 49.59 167.08C49.5097 167.108 49.4326 167.145 49.36 167.19C46.8302 168.606 44.6554 170.579 43 172.96C40.5025 176.588 39.1763 180.895 39.2 185.3C39.2 195.3 45.79 203.64 54.44 205.3L57.78 254.03C58.07 258.18 60.78 261.35 64.06 261.35H80.83L79.13 227.94Z" fill="white"/>
<path d="M198.66 310.16C217.184 310.16 232.2 306.319 232.2 301.58C232.2 296.841 217.184 293 198.66 293C180.136 293 165.12 296.841 165.12 301.58C165.12 306.319 180.136 310.16 198.66 310.16Z" fill="#263238"/>
<path opacity="0.3" d="M198.66 307.3C217.184 307.3 232.2 304.099 232.2 300.15C232.2 296.201 217.184 293 198.66 293C180.136 293 165.12 296.201 165.12 300.15C165.12 304.099 180.136 307.3 198.66 307.3Z" fill="white"/>
<path d="M201.43 300.14H195.89L189.49 231.12H207.83L201.43 300.14Z" fill="#263238"/>
<path d="M207.83 231.12C207.83 233.12 203.73 234.76 198.66 234.76C193.59 234.76 189.49 233.13 189.49 231.12C189.49 229.11 193.6 227.48 198.66 227.48C203.72 227.48 207.83 229.11 207.83 231.12Z" fill="#263238"/>
<path opacity="0.7" d="M207.83 231.12C207.83 233.12 203.73 234.76 198.66 234.76C193.59 234.76 189.49 233.13 189.49 231.12C189.49 229.11 193.6 227.48 198.66 227.48C203.72 227.48 207.83 229.11 207.83 231.12Z" fill="white"/>
<path opacity="0.7" d="M86.5 232.2C86.5251 231.787 86.6327 231.383 86.8165 231.012C87.0002 230.641 87.2565 230.31 87.57 230.04C95.32 237.84 144.49 243.85 203.99 243.85C263.49 243.85 312.66 237.85 320.42 230.04C320.734 230.31 320.99 230.641 321.174 231.012C321.357 231.383 321.465 231.787 321.49 232.2C321.49 241.01 268.88 248.2 203.99 248.2C139.1 248.2 86.5 241.01 86.5 232.2Z" fill="white"/>
<path opacity="0.7" d="M87.61 234.19C95.36 226.39 144.53 220.39 204.03 220.39C263.53 220.39 312.7 226.39 320.46 234.19C312.7 241.99 263.53 248 204.03 248C144.53 248 95.36 241.99 87.61 234.19Z" fill="white"/>
<path opacity="0.7" d="M86.5 231.89C86.5 223.07 139.1 215.89 203.99 215.89C268.88 215.89 321.49 223.03 321.49 231.89C321.466 232.302 321.359 232.705 321.175 233.074C320.991 233.444 320.734 233.772 320.42 234.04C312.66 226.24 263.49 220.24 203.99 220.24C144.49 220.24 95.32 226.24 87.57 234.04C87.2559 233.772 86.9991 233.444 86.8153 233.074C86.6314 232.705 86.5241 232.302 86.5 231.89Z" fill="white"/>
<path d="M249.35 224.12L200.19 223.19C200.057 223.176 199.929 223.136 199.812 223.072C199.695 223.008 199.592 222.922 199.509 222.817C199.426 222.713 199.365 222.593 199.329 222.465C199.293 222.336 199.283 222.202 199.3 222.07V222.07C199.289 221.937 199.305 221.803 199.347 221.676C199.388 221.55 199.455 221.433 199.542 221.332C199.63 221.231 199.737 221.149 199.857 221.09C199.976 221.032 200.107 220.998 200.24 220.99L249.4 221.92C249.533 221.932 249.663 221.971 249.781 222.035C249.899 222.098 250.003 222.185 250.087 222.289C250.171 222.394 250.233 222.514 250.27 222.643C250.306 222.772 250.317 222.907 250.3 223.04C250.311 223.174 250.295 223.308 250.252 223.436C250.21 223.563 250.143 223.681 250.054 223.782C249.965 223.882 249.857 223.964 249.736 224.022C249.615 224.081 249.484 224.114 249.35 224.12Z" fill="#263238"/>
<path opacity="0.2" d="M249.35 224.12L200.19 223.19C200.057 223.176 199.929 223.136 199.812 223.072C199.695 223.008 199.592 222.922 199.509 222.817C199.426 222.713 199.365 222.593 199.329 222.465C199.293 222.336 199.283 222.202 199.3 222.07V222.07C199.289 221.937 199.305 221.803 199.347 221.676C199.388 221.55 199.455 221.433 199.542 221.332C199.63 221.231 199.737 221.149 199.857 221.09C199.976 221.032 200.107 220.998 200.24 220.99L249.4 221.92C249.533 221.932 249.663 221.971 249.781 222.035C249.899 222.098 250.003 222.185 250.087 222.289C250.171 222.394 250.233 222.514 250.27 222.643C250.306 222.772 250.317 222.907 250.3 223.04C250.311 223.174 250.295 223.308 250.252 223.436C250.21 223.563 250.143 223.681 250.054 223.782C249.965 223.882 249.857 223.964 249.736 224.022C249.615 224.081 249.484 224.114 249.35 224.12Z" fill="white"/>
<path d="M273.22 220.53L249.72 224.08C249.463 224.08 249.216 223.982 249.03 223.805C248.844 223.628 248.733 223.386 248.72 223.13C248.679 222.861 248.739 222.587 248.889 222.359C249.038 222.132 249.267 221.969 249.53 221.9L273.03 218.35C273.287 218.35 273.534 218.448 273.72 218.625C273.906 218.802 274.017 219.044 274.03 219.3C274.071 219.569 274.011 219.843 273.861 220.071C273.712 220.298 273.483 220.461 273.22 220.53V220.53Z" fill="#263238"/>
<path d="M273.01 218.35H223.33L200.24 220.99L248.06 221.89L273.01 218.35Z" fill="#263238"/>
<path opacity="0.6" d="M273.01 218.35H223.33L200.24 220.99L248.06 221.89L273.01 218.35Z" fill="white"/>
<path opacity="0.5" d="M273.22 220.53L249.72 224.08C249.463 224.08 249.216 223.982 249.03 223.805C248.844 223.628 248.733 223.386 248.72 223.13C248.679 222.861 248.739 222.587 248.889 222.359C249.038 222.132 249.267 221.969 249.53 221.9L273.03 218.35C273.287 218.35 273.534 218.448 273.72 218.625C273.906 218.802 274.017 219.044 274.03 219.3C274.071 219.569 274.011 219.843 273.861 220.071C273.712 220.298 273.483 220.461 273.22 220.53V220.53Z" fill="white"/>
<path d="M248.06 221.89L202.22 221.03C201.356 220.92 200.562 220.497 199.989 219.841C199.416 219.185 199.103 218.341 199.11 217.47L197.73 189.79C197.63 187.86 198.88 186.31 200.49 186.34L246.33 187.21C247.196 187.316 247.992 187.738 248.566 188.395C249.14 189.052 249.451 189.898 249.44 190.77L250.83 218.44C250.92 220.37 249.68 221.92 248.06 221.89Z" fill="#FDCA51"/>
<path opacity="0.2" d="M248.06 221.89L202.22 221.03C201.356 220.92 200.562 220.497 199.989 219.841C199.416 219.185 199.103 218.341 199.11 217.47L197.73 189.79C197.63 187.86 198.88 186.31 200.49 186.34L246.33 187.21C247.196 187.316 247.992 187.738 248.566 188.395C249.14 189.052 249.451 189.898 249.44 190.77L250.83 218.44C250.92 220.37 249.68 221.92 248.06 221.89Z" fill="white"/>
<path d="M246.72 221.75L200.88 220.88C200.014 220.772 199.218 220.35 198.643 219.694C198.067 219.037 197.753 218.193 197.76 217.32L196.38 189.69C196.28 187.76 197.53 186.21 199.15 186.24L244.98 187.1C245.846 187.208 246.642 187.63 247.217 188.286C247.793 188.943 248.107 189.787 248.1 190.66L249.5 218.3C249.58 220.23 248.33 221.78 246.72 221.75Z" fill="#FDCA51"/>
<path opacity="0.6" d="M246.72 221.75L200.88 220.88C200.014 220.772 199.218 220.35 198.643 219.694C198.067 219.037 197.753 218.193 197.76 217.32L196.38 189.69C196.28 187.76 197.53 186.21 199.15 186.24L244.98 187.1C245.846 187.208 246.642 187.63 247.217 188.286C247.793 188.943 248.107 189.787 248.1 190.66L249.5 218.3C249.58 220.23 248.33 221.78 246.72 221.75Z" fill="white"/>
<path d="M216.86 203.52C216.994 204.837 217.607 206.059 218.582 206.955C219.557 207.85 220.826 208.357 222.15 208.38C222.772 208.391 223.39 208.269 223.962 208.023C224.534 207.776 225.047 207.411 225.466 206.952C225.886 206.492 226.204 205.948 226.397 205.357C226.591 204.765 226.657 204.139 226.59 203.52C226.445 202.21 225.828 200.998 224.854 200.109C223.881 199.22 222.618 198.716 221.3 198.69C220.68 198.68 220.066 198.801 219.496 199.045C218.927 199.29 218.415 199.652 217.996 200.108C217.577 200.565 217.258 201.105 217.063 201.693C216.867 202.281 216.798 202.903 216.86 203.52V203.52Z" fill="white"/>
</svg>
