<svg width="459" height="411" viewBox="0 0 459 411" fill="none" xmlns="http://www.w3.org/2000/svg">
<path d="M449.004 379.491H412.899V379.767H449.004V379.491Z" fill="#EBEBEB"/>
<path d="M319.627 382.496H310.154V382.772H319.627V382.496Z" fill="#EBEBEB"/>
<path d="M411.808 369.238H390.889V369.514H411.808V369.238Z" fill="#EBEBEB"/>
<path d="M62.8268 371.094H15.7443V371.371H62.8268V371.094Z" fill="#EBEBEB"/>
<path d="M79.4403 371.094H72.5398V371.371H79.4403V371.094Z" fill="#EBEBEB"/>
<path d="M203.998 375.757H101.875V376.033H203.998V375.757Z" fill="#EBEBEB"/>
<path d="M216.916 312.44H6.42373C4.77475 312.437 3.1943 311.771 2.02931 310.588C0.86433 309.406 0.210019 307.803 0.210022 306.132V6.25322C0.224377 4.59161 0.88502 3.00285 2.04846 1.83201C3.21189 0.661182 4.78415 0.00284642 6.42373 0H216.916C218.567 0 220.15 0.66464 221.317 1.84771C222.485 3.03077 223.141 4.63535 223.141 6.30846V306.132C223.141 307.805 222.485 309.409 221.317 310.592C220.15 311.775 218.567 312.44 216.916 312.44ZM6.42373 0.220963C4.84703 0.223889 3.3359 0.860718 2.22202 1.99167C1.10815 3.12262 0.482551 4.65528 0.482553 6.25322V306.132C0.482551 307.729 1.10815 309.262 2.22202 310.393C3.3359 311.524 4.84703 312.161 6.42373 312.164H216.916C218.494 312.161 220.006 311.524 221.122 310.394C222.237 309.263 222.865 307.73 222.868 306.132V6.25322C222.865 4.65426 222.237 3.12163 221.122 1.99099C220.006 0.860359 218.494 0.223883 216.916 0.220963H6.42373Z" fill="#EBEBEB"/>
<path d="M452.721 312.44H242.218C240.568 312.437 238.986 311.772 237.82 310.589C236.653 309.407 235.996 307.804 235.993 306.132V6.25322C236.01 4.59061 236.673 3.00185 237.839 1.83132C239.004 0.660796 240.577 0.00281537 242.218 0H452.721C454.359 0.00574997 455.928 0.66537 457.089 1.83589C458.25 3.00641 458.909 4.59352 458.924 6.25322V306.132C458.924 307.801 458.271 309.402 457.108 310.584C455.946 311.767 454.368 312.434 452.721 312.44ZM242.218 0.220963C240.64 0.223883 239.128 0.860359 238.012 1.99099C236.897 3.12163 236.269 4.65426 236.266 6.25322V306.132C236.269 307.73 236.897 309.263 238.012 310.394C239.128 311.524 240.64 312.161 242.218 312.164H452.721C454.299 312.161 455.811 311.524 456.926 310.394C458.042 309.263 458.67 307.73 458.673 306.132V6.25322C458.67 4.65426 458.042 3.12163 456.926 1.99099C455.811 0.860359 454.299 0.223883 452.721 0.220963H242.218Z" fill="#EBEBEB"/>
<path d="M455.283 18.0857H377.611V285.129H455.283V18.0857Z" fill="#FAFAFA"/>
<path d="M457.256 112.613H360.147V282.798H457.256V112.613Z" fill="#E0E0E0"/>
<path d="M378.8 88.8377V131.516H386.463H430.951H438.615V88.8377H378.8Z" fill="#E0E0E0"/>
<path d="M378.799 118.922H366.372V131.516H378.799V118.922Z" fill="#FAFAFA"/>
<path d="M402.88 118.922H390.453V131.516H402.88V118.922Z" fill="#FAFAFA"/>
<path d="M426.961 118.922H414.534V131.516H426.961V118.922Z" fill="#FAFAFA"/>
<path d="M451.053 118.922H438.615V131.516H451.053V118.922Z" fill="#F0F0F0"/>
<path d="M378.799 141.813H366.372V154.419H378.799V141.813Z" fill="#F0F0F0"/>
<path d="M402.88 141.813H390.453V154.419H402.88V141.813Z" fill="#F0F0F0"/>
<path d="M426.961 141.813H414.534V154.419H426.961V141.813Z" fill="#FAFAFA"/>
<path d="M451.053 141.813H438.615V154.419H451.053V141.813Z" fill="#FAFAFA"/>
<path d="M378.799 164.705H366.372V177.3H378.799V164.705Z" fill="#F0F0F0"/>
<path d="M402.88 164.705H390.453V177.3H402.88V164.705Z" fill="#FAFAFA"/>
<path d="M426.961 164.705H414.534V177.3H426.961V164.705Z" fill="#FAFAFA"/>
<path d="M402.88 99.1235H390.453V111.718H402.88V99.1235Z" fill="#FAFAFA"/>
<path d="M426.961 99.1235H414.534V111.718H426.961V99.1235Z" fill="#F0F0F0"/>
<path d="M451.053 164.705H438.615V177.3H451.053V164.705Z" fill="#F0F0F0"/>
<path d="M378.799 187.597H366.372V200.191H378.799V187.597Z" fill="#FAFAFA"/>
<path d="M402.88 187.597H390.453V200.191H402.88V187.597Z" fill="#F0F0F0"/>
<path d="M426.961 187.597H414.534V200.191H426.961V187.597Z" fill="#F0F0F0"/>
<path d="M451.053 187.597H438.615V200.191H451.053V187.597Z" fill="#FAFAFA"/>
<path d="M378.799 210.499H366.372V223.105H378.799V210.499Z" fill="#F0F0F0"/>
<path d="M402.88 210.499H390.453V223.105H402.88V210.499Z" fill="#FAFAFA"/>
<path d="M426.961 210.499H414.534V223.105H426.961V210.499Z" fill="#FAFAFA"/>
<path d="M451.053 210.499H438.615V223.105H451.053V210.499Z" fill="#F0F0F0"/>
<path d="M378.799 233.391H366.372V245.986H378.799V233.391Z" fill="#F0F0F0"/>
<path d="M402.88 233.391H390.453V245.986H402.88V233.391Z" fill="#FAFAFA"/>
<path d="M426.961 233.391H414.534V245.986H426.961V233.391Z" fill="#F0F0F0"/>
<path d="M451.053 233.391H438.615V245.986H451.053V233.391Z" fill="#FAFAFA"/>
<path d="M378.799 256.283H366.372V268.888H378.799V256.283Z" fill="#FAFAFA"/>
<path d="M402.88 256.283H390.453V268.888H402.88V256.283Z" fill="#FAFAFA"/>
<path d="M426.961 256.283H414.534V268.888H426.961V256.283Z" fill="#F0F0F0"/>
<path d="M451.053 256.283H438.615V268.888H451.053V256.283Z" fill="#F0F0F0"/>
<path opacity="0.1" d="M455.13 18.0857H377.459V285.129H455.13V18.0857Z" fill="white"/>
<g opacity="0.3">
<path opacity="0.3" d="M447.532 18.0857H422.764L395.675 285.129H420.431L447.532 18.0857Z" fill="white"/>
</g>
<path d="M455.937 14.705H376.957V21.4775H455.937V14.705Z" fill="#E0E0E0"/>
<path d="M455.937 282.798H376.957V289.57H455.937V282.798Z" fill="#EBEBEB"/>
<path d="M459 295.349H373.382V8.09825H459V295.349ZM379.911 288.72H452.481V14.7271H379.911V288.72Z" fill="#EBEBEB"/>
<path d="M370.558 18.0857H292.887V285.129H370.558V18.0857Z" fill="#FAFAFA"/>
<path d="M364.682 201.119H298.261V283.726H364.682V201.119Z" fill="#E6E6E6"/>
<path d="M358.905 210.278H343.447H339.195H334.944V218.896H339.195H343.447H358.905V210.278Z" fill="#E6E6E6"/>
<path d="M358.905 226.972H343.447H339.195H334.944V235.589H339.195H343.447H358.905V226.972Z" fill="#FAFAFA"/>
<path d="M358.905 243.666H343.447H339.195H334.944V252.283H339.195H343.447H358.905V243.666Z" fill="#E6E6E6"/>
<path d="M358.905 260.359H343.447H336.884H334.944V268.977H336.884H343.447H358.905V260.359Z" fill="#FAFAFA"/>
<path d="M328 210.278H312.553H308.301H304.05V218.896H308.301H312.553H328V210.278Z" fill="#FAFAFA"/>
<path d="M328 226.972H312.553H306.557H304.05V235.589H306.557H312.553H328V226.972Z" fill="#FAFAFA"/>
<path d="M328 243.666H312.553H308.301H304.05V252.283H308.301H312.553H328V243.666Z" fill="#E6E6E6"/>
<path d="M328 260.359H312.553H308.301H304.05V268.977H308.301H312.553H328V260.359Z" fill="#FAFAFA"/>
<path opacity="0.1" d="M370.307 18.0857H292.636V285.129H370.307V18.0857Z" fill="white"/>
<g opacity="0.3">
<path opacity="0.3" d="M362.807 18.0857H338.051L310.95 285.129H335.718L362.807 18.0857Z" fill="white"/>
</g>
<path d="M371.212 14.705H292.233V21.4775H371.212V14.705Z" fill="#E0E0E0"/>
<path d="M371.212 282.798H292.233V289.57H371.212V282.798Z" fill="#EBEBEB"/>
<path d="M374.286 295.349H288.668V8.09825H374.286V295.349ZM295.187 288.72H367.757V14.7271H295.187V288.72Z" fill="#EBEBEB"/>
<path d="M167.043 18.0857H89.3713V285.129H167.043V18.0857Z" fill="#FAFAFA"/>
<path opacity="0.1" d="M166.89 18.0857H89.2187V285.129H166.89V18.0857Z" fill="white"/>
<g opacity="0.3">
<path opacity="0.3" d="M159.303 18.0857H134.535L107.446 285.129H132.202L159.303 18.0857Z" fill="white"/>
</g>
<path d="M167.708 14.705H88.7281V21.4775H167.708V14.705Z" fill="#E0E0E0"/>
<path d="M167.708 282.798H88.7281V289.57H167.708V282.798Z" fill="#EBEBEB"/>
<path d="M170.771 295.349H85.1525V8.09825H170.771V295.349ZM91.6824 288.72H164.241V14.7271H91.6824V288.72Z" fill="#EBEBEB"/>
<path d="M82.4381 18.0857H4.76672V285.129H82.4381V18.0857Z" fill="#FAFAFA"/>
<path d="M70.7302 131.174H10.6098V182.305H70.7302V131.174Z" fill="#E6E6E6"/>
<path d="M22.1542 137.549H14.4579V145.349H22.1542V137.549Z" fill="#FAFAFA"/>
<path d="M37.0671 137.549H29.3708V145.349H37.0671V137.549Z" fill="#FAFAFA"/>
<path d="M51.98 137.549H44.2838V145.349H51.98V137.549Z" fill="#FAFAFA"/>
<path d="M66.8821 137.549H59.1858V145.349H66.8821V137.549Z" fill="#FAFAFA"/>
<path d="M22.1542 151.723H14.4579V159.523H22.1542V151.723Z" fill="#FAFAFA"/>
<path d="M37.0671 151.723H29.3708V159.523H37.0671V151.723Z" fill="#FAFAFA"/>
<path d="M51.98 151.723H44.2838V159.523H51.98V151.723Z" fill="#FAFAFA"/>
<path d="M66.8821 151.723H59.1858V159.523H66.8821V151.723Z" fill="#E6E6E6"/>
<path d="M22.1542 165.887H14.4579V173.687H22.1542V165.887Z" fill="#E6E6E6"/>
<path d="M37.0671 165.887H29.3708V173.687H37.0671V165.887Z" fill="#E6E6E6"/>
<path d="M51.98 165.887H44.2838V173.687H51.98V165.887Z" fill="#FAFAFA"/>
<path d="M66.8821 165.887H59.1858V173.687H66.8821V165.887Z" fill="#E6E6E6"/>
<path d="M70.7302 181.664H10.6098V232.794H70.7302V181.664Z" fill="#E6E6E6"/>
<path d="M22.1542 188.027H14.4579V195.827H22.1542V188.027Z" fill="#FAFAFA"/>
<path d="M37.0671 188.027H29.3708V195.827H37.0671V188.027Z" fill="#FAFAFA"/>
<path d="M51.98 188.027H44.2838V195.827H51.98V188.027Z" fill="#FAFAFA"/>
<path d="M66.8821 188.027H59.1858V195.827H66.8821V188.027Z" fill="#FAFAFA"/>
<path d="M22.1542 202.202H14.4579V210.002H22.1542V202.202Z" fill="#FAFAFA"/>
<path d="M37.0671 202.202H29.3708V210.002H37.0671V202.202Z" fill="#FAFAFA"/>
<path d="M51.98 202.202H44.2838V210.002H51.98V202.202Z" fill="#FAFAFA"/>
<path d="M66.8821 202.202H59.1858V210.002H66.8821V202.202Z" fill="#E6E6E6"/>
<path d="M22.1542 216.377H14.4579V224.177H22.1542V216.377Z" fill="#E6E6E6"/>
<path d="M37.0671 216.377H29.3708V224.177H37.0671V216.377Z" fill="#E6E6E6"/>
<path d="M51.98 216.377H44.2838V224.177H51.98V216.377Z" fill="#FAFAFA"/>
<path d="M66.8821 216.377H59.1858V224.177H66.8821V216.377Z" fill="#E6E6E6"/>
<path d="M70.7302 232.142H10.6098V283.273H70.7302V232.142Z" fill="#E6E6E6"/>
<path d="M22.1542 238.517H14.4579V246.317H22.1542V238.517Z" fill="#FAFAFA"/>
<path d="M37.0671 238.517H29.3708V246.317H37.0671V238.517Z" fill="#FAFAFA"/>
<path d="M51.98 238.517H44.2838V246.317H51.98V238.517Z" fill="#FAFAFA"/>
<path d="M66.8821 238.517H59.1858V246.317H66.8821V238.517Z" fill="#FAFAFA"/>
<path d="M22.1542 252.692H14.4579V260.492H22.1542V252.692Z" fill="#FAFAFA"/>
<path d="M37.0671 252.692H29.3708V260.492H37.0671V252.692Z" fill="#FAFAFA"/>
<path d="M51.98 252.692H44.2838V260.492H51.98V252.692Z" fill="#FAFAFA"/>
<path d="M66.8821 252.692H59.1858V260.492H66.8821V252.692Z" fill="#E6E6E6"/>
<path d="M22.1542 266.867H14.4579V274.667H22.1542V266.867Z" fill="#E6E6E6"/>
<path d="M37.0671 266.867H29.3708V274.667H37.0671V266.867Z" fill="#E6E6E6"/>
<path d="M51.98 266.867H44.2838V274.667H51.98V266.867Z" fill="#FAFAFA"/>
<path d="M66.8821 266.867H59.1858V274.667H66.8821V266.867Z" fill="#E6E6E6"/>
<path opacity="0.1" d="M81.4134 18.0857H3.742V285.129H81.4134V18.0857Z" fill="white"/>
<g opacity="0.3">
<path opacity="0.3" d="M74.6873 18.0857H49.9306L22.841 285.129H47.5977L74.6873 18.0857Z" fill="white"/>
</g>
<path d="M83.1031 14.705H4.1236V21.4775H83.1031V14.705Z" fill="#E0E0E0"/>
<path d="M83.1031 282.798H4.1236V289.57H83.1031V282.798Z" fill="#EBEBEB"/>
<path d="M86.1664 295.349H0.547974V8.09825H86.1664V295.349ZM7.07782 288.72H79.6365V14.7271H7.07782V288.72Z" fill="#EBEBEB"/>
<path d="M224.024 331.012L223.151 331.122C223.097 330.669 217.799 285.726 228.733 249.002C239.634 212.543 232.112 189.232 232.003 189.011L232.843 188.723C232.919 188.955 240.474 212.488 229.572 249.256C218.693 285.803 223.969 330.57 224.024 331.012Z" fill="#E0E0E0"/>
<path d="M233.595 194.016C231.691 191.717 229.107 190.102 226.226 189.408L226.433 188.536C229.498 189.273 232.247 190.994 234.271 193.441L233.595 194.016Z" fill="#E0E0E0"/>
<path d="M237.334 197.734L234.819 199.174L235.253 199.953L237.768 198.513L237.334 197.734Z" fill="#E0E0E0"/>
<path d="M232.646 218.454C230.453 213.388 226.392 209.391 221.331 207.317L221.658 206.5C226.93 208.657 231.163 212.815 233.453 218.089L232.646 218.454Z" fill="#E0E0E0"/>
<path d="M230.292 246.527H229.409C229.38 244.72 228.956 242.941 228.168 241.319C227.38 239.698 226.248 238.273 224.852 237.147L225.397 236.451C226.896 237.661 228.112 239.191 228.958 240.933C229.805 242.675 230.26 244.586 230.292 246.527Z" fill="#E0E0E0"/>
<path d="M228.33 253.708L227.501 253.388C227.954 252.249 228.632 251.215 229.495 250.353C230.357 249.49 231.386 248.816 232.516 248.372L232.821 249.212C231.807 249.608 230.885 250.211 230.112 250.985C229.339 251.759 228.733 252.686 228.33 253.708Z" fill="#E0E0E0"/>
<path d="M222.617 299.26L221.941 298.696C223.032 297.381 223.827 292.399 224.263 289.725C224.361 289.084 224.449 288.543 224.525 288.145L225.386 288.311C225.321 288.698 225.234 289.239 225.125 289.869C224.481 293.879 223.751 297.879 222.617 299.26Z" fill="#E0E0E0"/>
<path d="M222.116 313.567C221.502 311.816 220.36 310.306 218.851 309.251C217.342 308.196 215.544 307.649 213.711 307.689V306.794C215.737 306.745 217.727 307.347 219.396 308.514C221.064 309.681 222.325 311.353 222.999 313.291L222.116 313.567Z" fill="#E0E0E0"/>
<path d="M228.844 322.912L222.64 329.947L223.298 330.543L229.502 323.508L228.844 322.912Z" fill="#E0E0E0"/>
<path d="M233.268 277.031C234.674 281.638 224.874 290.421 224.874 290.421C224.874 290.421 211.89 288.775 210.484 284.157C209.078 279.539 212.37 272.004 218.66 270.037C224.95 268.071 231.818 272.424 233.268 277.031Z" fill="#F0F0F0"/>
<path d="M244.104 221.083C242.861 225.978 233.573 229.458 233.573 229.458C233.573 229.458 227.098 221.868 228.34 216.973C229.583 212.079 234.718 206.677 239.067 207.815C243.417 208.953 245.346 216.189 244.104 221.083Z" fill="#EBEBEB"/>
<path d="M206.854 294.244C212.675 296.553 216.251 306.993 216.251 306.993C216.251 306.993 206.647 312.241 200.815 309.943C194.983 307.645 188.823 301.105 190.48 296.829C192.137 292.553 201.022 291.946 206.854 294.244Z" fill="#F5F5F5"/>
<path d="M219.63 236.761C220.806 237.765 222.155 238.54 223.609 239.048C224.342 239.285 225.125 239.316 225.874 239.137C226.623 238.958 227.31 238.576 227.861 238.031C229.114 236.573 228.777 234.319 227.992 232.562C226.433 229.082 220.688 223.182 216.273 224.829C209.906 227.314 216.785 234.628 219.63 236.761Z" fill="#E6E6E6"/>
<path d="M232.668 245.632C231.829 246.682 230.946 247.996 231.404 249.267C231.663 249.806 232.092 250.242 232.623 250.506C233.154 250.77 233.757 250.847 234.336 250.725C235.488 250.453 236.565 249.92 237.487 249.168C239.732 247.577 244.343 244.262 241.4 241.158C238.457 238.053 234.423 243.412 232.668 245.632Z" fill="#EBEBEB"/>
<path d="M213.853 201.44C213.368 201.467 212.904 201.648 212.526 201.957C212.148 202.266 211.876 202.688 211.749 203.163C211.563 204.268 212.49 205.285 213.384 205.981C215.619 207.726 222.323 212.433 223.827 207.892C225.244 203.605 216.818 201.075 213.853 201.44Z" fill="#E0E0E0"/>
<path d="M226.226 186.503C224.841 186.635 223.457 186.127 222.072 186.216C220.688 186.304 219.14 187.431 219.456 188.812C219.772 190.193 221.298 190.502 222.574 190.591C224.765 190.723 226.963 190.567 229.114 190.127C229.623 190.08 230.094 189.839 230.434 189.453C231 188.613 230.106 187.486 229.147 187.243C228.159 187.114 227.187 186.881 226.247 186.547L226.226 186.503Z" fill="#E6E6E6"/>
<path d="M239.809 196.159C241.204 196.159 242.545 195.595 243.94 195.595C245.336 195.595 246.938 196.612 246.72 198.004C246.502 199.396 244.987 199.827 243.711 199.993C241.54 200.284 239.341 200.284 237.17 199.993C236.656 199.981 236.165 199.772 235.797 199.407C235.186 198.6 236.004 197.429 236.887 197.065C237.868 196.872 238.826 196.572 239.743 196.17L239.809 196.159Z" fill="#F0F0F0"/>
<path d="M238.38 299.967C238.696 299.634 239.116 299.423 239.569 299.37C239.866 299.404 240.143 299.538 240.356 299.75C240.569 299.963 240.707 300.241 240.746 300.541C240.81 301.143 240.735 301.752 240.528 302.32C239.58 305.513 229.005 328.659 226.564 324.505C225.125 322.041 228.667 313.909 229.714 311.6C231.727 307.126 234.685 303.154 238.38 299.967Z" fill="#F0F0F0"/>
<path d="M232.058 187.376C232.74 185.416 233.908 183.666 235.448 182.293C237.116 181.067 239.809 180.979 241.008 182.669C242.37 184.558 241.008 187.431 238.926 188.436C236.843 189.442 234.412 189.132 232.123 188.812C232.123 188.469 232.123 188.127 232.069 187.784L232.058 187.376Z" fill="#E6E6E6"/>
<path d="M239.449 361.88C228.12 363.836 216.547 363.836 205.219 361.88L191.909 322.107H252.77L239.449 361.88Z" fill="#F0F0F0"/>
<path d="M231.731 64.0568C244.211 64.0568 254.329 53.8029 254.329 41.1541C254.329 28.5053 244.211 18.2514 231.731 18.2514C219.25 18.2514 209.132 28.5053 209.132 41.1541C209.132 53.8029 219.25 64.0568 231.731 64.0568Z" fill="#E0E0E0"/>
<path d="M252.528 43.8745C254.528 31.3891 246.162 19.6248 233.843 17.5981C221.523 15.5715 209.916 24.05 207.916 36.5354C205.916 49.0207 214.282 60.7851 226.601 62.8117C238.921 64.8384 250.529 56.3599 252.528 43.8745Z" fill="#EBEBEB"/>
<path opacity="0.8" d="M248.344 40.3476C248.344 43.9837 247.28 47.538 245.287 50.5613C243.294 53.5845 240.461 55.9408 237.146 57.3323C233.832 58.7237 230.184 59.0878 226.666 58.3784C223.147 57.6691 219.915 55.9182 217.378 53.3471C214.841 50.7761 213.113 47.5003 212.413 43.9342C211.714 40.368 212.073 36.6716 213.446 33.3124C214.819 29.9531 217.144 27.082 220.127 25.0619C223.11 23.0418 226.617 21.9636 230.205 21.9636C235.016 21.9636 239.629 23.9005 243.031 27.3482C246.433 30.7959 248.344 35.4719 248.344 40.3476Z" fill="white"/>
<path d="M229.223 42.0822C228.88 41.7315 228.688 41.2574 228.689 40.7635C228.69 40.2697 228.884 39.7964 229.229 39.4472C229.573 39.098 230.041 38.9014 230.528 38.9003C231.015 38.8993 231.483 39.0939 231.829 39.4417C232.001 39.6148 232.138 39.8207 232.231 40.0475C232.325 40.2744 232.373 40.5177 232.374 40.7635C232.374 41.0094 232.327 41.2529 232.234 41.4802C232.142 41.7074 232.006 41.9139 231.834 42.0877C231.663 42.2616 231.459 42.3994 231.235 42.4932C231.011 42.587 230.77 42.6351 230.528 42.6346C230.285 42.6341 230.045 42.585 229.821 42.4902C229.597 42.3954 229.394 42.2567 229.223 42.0822Z" fill="#E0E0E0"/>
<path d="M230.205 40.1267L240.91 39.7952L240.942 40.9221L231.24 41.2204L230.194 58.3229L229.093 58.2566L230.205 40.1267Z" fill="#E0E0E0"/>
<path d="M231.088 411C347.821 411 442.452 405.401 442.452 398.494C442.452 391.586 347.821 385.987 231.088 385.987C114.354 385.987 19.7233 391.586 19.7233 398.494C19.7233 405.401 114.354 411 231.088 411Z" fill="#F5F5F5"/>
<path d="M427.692 340.182L433.229 250.847C433.716 242.99 432.61 235.116 429.978 227.709C427.346 220.302 423.245 213.521 417.927 207.783C412.61 202.045 406.188 197.471 399.059 194.345C391.93 191.219 384.245 189.607 376.477 189.607C361.953 189.609 347.98 195.244 337.425 205.356C326.87 215.468 320.533 229.289 319.715 243.986L313.937 348.324H419.134C421.314 348.323 423.412 347.481 425.002 345.968C426.591 344.456 427.553 342.387 427.692 340.182Z" fill="#FFB946"/>
<path opacity="0.1" d="M427.888 336.967L433.229 250.869C433.716 243.012 432.61 235.138 429.978 227.731C427.346 220.325 423.245 213.543 417.927 207.805C412.61 202.067 406.188 197.493 399.059 194.368C391.93 191.242 384.245 189.629 376.477 189.629C361.953 189.631 347.98 195.266 337.425 205.378C326.87 215.49 320.533 229.312 319.715 244.008L313.937 348.324H415.962C418.999 348.314 421.92 347.136 424.134 345.028C426.347 342.92 427.689 340.039 427.888 336.967Z" fill="black"/>
<path d="M410.62 348.324L416.66 250.847C417.145 242.991 416.037 235.117 413.405 227.711C410.772 220.305 406.671 213.524 401.354 207.786C396.036 202.048 389.616 197.475 382.487 194.349C375.359 191.222 367.675 189.609 359.908 189.607C345.383 189.607 331.408 195.241 320.853 205.353C310.297 215.465 303.961 229.289 303.145 243.986L297.334 348.324H410.62Z" fill="#FFB946"/>
<path d="M412.43 365.106H413.88C414.271 365.085 414.641 364.923 414.925 364.649C415.209 364.376 415.387 364.009 415.428 363.615L417.608 348.335H408.778L410.958 363.615C410.998 363.996 411.166 364.352 411.434 364.624C411.702 364.895 412.053 365.065 412.43 365.106Z" fill="#FFB946"/>
<path opacity="0.7" d="M412.43 365.106H413.88C414.271 365.085 414.641 364.923 414.925 364.649C415.209 364.376 415.387 364.009 415.428 363.615L417.608 348.335H408.778L410.958 363.615C410.998 363.996 411.166 364.352 411.434 364.624C411.702 364.895 412.053 365.065 412.43 365.106Z" fill="white"/>
<path d="M270.005 365.106H271.313C271.684 365.067 272.03 364.896 272.287 364.623C272.545 364.349 272.698 363.992 272.719 363.615L274.693 348.335H266.669L268.621 363.615C268.641 363.989 268.791 364.343 269.045 364.616C269.298 364.889 269.638 365.063 270.005 365.106Z" fill="#FFB946"/>
<path opacity="0.5" d="M270.005 365.106H271.313C271.684 365.067 272.03 364.896 272.287 364.623C272.545 364.349 272.698 363.992 272.719 363.615L274.693 348.335H266.669L268.621 363.615C268.641 363.989 268.791 364.343 269.045 364.616C269.298 364.889 269.638 365.063 270.005 365.106Z" fill="white"/>
<path d="M311.005 365.106H312.324C312.695 365.067 313.04 364.896 313.298 364.623C313.555 364.349 313.709 363.992 313.73 363.615L315.67 348.335H307.658L309.577 363.615C309.599 363.996 309.755 364.356 310.017 364.629C310.279 364.903 310.63 365.072 311.005 365.106Z" fill="#FFB946"/>
<path opacity="0.7" d="M311.005 365.106H312.324C312.695 365.067 313.04 364.896 313.298 364.623C313.555 364.349 313.709 363.992 313.73 363.615L315.67 348.335H307.658L309.577 363.615C309.599 363.996 309.755 364.356 310.017 364.629C310.279 364.903 310.63 365.072 311.005 365.106Z" fill="white"/>
<path d="M368.28 365.106H369.73C370.121 365.083 370.492 364.921 370.777 364.648C371.062 364.375 371.243 364.009 371.289 363.615L373.469 348.335H364.628L366.808 363.615C366.846 363.997 367.014 364.354 367.282 364.626C367.55 364.898 367.903 365.067 368.28 365.106Z" fill="#FFB946"/>
<path opacity="0.5" d="M368.28 365.106H369.73C370.121 365.083 370.492 364.921 370.777 364.648C371.062 364.375 371.243 364.009 371.289 363.615L373.469 348.335H364.628L366.808 363.615C366.846 363.997 367.014 364.354 367.282 364.626C367.55 364.898 367.903 365.067 368.28 365.106Z" fill="white"/>
<path d="M320.282 311.556H281.517L278.955 273.683L278.399 265.552L278.148 261.807C278.078 260.824 277.951 259.846 277.767 258.879C277.767 258.669 277.679 258.437 277.636 258.227C277.613 258.068 277.572 257.913 277.516 257.763C276.471 253.903 274.436 250.392 271.618 247.588C268.367 244.332 264.068 242.371 259.507 242.064H295.972C296.364 242.064 296.768 242.064 297.171 242.064C302.115 242.086 306.853 244.069 310.372 247.588C313.194 250.391 315.232 253.902 316.281 257.763C316.337 257.913 316.377 258.068 316.401 258.227C316.657 259.406 316.828 260.602 316.913 261.807L317.164 265.552L320.282 311.556Z" fill="#FFB946"/>
<path opacity="0.1" d="M320.282 311.556H281.517L278.955 273.683L278.399 265.552L278.148 261.807C278.078 260.824 277.951 259.846 277.767 258.879C277.767 258.669 277.679 258.437 277.636 258.227C277.613 258.068 277.572 257.913 277.516 257.763C276.471 253.903 274.436 250.392 271.618 247.588C268.367 244.332 264.068 242.371 259.507 242.064H295.972C296.364 242.064 296.768 242.064 297.171 242.064C302.115 242.086 306.853 244.069 310.372 247.588C313.194 250.391 315.232 253.902 316.281 257.763C316.337 257.913 316.377 258.068 316.401 258.227C316.657 259.406 316.828 260.602 316.913 261.807L317.164 265.552L320.282 311.556Z" fill="black"/>
<g opacity="0.1">
<path opacity="0.1" d="M351.001 291.338H366.568C370.362 291.338 373.425 293.769 373.425 296.763V306.087C373.425 309.092 370.362 311.512 366.568 311.512H351.001V291.338Z" fill="black"/>
</g>
<path d="M287.436 311.512H356.005C359.268 311.512 361.913 308.831 361.913 305.524V297.315C361.913 294.008 359.268 291.327 356.005 291.327H287.436C284.173 291.327 281.528 294.008 281.528 297.315V305.524C281.528 308.831 284.173 311.512 287.436 311.512Z" fill="#FFB946"/>
<path d="M449.113 264.348C449.122 269.63 447.287 274.745 443.934 278.789C440.58 282.833 435.924 285.544 430.788 286.444L426.809 340.281C426.46 344.855 423.179 348.357 419.254 348.357H376.499C380.424 348.357 383.694 344.855 384.043 340.281L386.223 311.556L388.066 286.411C391.426 285.826 394.606 284.457 397.355 282.414C400.103 280.37 402.346 277.706 403.905 274.633C404.119 274.243 404.312 273.841 404.483 273.429C405.743 270.572 406.389 267.477 406.38 264.348C406.378 262.815 406.224 261.286 405.922 259.785C405.802 259.188 405.649 258.592 405.486 258.006C404.709 255.375 403.468 252.908 401.823 250.725C399.76 248.002 397.107 245.796 394.07 244.275C391.033 242.754 387.692 241.96 384.305 241.953H427.059C430.486 241.941 433.867 242.751 436.925 244.317C439.915 245.826 442.525 248.006 444.556 250.692C447.523 254.608 449.125 259.41 449.113 264.348Z" fill="#FFB946"/>
<path opacity="0.1" d="M449.113 264.348C449.122 269.63 447.287 274.745 443.934 278.789C440.58 282.833 435.924 285.544 430.788 286.444L426.809 340.281C426.46 344.855 423.179 348.357 419.254 348.357H376.499C380.424 348.357 383.694 344.855 384.043 340.281L386.223 311.556L388.066 286.411C391.426 285.826 394.606 284.457 397.355 282.414C400.103 280.37 402.346 277.706 403.905 274.633C404.119 274.243 404.312 273.841 404.483 273.429C405.743 270.572 406.389 267.477 406.38 264.348C406.378 262.815 406.224 261.286 405.922 259.785C405.802 259.188 405.649 258.592 405.486 258.006C404.709 255.375 403.468 252.908 401.823 250.725C399.76 248.002 397.107 245.796 394.07 244.275C391.033 242.754 387.692 241.96 384.305 241.953H427.059C430.486 241.941 433.867 242.751 436.925 244.317C439.915 245.826 442.525 248.006 444.556 250.692C447.523 254.608 449.125 259.41 449.113 264.348Z" fill="black"/>
<path d="M406.391 264.359C406.391 275.407 399.207 284.61 389.777 286.455L386.136 340.281C385.82 344.855 382.866 348.368 379.29 348.368H265.11C261.557 348.368 258.57 344.855 258.264 340.281L254.612 286.355C245.368 284.389 238.381 275.307 238.381 264.392C238.359 259.809 239.642 255.317 242.076 251.455C243.918 248.509 246.454 246.075 249.456 244.373C252.189 242.815 255.271 241.997 258.406 241.997C263.352 242.027 268.091 244.009 271.618 247.521C274.436 250.322 276.471 253.829 277.516 257.686C277.573 257.843 277.613 258.006 277.636 258.172C277.894 259.347 278.065 260.54 278.148 261.74L278.41 265.486L281.517 311.556H362.884L366.252 261.84C366.732 254.813 370.111 248.958 374.799 246.185C377.761 243.782 381.38 242.359 385.166 242.108C385.564 242.067 385.965 242.049 386.365 242.053C389.409 242.035 392.408 242.795 395.086 244.262C395.169 244.3 395.25 244.344 395.326 244.395C398.09 245.95 400.463 248.132 402.259 250.77C404.965 254.769 406.406 259.509 406.391 264.359Z" fill="#FFB946"/>
<path opacity="0.1" d="M360.998 348.335H265.067C261.513 348.335 258.526 344.822 258.221 340.248L254.569 286.322C245.325 284.356 238.337 275.274 238.337 264.359C238.315 259.776 239.598 255.284 242.032 251.421C243.874 248.476 246.41 246.042 249.413 244.34C252.145 242.782 255.227 241.964 258.363 241.964C263.308 241.994 268.047 243.975 271.575 247.488C274.393 250.289 276.428 253.796 277.472 257.653C277.529 257.81 277.569 257.973 277.592 258.139C277.85 259.314 278.021 260.506 278.105 261.707L278.366 265.452L281.517 311.556H362.884L360.998 348.335Z" fill="white"/>
<path d="M348.559 195.242C346.663 196.347 344.929 197.264 343.109 198.203C341.288 199.142 339.501 200.004 337.658 200.865C333.995 202.556 330.289 204.18 326.474 205.583C322.628 207.032 318.713 208.286 314.744 209.339C310.615 210.464 306.399 211.229 302.142 211.626L301.237 211.715H300.812C296.964 211.262 293.552 210.61 290.129 209.836C286.706 209.063 283.315 208.301 279.958 207.428C276.6 206.555 273.265 205.66 269.929 204.688C266.593 203.716 263.29 202.71 259.987 201.572L261.502 193.905C268.359 194.347 275.205 195.01 281.986 195.728L292.113 196.755C295.449 197.087 298.861 197.374 301.848 197.485H300.529C303.95 196.867 307.323 196.003 310.623 194.899C314.035 193.795 317.447 192.535 320.859 191.055C324.271 189.574 327.651 188.05 331.008 186.425C332.731 185.63 334.399 184.79 336.034 183.962C337.669 183.133 339.413 182.249 340.907 181.465L348.559 195.242Z" fill="#263238"/>
<path opacity="0.1" d="M348.559 195.242C346.663 196.347 344.929 197.264 343.109 198.203C341.288 199.142 339.501 200.004 337.658 200.865C333.995 202.556 330.289 204.18 326.474 205.583C322.628 207.032 318.713 208.286 314.744 209.339C310.615 210.464 306.399 211.229 302.142 211.626L301.237 211.715H300.812C296.964 211.262 293.552 210.61 290.129 209.836C286.706 209.063 283.315 208.301 279.958 207.428C276.6 206.555 273.265 205.66 269.929 204.688C266.593 203.716 263.29 202.71 259.987 201.572L261.502 193.905C268.359 194.347 275.205 195.01 281.986 195.728L292.113 196.755C295.449 197.087 298.861 197.374 301.848 197.485H300.529C303.95 196.867 307.323 196.003 310.623 194.899C314.035 193.795 317.447 192.535 320.859 191.055C324.271 189.574 327.651 188.05 331.008 186.425C332.731 185.63 334.399 184.79 336.034 183.962C337.669 183.133 339.413 182.249 340.907 181.465L348.559 195.242Z" fill="black"/>
<path d="M260.118 189.696C258.506 188.549 256.725 187.669 254.841 187.088L252.018 198.258L260.477 201.86L261.437 200.666C262.087 199.87 262.571 198.947 262.857 197.954C263.144 196.962 263.229 195.92 263.105 194.894C262.982 193.867 262.653 192.877 262.139 191.983C261.626 191.089 260.938 190.311 260.118 189.696Z" fill="#FFC3BD"/>
<path d="M252.018 198.258L254.841 187.088L246.949 182.724L244.572 190.591L252.018 198.258Z" fill="#FFC3BD"/>
<path opacity="0.2" d="M322.015 206.599H322.32H322.451C326.615 206.146 338.857 204.058 347.709 195.209C346.39 192.623 344.58 190.624 342.368 190.171C336.263 189 328.785 193.43 322.015 206.599Z" fill="black"/>
<path d="M329.199 264.348C339.642 235.766 332.774 209.483 334.083 194.933C334.404 191.346 335.87 187.963 338.257 185.296C340.645 182.628 343.826 180.822 347.317 180.15C354.446 178.758 363.265 177.189 371.67 176.04C374.019 175.712 376.41 175.902 378.679 176.598C380.948 177.294 383.042 178.479 384.817 180.072C386.592 181.665 388.006 183.628 388.962 185.827C389.918 188.026 390.393 190.409 390.355 192.811C389.624 235.899 375.998 264.348 375.998 264.348L353.977 264.248L329.199 264.348Z" fill="#FFB946"/>
<path opacity="0.8" d="M329.199 264.348C339.642 235.766 332.774 209.483 334.083 194.933C334.404 191.346 335.87 187.963 338.257 185.296C340.645 182.628 343.826 180.822 347.317 180.15C354.446 178.758 363.265 177.189 371.67 176.04C374.019 175.712 376.41 175.902 378.679 176.598C380.948 177.294 383.042 178.479 384.817 180.072C386.592 181.665 388.006 183.628 388.962 185.827C389.918 188.026 390.393 190.409 390.355 192.811C389.624 235.899 375.998 264.348 375.998 264.348L353.977 264.248L329.199 264.348Z" fill="white"/>
<path d="M245.652 361.869L242.861 380.463H251.724L257.545 361.869H245.652Z" fill="#FFC3BD"/>
<path d="M241.727 376.32L253.577 376.033C253.669 376.022 253.763 376.031 253.852 376.059C253.941 376.088 254.023 376.134 254.093 376.197C254.163 376.259 254.219 376.336 254.258 376.422C254.297 376.508 254.317 376.601 254.318 376.696V385.534C254.265 386.024 254.038 386.477 253.678 386.808C253.319 387.14 252.853 387.327 252.367 387.335C248.246 387.335 246.284 387.18 241.073 387.335C235.525 387.317 229.984 386.948 224.481 386.23C220.263 385.501 221.407 381.491 223.315 381.424C231.927 381.104 236.745 379.281 239.841 377.005C240.381 376.577 241.042 376.337 241.727 376.32Z" fill="#263238"/>
<path opacity="0.2" d="M244.529 369.327L245.652 361.869H257.545L254.689 371.172L244.529 369.327Z" fill="black"/>
<path d="M323.748 257.653C323.748 257.653 251.636 258.382 250.514 281.527C248.922 314.804 243.373 365.493 243.373 365.493L256.967 369.282C256.967 369.282 276.371 318.98 277.124 292.984C297.411 288.897 349.551 292.984 355.678 279.484C358.672 272.612 359.48 264.966 357.989 257.608L323.748 257.653Z" fill="#FFB946"/>
<path opacity="0.6" d="M323.748 257.653C323.748 257.653 251.636 258.382 250.514 281.527C248.922 314.804 243.373 365.493 243.373 365.493L256.967 369.282C256.967 369.282 276.371 318.98 277.124 292.984C297.411 288.897 349.551 292.984 355.678 279.484C358.672 272.612 359.48 264.966 357.989 257.608L323.748 257.653Z" fill="black"/>
<path d="M309.097 369.061L313.904 381.678H323.628L320.282 368.41L309.097 369.061Z" fill="#FFC3BD"/>
<path opacity="0.2" d="M321.186 371.989L319.3 362.278L307.015 363.825L310.165 372.265L321.186 371.989Z" fill="black"/>
<path d="M311.266 377.502H323.683C323.884 377.487 324.082 377.553 324.235 377.685C324.388 377.818 324.484 378.006 324.5 378.209L325.1 387.633C325.089 388.143 324.88 388.628 324.519 388.984C324.158 389.339 323.674 389.537 323.17 389.534C318.81 389.456 316.782 389.213 311.321 389.213C307.974 389.213 301.194 389.545 296.561 389.545C291.927 389.545 292.058 385.125 294.01 384.783C302.84 382.993 306.252 380.529 309.359 378.154C309.911 377.739 310.579 377.511 311.266 377.502Z" fill="#263238"/>
<path d="M343.141 257.653C343.141 257.653 277.734 262.149 279.347 285.273C281.102 310.595 307.298 369.316 307.298 369.316H320.478C320.478 369.316 311.757 316.042 307.745 290.233C326.19 290.233 368.934 293.051 375.082 279.517C378.064 272.642 378.864 264.997 377.371 257.641L343.141 257.653Z" fill="#FFB946"/>
<path opacity="0.5" d="M343.141 257.653C343.141 257.653 277.734 262.149 279.347 285.273C281.102 310.595 307.298 369.316 307.298 369.316H320.478C320.478 369.316 311.757 316.042 307.745 290.233C326.19 290.233 368.934 293.051 375.082 279.517C378.064 272.642 378.864 264.997 377.371 257.641L343.141 257.653Z" fill="black"/>
<path d="M353.051 163.976C354.555 169.875 355.024 177.233 346.892 180.272C344.635 183.918 343.534 187.762 352.222 186.392C359.139 185.486 365.432 181.879 369.762 176.339C364.562 171.72 365.511 157.557 366.83 149.569L353.051 163.976Z" fill="#FFC3BD"/>
<path d="M352.091 174.714C344.624 176.007 338.487 181.863 335.194 188.768C331.902 195.673 331.107 203.539 331.172 211.217C331.237 218.896 332.099 226.541 331.891 234.208C331.662 243.047 329.559 249.311 326.55 257.641C326.55 259.619 329.504 260.735 332 261.254C337.211 249.731 340.634 238.705 340.274 226.044C340.002 216.852 339.882 206.378 341.365 197.319C342.847 188.259 353.541 176.427 353.029 174.792L352.091 174.714Z" fill="#263238"/>
<path opacity="0.3" d="M359.395 168.307C358.613 168.896 357.721 169.319 356.773 169.55C355.825 169.782 354.841 169.817 353.879 169.654C353.897 168.219 353.795 166.785 353.574 165.368L362.6 157.855C362.798 158.831 362.925 159.821 362.982 160.816C363.079 162.273 362.8 163.73 362.171 165.044C361.542 166.358 360.585 167.483 359.395 168.307Z" fill="black"/>
<path d="M345.899 129.086C336.361 134.555 336.263 150.011 339.206 158.916C339.949 161.252 341.311 163.337 343.143 164.942C344.976 166.547 347.209 167.611 349.597 168.017C351.986 168.423 354.439 168.156 356.688 167.244C358.937 166.333 360.896 164.812 362.349 162.849C367.015 156.872 366.339 150.84 366.11 140.454C365.881 130.069 355.449 123.628 345.899 129.086Z" fill="#FFC3BD"/>
<path opacity="0.2" d="M348.974 156.883C345.9 158.22 342.531 159.954 339.424 159.579C340.26 161.818 341.673 163.788 343.517 165.285C345.36 166.782 347.566 167.75 349.905 168.089C352.243 168.428 354.628 168.124 356.811 167.21C358.995 166.296 360.896 164.805 362.317 162.893C366.165 157.988 367.353 154.673 366.263 145.746C360.289 152.839 355.547 154.01 348.974 156.883Z" fill="black"/>
<path d="M358.196 132.577C357.206 134.208 356.765 136.121 356.94 138.028C357.115 139.935 357.896 141.732 359.166 143.15C360.028 144.067 361.085 144.774 361.913 145.713C363.206 147.187 363.878 149.113 363.788 151.083C363.982 149.816 364.605 148.657 365.55 147.804C366.495 146.951 367.702 146.458 368.967 146.409C367.673 150.468 366.379 154.519 365.086 158.562C367.646 157.352 369.859 155.499 371.515 153.178C373.171 150.858 374.215 148.148 374.548 145.304C375.377 137.46 365.827 120.656 358.196 132.577Z" fill="#263238"/>
<path d="M335.936 133.118C335.206 133.94 334.686 134.93 334.42 136.002C334.293 136.533 334.329 137.091 334.524 137.601C334.719 138.11 335.063 138.547 335.511 138.852C336.336 139.19 337.25 139.236 338.105 138.985L346.826 137.449C351.819 136.565 356.812 135.693 361.739 134.488C363.919 133.958 366.437 133.107 367.309 130.986C370.133 124.081 358.076 123.186 354.043 123.374C347.175 123.739 340.231 127.738 335.936 133.118Z" fill="#263238"/>
<path d="M367.658 144.642C364.802 145.293 363.581 149.459 363.658 152.132C363.658 155.17 365.838 157.148 368.367 155.314C370.245 153.899 371.523 151.814 371.943 149.481C372.455 146.619 370.525 143.99 367.658 144.642Z" fill="#FFC3BD"/>
<path d="M347.48 155.193C347.047 155.485 346.556 155.677 346.042 155.755C345.528 155.833 345.003 155.796 344.504 155.645C345.594 153.149 345.463 153.712 345.801 149.47L347.48 155.193Z" fill="#ED847E"/>
<path d="M352.506 141.416C351.688 140.487 349.453 140.134 348.243 140.311C348.121 140.327 347.997 140.294 347.898 140.22C347.798 140.146 347.731 140.036 347.709 139.913C347.693 139.78 347.726 139.647 347.803 139.538C347.88 139.429 347.994 139.354 348.123 139.327C349.65 139.095 352.19 139.559 353.225 140.719C353.315 140.812 353.365 140.937 353.365 141.068C353.365 141.198 353.315 141.323 353.225 141.416C353.164 141.48 353.09 141.529 353.007 141.559C352.919 141.587 352.824 141.588 352.736 141.562C352.647 141.537 352.567 141.486 352.506 141.416Z" fill="#263238"/>
<path d="M338.399 143.482C338.297 143.41 338.226 143.301 338.202 143.177C338.177 143.053 338.201 142.925 338.269 142.819C338.65 142.122 339.187 141.524 339.836 141.073C340.485 140.623 341.228 140.331 342.008 140.222C342.067 140.221 342.127 140.232 342.182 140.254C342.238 140.276 342.288 140.309 342.331 140.351C342.373 140.393 342.407 140.444 342.431 140.499C342.454 140.555 342.466 140.615 342.466 140.675C342.472 140.809 342.426 140.941 342.339 141.042C342.251 141.143 342.129 141.205 341.997 141.217C341.382 141.316 340.798 141.556 340.288 141.918C339.778 142.279 339.356 142.754 339.053 143.305C339.014 143.377 338.957 143.438 338.889 143.482C338.82 143.526 338.742 143.553 338.661 143.559C338.567 143.567 338.474 143.539 338.399 143.482Z" fill="#263238"/>
<path d="M346.641 159.689C347.689 161.042 348.654 162.458 349.53 163.932L350.206 163.644C353.28 162.296 354.152 160.418 354.195 158.75C354.158 157.423 353.754 156.133 353.029 155.027C351.939 156.938 349.181 158.463 347.677 159.203C347.033 159.523 346.641 159.689 346.641 159.689Z" fill="#2E353A"/>
<path d="M347.655 159.203L348.102 159.822C348.224 159.988 348.398 160.107 348.596 160.161C348.794 160.215 349.003 160.201 349.192 160.12C351.459 159.015 352.964 157.91 353.552 156.662C353.606 156.544 353.634 156.416 353.634 156.286C353.634 156.157 353.606 156.028 353.552 155.911C353.407 155.604 353.239 155.309 353.051 155.027C351.906 156.938 349.159 158.463 347.655 159.203Z" fill="white"/>
<path d="M350.184 163.644C353.258 162.296 354.13 160.418 354.174 158.75C353.006 159.296 351.968 160.091 351.132 161.081C350.556 161.812 350.224 162.71 350.184 163.644Z" fill="#DE5753"/>
<path d="M341.899 146.94C341.365 147.039 341.07 147.812 341.223 148.641C341.376 149.47 341.953 150.066 342.487 149.956C343.022 149.845 343.316 149.094 343.163 148.265C343.011 147.437 342.433 146.94 341.899 146.94Z" fill="#263238"/>
<path d="M351.252 145.415C350.718 145.514 350.423 146.277 350.576 147.116C350.729 147.956 351.306 148.542 351.841 148.431C352.375 148.321 352.669 147.558 352.517 146.73C352.364 145.901 351.786 145.315 351.252 145.415Z" fill="#263238"/>
<path opacity="0.9" d="M337.778 151.425L344.657 149.856L344.777 152.817L338.378 154.364L337.778 151.425Z" fill="white"/>
<g opacity="0.8">
<path opacity="0.9" d="M346.75 149.392L347.567 152.11L356.397 150.188L355.874 147.05L346.75 149.392Z" fill="white"/>
</g>
<path d="M344.7 150.95L344.657 149.856L346.75 149.392L347.055 150.42L344.7 150.95Z" fill="#263238"/>
<path d="M342.193 263.077C342.193 263.077 354.61 267.949 357.455 268.899C360.726 270.197 364.168 270.998 367.669 271.275C369.445 271.396 371.225 271.132 372.893 270.502C374.56 269.871 376.075 268.888 377.339 267.618C380.304 264.414 381.23 259.553 382.004 254.99C384.272 241.592 386.547 228.195 388.829 214.797C389.919 208.168 392.786 198.225 392.546 194.48C392.099 187.519 387.728 179.299 376.597 174.781C372.237 173.024 367.996 173.676 364.355 178.095C362.175 180.725 355.831 187.066 354.272 198.236C353.029 207.185 351.089 218.774 351.208 227.867C351.35 239.821 346.641 254.89 342.193 263.077Z" fill="#263238"/>
<path d="M391.935 190.801C393.2 202.445 386.845 231.8 385.624 233.568C380.413 250.593 366.1 241.412 364.028 240.627C360.42 239.28 356.746 236.639 353.312 234.882C346.652 231.568 340.34 228.828 334.148 224.663L337.636 217.681C344.428 220.023 363.647 225.061 366.819 225.845C368.193 226.21 373.545 229.049 373.491 225.304C374.243 224.055 375.289 199.738 377.589 191.143C377.852 190.178 378.308 189.279 378.93 188.502L379.137 188.237C379.977 187.171 381.089 186.359 382.354 185.889C383.618 185.42 384.985 185.312 386.305 185.576C387.626 185.841 388.849 186.468 389.842 187.389C390.835 188.311 391.559 189.491 391.935 190.801Z" fill="#263238"/>
<path opacity="0.1" d="M391.935 190.801C393.2 202.445 386.845 231.8 385.624 233.568C380.413 250.593 366.1 241.412 364.028 240.627C360.42 239.28 356.746 236.639 353.312 234.882C346.652 231.568 340.34 228.828 334.148 224.663L337.636 217.681C344.428 220.023 363.647 225.061 366.819 225.845C368.193 226.21 373.545 229.049 373.491 225.304C374.243 224.055 375.289 199.738 377.589 191.143C377.852 190.178 378.308 189.279 378.93 188.502L379.137 188.237C379.977 187.171 381.089 186.359 382.354 185.889C383.618 185.42 384.985 185.312 386.305 185.576C387.626 185.841 388.849 186.468 389.842 187.389C390.835 188.311 391.559 189.491 391.935 190.801Z" fill="white"/>
<path d="M334.911 234.772H302.643L298.959 192.104H331.226L334.911 234.772Z" fill="#263238"/>
<path opacity="0.5" d="M334.911 234.772H302.643L298.959 192.104H331.226L334.911 234.772Z" fill="white"/>
<path d="M333.766 234.562H301.499L297.814 191.894H330.082L333.766 234.562Z" fill="#FFB946"/>
<path opacity="0.8" d="M333.766 234.562H301.499L297.814 191.894H330.082L333.766 234.562Z" fill="white"/>
<path d="M320.968 194.557H307.396L306.938 189.221H320.5L320.968 194.557Z" fill="#FFB946"/>
<path d="M306.938 189.221L308.268 188.757H322.32L322.516 191.021L321.47 192.248L321.404 194.104L320.968 194.557L320.5 189.221H306.938Z" fill="#FFB946"/>
<path opacity="0.5" d="M306.938 189.221L308.268 188.757H322.32L322.516 191.021L321.47 192.248L321.404 194.104L320.968 194.557L320.5 189.221H306.938Z" fill="black"/>
<path d="M340.209 219.99L340.939 223.978C339.195 228.585 329.199 227.37 329.199 227.37V215.581L338.018 217.658C338.565 217.794 339.062 218.085 339.451 218.499C339.839 218.912 340.102 219.429 340.209 219.99Z" fill="#FFC3BD"/>
<path d="M329.177 215.581L329.221 227.392L320.369 227.613L318.341 217.228L329.177 215.581Z" fill="#FFC3BD"/>
<path d="M362.884 311.556L366.252 261.84C366.732 254.813 370.111 248.958 374.799 246.185C377.761 243.782 381.38 242.359 385.166 242.108C385.564 242.067 385.965 242.049 386.365 242.053C389.409 242.035 392.408 242.795 395.086 244.262C395.169 244.3 395.25 244.344 395.326 244.395C398.09 245.95 400.463 248.132 402.259 250.77C404.977 254.781 406.422 259.537 406.401 264.403C406.401 275.451 399.218 284.654 389.788 286.499L386.136 340.281C385.82 344.855 382.866 348.368 379.29 348.368H360.998L362.884 311.556Z" fill="#FFB946"/>
<path opacity="0.1" d="M362.884 311.556L366.252 261.84C366.732 254.813 370.111 248.958 374.799 246.185C377.761 243.782 381.38 242.359 385.166 242.108C385.564 242.067 385.965 242.049 386.365 242.053C389.409 242.035 392.408 242.795 395.086 244.262C395.169 244.3 395.25 244.344 395.326 244.395C398.09 245.95 400.463 248.132 402.259 250.77C404.977 254.781 406.422 259.537 406.401 264.403C406.401 275.451 399.218 284.654 389.788 286.499L386.136 340.281C385.82 344.855 382.866 348.368 379.29 348.368H360.998L362.884 311.556Z" fill="white"/>
<path d="M196.531 80.2091V126.401C196.531 127.573 196.071 128.697 195.253 129.526C194.436 130.355 193.327 130.82 192.17 130.82H145.491L128.812 143.89C128.339 144.253 127.775 144.474 127.185 144.529C126.594 144.584 126 144.47 125.47 144.202C124.939 143.933 124.494 143.519 124.183 143.007C123.872 142.496 123.708 141.906 123.71 141.305V130.82H121.105C119.948 130.82 118.839 130.355 118.022 129.526C117.204 128.697 116.744 127.573 116.744 126.401V80.1981C116.747 79.6227 116.863 79.0536 117.084 78.5236C117.305 77.9937 117.628 77.5135 118.033 77.1108C118.439 76.708 118.919 76.3907 119.446 76.1773C119.973 75.9639 120.537 75.8585 121.105 75.8672H192.246C193.383 75.8672 194.472 76.3247 195.276 77.1389C196.079 77.9532 196.531 79.0576 196.531 80.2091V80.2091Z" stroke="#FFB946" stroke-miterlimit="10"/>
<path d="M152.817 69.3599H143.91V70.4647H152.817V69.3599Z" fill="#FFB946"/>
<path d="M111.174 82.3745H110.084V76.9278C110.087 74.9167 110.877 72.989 112.281 71.568C113.685 70.147 115.589 69.3488 117.573 69.3488H137.446V70.4537H117.551C115.857 70.4566 114.232 71.1393 113.033 72.3525C111.834 73.5657 111.158 75.2107 111.152 76.9278L111.174 82.3745Z" fill="#FFB946"/>
<path d="M174.15 109.708C173.677 109.71 173.207 109.614 172.772 109.424C172.337 109.234 171.945 108.955 171.622 108.604C171.298 108.253 171.05 107.839 170.892 107.386C170.735 106.933 170.671 106.452 170.706 105.973C171.872 92.5057 182.403 91.2683 183.722 75.9556C184.103 71.5364 182.512 69.8792 179.47 69.8792C176.429 69.8792 174.554 71.5474 174.172 75.9556L173.954 78.4746C173.856 79.6126 173.34 80.6719 172.508 81.4431C171.677 82.2143 170.59 82.6413 169.463 82.6397C168.839 82.6391 168.222 82.507 167.651 82.2519C167.08 81.9968 166.568 81.6241 166.147 81.1577C165.725 80.6913 165.404 80.1412 165.204 79.5424C165.003 78.9436 164.928 78.3091 164.982 77.6791L165.081 76.5743C165.931 66.7194 171.196 61.107 180.495 61.107C189.794 61.107 194.078 66.7415 193.228 76.5743C191.843 92.5388 180.342 95.0136 179.361 106.272C179.367 106.327 179.367 106.382 179.361 106.437C179.311 107.33 178.927 108.171 178.287 108.786C177.647 109.402 176.799 109.748 175.916 109.752L174.15 109.708ZM178.871 119.076C178.772 120.235 178.248 121.314 177.402 122.099C176.556 122.885 175.45 123.32 174.303 123.319C173.667 123.32 173.038 123.187 172.456 122.927C171.874 122.668 171.351 122.289 170.921 121.814C170.492 121.339 170.164 120.779 169.96 120.169C169.756 119.558 169.679 118.912 169.735 118.27C169.834 117.109 170.359 116.029 171.208 115.243C172.056 114.457 173.165 114.023 174.314 114.027C174.948 114.03 175.575 114.165 176.156 114.425C176.736 114.686 177.256 115.065 177.684 115.539C178.113 116.014 178.439 116.573 178.643 117.182C178.847 117.791 178.925 118.436 178.871 119.076Z" fill="#FFB946"/>
<path d="M161.865 98.8915H136.792C136.214 98.8915 135.659 98.6587 135.25 98.2443C134.841 97.8299 134.612 97.2679 134.612 96.6818C134.612 96.0958 134.841 95.5338 135.25 95.1194C135.659 94.705 136.214 94.4722 136.792 94.4722H161.865C162.443 94.4722 162.997 94.705 163.406 95.1194C163.815 95.5338 164.045 96.0958 164.045 96.6818C164.045 97.2679 163.815 97.8299 163.406 98.2443C162.997 98.6587 162.443 98.8915 161.865 98.8915Z" fill="#FFB946"/>
<path d="M158.398 107.642H136.835C136.257 107.642 135.703 107.409 135.294 106.994C134.885 106.58 134.655 106.018 134.655 105.432C134.655 104.846 134.885 104.284 135.294 103.869C135.703 103.455 136.257 103.222 136.835 103.222H158.398C158.976 103.222 159.531 103.455 159.94 103.869C160.349 104.284 160.578 104.846 160.578 105.432C160.578 106.018 160.349 106.58 159.94 106.994C159.531 107.409 158.976 107.642 158.398 107.642Z" fill="#FFB946"/>
<path d="M154.931 116.381H136.835C136.257 116.381 135.703 116.148 135.294 115.733C134.885 115.319 134.655 114.757 134.655 114.171C134.655 113.585 134.885 113.023 135.294 112.609C135.703 112.194 136.257 111.961 136.835 111.961H154.931C155.51 111.961 156.064 112.194 156.473 112.609C156.882 113.023 157.112 113.585 157.112 114.171C157.112 114.757 156.882 115.319 156.473 115.733C156.064 116.148 155.51 116.381 154.931 116.381Z" fill="#FFB946"/>
<path d="M103.63 296.652H87.7035C83.8226 296.652 80.683 299.138 80.683 302.176V311.722C80.683 314.793 83.8226 317.246 87.7035 317.246H103.63V296.652Z" fill="#FFB946"/>
<path d="M29.6107 341.607L24.0729 252.272C23.5859 244.417 24.6922 236.544 27.3234 229.139C29.9547 221.733 34.0551 214.953 39.3718 209.216C44.6885 203.479 51.1087 198.906 58.2363 195.781C65.3639 192.655 73.0477 191.043 80.8139 191.044C95.3401 191.043 109.316 196.676 119.873 206.788C130.43 216.9 136.769 230.724 137.588 245.422L143.387 349.76H38.1355C35.9591 349.751 33.8678 348.903 32.285 347.389C30.7021 345.875 29.7462 343.808 29.6107 341.607Z" fill="#FFB946"/>
<path opacity="0.1" d="M29.4145 338.37L24.0729 252.272C23.5859 244.417 24.6922 236.544 27.3234 229.139C29.9547 221.733 34.0551 214.953 39.3718 209.216C44.6885 203.479 51.1087 198.906 58.2363 195.781C65.3639 192.655 73.0477 191.043 80.8139 191.044C95.3401 191.043 109.316 196.676 119.873 206.788C130.43 216.9 136.769 230.724 137.588 245.422L143.387 349.76H41.4059C38.3517 349.767 35.4103 348.591 33.1819 346.475C30.9535 344.358 29.6061 341.459 29.4145 338.37Z" fill="black"/>
<path d="M46.682 349.76L40.6428 252.272C40.1557 244.416 41.2623 236.542 43.8942 229.136C46.5262 221.73 50.6276 214.949 55.9454 209.212C61.2633 203.474 67.6848 198.902 74.8136 195.778C81.9425 192.653 89.6276 191.042 97.3947 191.044C111.919 191.046 125.892 196.68 136.447 206.792C147.002 216.904 153.339 230.726 154.157 245.422L159.968 349.76H46.682Z" fill="#FFB946"/>
<path d="M44.8725 366.542H43.4226C43.0303 366.517 42.6594 366.352 42.3745 366.077C42.0896 365.803 41.9088 365.436 41.8637 365.04L39.6835 349.76H48.5244L46.3441 365.04C46.3063 365.423 46.1393 365.782 45.8714 366.056C45.6034 366.329 45.2507 366.501 44.8725 366.542Z" fill="#FFB946"/>
<path opacity="0.7" d="M44.8725 366.542H43.4226C43.0303 366.517 42.6594 366.352 42.3745 366.077C42.0896 365.803 41.9088 365.436 41.8637 365.04L39.6835 349.76H48.5244L46.3441 365.04C46.3063 365.423 46.1393 365.782 45.8714 366.056C45.6034 366.329 45.2507 366.501 44.8725 366.542Z" fill="white"/>
<path d="M187.297 366.542H185.978C185.606 366.501 185.261 366.328 185.003 366.052C184.746 365.777 184.593 365.419 184.572 365.04L182.632 349.76H190.644L188.704 365.04C188.683 365.419 188.53 365.777 188.272 366.052C188.015 366.328 187.669 366.501 187.297 366.542Z" fill="#FFB946"/>
<path opacity="0.5" d="M187.297 366.542H185.978C185.606 366.501 185.261 366.328 185.003 366.052C184.746 365.777 184.593 365.419 184.572 365.04L182.632 349.76H190.644L188.704 365.04C188.683 365.419 188.53 365.777 188.272 366.052C188.015 366.328 187.669 366.501 187.297 366.542Z" fill="white"/>
<path d="M146.298 366.542H144.968C144.596 366.501 144.25 366.328 143.993 366.052C143.735 365.777 143.582 365.419 143.561 365.04L141.61 349.76H149.633L147.693 365.04C147.67 365.416 147.518 365.772 147.263 366.047C147.008 366.321 146.667 366.497 146.298 366.542Z" fill="#FFB946"/>
<path opacity="0.7" d="M146.298 366.542H144.968C144.596 366.501 144.25 366.328 143.993 366.052C143.735 365.777 143.582 365.419 143.561 365.04L141.61 349.76H149.633L147.693 365.04C147.67 365.416 147.518 365.772 147.263 366.047C147.008 366.321 146.667 366.497 146.298 366.542Z" fill="white"/>
<path d="M89.0225 366.542H87.5726C87.1796 366.519 86.8075 366.355 86.5222 366.08C86.2369 365.805 86.0568 365.437 86.0137 365.04L83.8335 349.76H92.6744L90.4942 365.04C90.4563 365.423 90.2894 365.782 90.0214 366.056C89.7534 366.329 89.4007 366.501 89.0225 366.542Z" fill="#FFB946"/>
<path opacity="0.5" d="M89.0225 366.542H87.5726C87.1796 366.519 86.8075 366.355 86.5222 366.08C86.2369 365.805 86.0568 365.437 86.0137 365.04L83.8335 349.76H92.6744L90.4942 365.04C90.4563 365.423 90.2894 365.782 90.0214 366.056C89.7534 366.329 89.4007 366.501 89.0225 366.542Z" fill="white"/>
<path d="M137.021 312.937H175.786L178.347 275.097L178.892 266.966L179.154 263.221C179.221 262.238 179.345 261.261 179.525 260.293C179.525 260.083 179.623 259.862 179.666 259.652C179.69 259.49 179.73 259.331 179.786 259.177C180.831 255.32 182.866 251.813 185.684 249.013C188.932 245.759 193.227 243.798 197.784 243.489H161.32C160.916 243.489 160.524 243.489 160.12 243.489C155.174 243.514 150.433 245.496 146.908 249.013C144.09 251.813 142.055 255.32 141.011 259.177C140.954 259.331 140.914 259.49 140.891 259.652C140.635 260.828 140.463 262.02 140.378 263.221L140.128 266.966L137.021 312.937Z" fill="#FFB946"/>
<path opacity="0.1" d="M137.021 312.937H175.786L178.347 275.097L178.892 266.966L179.154 263.221C179.221 262.238 179.345 261.261 179.525 260.293C179.525 260.083 179.623 259.862 179.666 259.652C179.69 259.49 179.73 259.331 179.786 259.177C180.831 255.32 182.866 251.813 185.684 249.013C188.932 245.759 193.227 243.798 197.784 243.489H161.32C160.916 243.489 160.524 243.489 160.12 243.489C155.174 243.514 150.433 245.496 146.908 249.013C144.09 251.813 142.055 255.32 141.011 259.177C140.954 259.331 140.914 259.49 140.891 259.652C140.635 260.828 140.463 262.02 140.378 263.221L140.128 266.966L137.021 312.937Z" fill="black"/>
<g opacity="0.1">
<path opacity="0.1" d="M106.301 292.774H90.7231C86.9404 292.774 83.8771 295.205 83.8771 298.199V307.535C83.8771 310.529 86.9404 312.959 90.7231 312.959H106.301V292.774Z" fill="black"/>
</g>
<path d="M169.866 292.763H101.297C98.0342 292.763 95.3889 295.444 95.3889 298.751V306.96C95.3889 310.267 98.0342 312.948 101.297 312.948H169.866C173.129 312.948 175.775 310.267 175.775 306.96V298.751C175.775 295.444 173.129 292.763 169.866 292.763Z" fill="#FFB946"/>
<path d="M8.15702 265.784C8.14778 271.066 9.98219 276.182 13.3358 280.225C16.6894 284.269 21.346 286.981 26.482 287.88L30.5046 341.673C30.8534 346.247 34.1238 349.76 38.0482 349.76H80.8138C76.8894 349.76 73.619 346.247 73.2702 341.673L71.0899 312.948L69.2149 287.858C65.8597 287.263 62.6858 285.889 59.9417 283.844C57.1976 281.799 54.9577 279.138 53.3972 276.07C53.1901 275.672 53.0048 275.263 52.8303 274.854C51.5656 272.003 50.9152 268.91 50.9226 265.784C50.923 264.247 51.0801 262.714 51.3914 261.21C51.5113 260.613 51.6639 260.017 51.8165 259.442C52.5988 256.808 53.8433 254.338 55.4902 252.151C57.5276 249.47 60.1362 247.291 63.1211 245.776C66.1653 244.225 69.5249 243.415 72.9322 243.412H30.243C28.0251 243.41 25.8199 243.749 23.7022 244.417C19.3409 245.78 15.5051 248.483 12.7246 252.151C9.75849 256.059 8.15241 260.853 8.15702 265.784Z" fill="#FFB946"/>
<path opacity="0.1" d="M8.15702 265.784C8.14778 271.066 9.98219 276.182 13.3358 280.225C16.6894 284.269 21.346 286.981 26.482 287.88L30.5046 341.673C30.8534 346.247 34.1238 349.76 38.0482 349.76H80.8138C76.8894 349.76 73.619 346.247 73.2702 341.673L71.0899 312.948L69.2149 287.858C65.8597 287.263 62.6858 285.889 59.9417 283.844C57.1976 281.799 54.9577 279.138 53.3972 276.07C53.1901 275.672 53.0048 275.263 52.8303 274.854C51.5656 272.003 50.9152 268.91 50.9226 265.784C50.923 264.247 51.0801 262.714 51.3914 261.21C51.5113 260.613 51.6639 260.017 51.8165 259.442C52.5988 256.808 53.8433 254.338 55.4902 252.151C57.5276 249.47 60.1362 247.291 63.1211 245.776C66.1653 244.225 69.5249 243.415 72.9322 243.412H30.243C28.0251 243.41 25.8199 243.749 23.7022 244.417C19.3409 245.78 15.5051 248.483 12.7246 252.151C9.75849 256.059 8.15241 260.853 8.15702 265.784Z" fill="black"/>
<path d="M50.9117 265.784C50.9117 276.832 58.0956 286.046 67.5252 287.88L71.1662 341.717C71.4824 346.302 74.4366 349.805 78.0122 349.805H192.192C195.746 349.805 198.733 346.302 199.038 341.717L202.69 287.803C211.923 285.836 218.911 276.755 218.911 265.828C218.936 261.246 217.657 256.754 215.226 252.891C213.38 249.946 210.84 247.513 207.835 245.809C205.103 244.261 202.026 243.448 198.896 243.445C193.949 243.467 189.208 245.45 185.684 248.969C182.864 251.769 180.826 255.276 179.775 259.133C179.728 259.288 179.691 259.447 179.666 259.608C179.405 260.782 179.234 261.975 179.154 263.177L178.892 266.922L175.786 312.926H94.4186L91.0501 263.21C90.5596 256.183 87.1911 250.328 82.5035 247.555C79.5362 245.161 75.9203 243.739 72.1364 243.478C71.7331 243.478 71.3406 243.478 70.9373 243.478C67.8934 243.461 64.8942 244.221 62.2163 245.687C62.1287 245.719 62.0447 245.76 61.9656 245.809C59.2077 247.374 56.8369 249.554 55.0324 252.184C52.3239 256.186 50.8862 260.931 50.9117 265.784Z" fill="#FFB946"/>
<path opacity="0.1" d="M96.2937 349.76H192.225C195.778 349.76 198.765 346.258 199.071 341.673L202.723 287.759C211.956 285.792 218.944 276.71 218.944 265.784C218.969 261.202 217.689 256.71 215.259 252.847C213.412 249.902 210.872 247.468 207.868 245.765C205.136 244.217 202.059 243.403 198.929 243.4C193.982 243.423 189.24 245.406 185.717 248.924C182.897 251.725 180.859 255.232 179.808 259.089C179.76 259.244 179.724 259.403 179.699 259.564C179.438 260.738 179.266 261.931 179.187 263.132L178.925 266.878L175.818 312.882H94.4186L96.2937 349.76Z" fill="white"/>
<path d="M125.487 368.774L134.786 371.382L143.136 349.23L133.838 346.623L125.487 368.774Z" fill="#FFC3BD"/>
<path d="M138.95 368.443C138.216 367.479 137.156 366.826 135.974 366.609L126.436 364.72C126.213 364.654 125.974 364.68 125.77 364.792C125.566 364.903 125.414 365.092 125.345 365.316L122.391 374.155C122.307 374.395 122.27 374.649 122.283 374.904C122.296 375.158 122.358 375.408 122.467 375.638C122.575 375.868 122.727 376.074 122.914 376.244C123.102 376.414 123.32 376.545 123.558 376.629H123.623C127.155 378.044 129.542 377.557 135.058 378.64C138.471 379.303 145.611 381.601 150.386 381.402C155.16 381.203 155.149 376.419 153.144 376.066C146.058 374.961 140.607 370.63 138.95 368.443Z" fill="#263238"/>
<g opacity="0.2">
<path opacity="0.2" d="M143.136 349.241L138.83 360.665L129.532 358.035L133.827 346.623L143.136 349.241Z" fill="black"/>
</g>
<path d="M112.1 265.154C112.1 265.154 168.089 264.845 166.345 283.848C165.168 296.685 159.085 310.175 154.354 323.201C147.475 342.082 141.512 358.555 141.512 358.555L128.758 354.08C128.758 354.08 140.215 299.481 147.933 293.89H100.589C84.9236 293.89 78.1539 276.456 93.4048 256.128C102.725 256.161 112.1 265.154 112.1 265.154Z" fill="#FFB946"/>
<path opacity="0.6" d="M112.1 265.154C112.1 265.154 168.089 264.845 166.345 283.848C167.206 295.658 141.501 358.533 141.501 358.533L128.747 354.058C128.747 354.058 140.204 299.458 147.922 293.868H100.589C84.9236 293.868 78.1539 276.434 93.4048 256.106C102.725 256.161 112.1 265.154 112.1 265.154Z" fill="black"/>
<path d="M151.585 230.651C144.695 237.026 131.167 221.934 128.986 220.144C124.321 216.277 110.607 203.307 111.326 198.799C113.507 185.542 134.96 204.323 141.163 217.272L151.585 230.651Z" fill="#263238"/>
<path d="M91.2899 190.756C87.8342 191.497 84.0951 190.237 81.6641 192.833C79.2332 195.43 78.2193 199.076 77.8705 202.633C77.5635 207.603 77.8196 212.593 78.6336 217.504C79.3603 223.492 80.1198 229.476 80.912 235.457C81.4034 240.383 81.2163 245.354 80.356 250.228C80.2653 250.746 80.3466 251.28 80.5873 251.745C80.828 252.211 81.2144 252.583 81.6859 252.802C81.6859 252.802 108.492 253.73 116.287 253.432C120.429 253.277 117.584 242.229 118.859 235.755C119.143 234.319 121.912 228.419 122.326 226.917C124.244 219.791 122.969 214.885 121.236 207.726C119.938 202.523 119.404 195.021 116.788 194.468C112.079 193.485 100.905 188.679 91.2899 190.756Z" fill="#FFB946"/>
<path opacity="0.8" d="M91.2899 190.756C87.8342 191.497 84.0951 190.237 81.6641 192.833C79.2332 195.43 78.2193 199.076 77.8705 202.633C77.5635 207.603 77.8196 212.593 78.6336 217.504C79.3603 223.492 80.1198 229.476 80.912 235.457C81.4034 240.383 81.2163 245.354 80.356 250.228C80.2653 250.746 80.3466 251.28 80.5873 251.745C80.828 252.211 81.2144 252.583 81.6859 252.802C81.6859 252.802 108.492 253.73 116.287 253.432C120.429 253.277 117.584 242.229 118.859 235.755C119.143 234.319 121.912 228.419 122.326 226.917C124.244 219.791 122.969 214.885 121.236 207.726C119.938 202.523 119.404 195.021 116.788 194.468C112.079 193.485 100.905 188.679 91.2899 190.756Z" fill="white"/>
<path d="M87.4636 195.861C87.1039 195.308 77.6525 187.265 75.9628 196.557C73.5754 209.494 78.5137 222.221 78.5137 222.221C78.5137 222.221 79.6038 236.219 83.6591 237.622C87.7143 239.025 91.4862 239.368 92.8379 236.97C93.7121 235.101 94.1734 233.062 94.1897 230.993C94.1897 230.993 93.7318 205.494 87.4636 195.861Z" fill="#263238"/>
<path d="M93.9935 173.002C94.9637 178.957 95.7813 189.839 91.5843 193.673C91.5843 193.673 101.842 199.12 108.579 208.621C110.075 207.49 111.181 205.909 111.741 204.105C112.301 202.3 112.285 200.363 111.697 198.567C111.359 197.434 110.799 196.383 110.05 195.475C109.3 194.568 108.377 193.823 107.337 193.286C103.358 191.077 103.739 186.901 104.829 182.99L93.9935 173.002Z" fill="#E8BFBF"/>
<path opacity="0.2" d="M95.3344 183.111L99.1607 184.603C100.799 185.244 102.552 185.53 104.306 185.442C104.033 186.657 104.033 187.918 104.306 189.132C102.934 189.512 101.483 189.481 100.129 189.042C98.774 188.602 97.5744 187.774 96.6752 186.657C96.0568 185.549 95.6049 184.354 95.3344 183.111Z" fill="black"/>
<path d="M190.317 349.727H200.738L189.826 323.245L182.762 335.398L190.317 349.727Z" fill="#FFC3BD"/>
<path d="M199.877 347.219L187.657 344.402C187.448 344.349 187.226 344.377 187.036 344.481C186.846 344.586 186.702 344.759 186.632 344.966L183.22 354.489C183.152 354.729 183.131 354.981 183.159 355.229C183.186 355.477 183.262 355.717 183.382 355.936C183.501 356.155 183.662 356.347 183.855 356.503C184.048 356.658 184.269 356.774 184.507 356.842C188.791 357.748 190.895 357.947 196.269 359.195C199.539 359.958 207.955 362.19 212.523 363.239C217.09 364.289 218.289 359.759 216.469 358.897C208.315 355.075 203.9 351.418 201.534 348.302C201.121 347.759 200.536 347.376 199.877 347.219Z" fill="#263238"/>
<g opacity="0.2">
<path opacity="0.2" d="M189.826 323.245L194.47 334.525L185.095 339.828L182.762 335.409L189.826 323.245Z" fill="black"/>
</g>
<path d="M80.1489 252.924L79.0588 256.526C78.9171 256.802 79.2332 257.089 79.691 257.111L120.026 258.349C120.396 258.349 120.691 258.194 120.723 257.962L121.192 254.338C121.192 254.095 120.909 253.874 120.527 253.852L80.8466 252.637C80.7155 252.616 80.5813 252.632 80.4584 252.682C80.3355 252.733 80.2285 252.816 80.1489 252.924Z" fill="#263238"/>
<path d="M130.6 282.478C117.333 288.212 102.943 293.934 95.1163 293.934C79.4403 293.934 65.5194 282.466 80.356 256.371C89.6875 256.371 105.898 256.636 105.898 256.636C105.898 256.636 136.421 247.798 158.638 250.405C163.902 251.028 168.837 253.325 172.732 256.968C176.628 260.61 179.285 265.41 180.32 270.678C185.945 299.403 194.612 330.47 194.612 330.47L183.46 338.204C183.46 338.204 166.073 301.16 156.065 271.783C150.767 273.473 141.032 277.97 130.6 282.478Z" fill="#FFB946"/>
<path opacity="0.5" d="M180.32 270.678C179.289 265.406 176.634 260.601 172.738 256.954C168.842 253.308 163.905 251.007 158.638 250.383C136.465 247.82 105.898 256.614 105.898 256.614C105.898 256.614 89.6875 256.316 80.356 256.349C65.2796 282.334 79.4403 293.912 95.1163 293.912C102.943 293.912 117.333 288.189 130.6 282.455C141.032 277.948 150.767 273.451 156.065 271.728C166.073 301.138 183.46 338.193 183.46 338.193L194.612 330.459C194.612 330.459 185.946 299.403 180.32 270.678Z" fill="black"/>
<path d="M166.345 283.936C165.991 287.627 165.445 291.296 164.71 294.929C164.655 294.807 164.612 294.697 164.568 294.575C164.525 294.454 164.568 294.52 164.568 294.487C164.532 294.365 164.485 294.246 164.426 294.133C161.461 286.665 158.562 279.008 156.109 271.794H156.185C162.53 274.523 166.857 278.412 166.345 283.936Z" fill="#FFB946"/>
<path opacity="0.6" d="M166.345 283.936C165.991 287.627 165.445 291.296 164.71 294.929C164.655 294.807 164.612 294.697 164.568 294.575C164.525 294.454 164.568 294.52 164.568 294.487C164.532 294.365 164.485 294.246 164.426 294.133C161.461 286.665 158.562 279.008 156.109 271.794H156.185C162.53 274.523 166.857 278.412 166.345 283.936Z" fill="black"/>
<path d="M86.8422 167.279C90.1126 176.615 91.3118 180.636 97.4383 184.138C106.672 189.419 117.246 183.277 116.788 173.09C116.374 163.976 111.087 150.232 100.839 149.127C98.5787 148.869 96.2905 149.202 94.1926 150.094C92.0947 150.986 90.2568 152.407 88.8538 154.222C87.4508 156.036 86.5295 158.185 86.1774 160.463C85.8253 162.741 86.0542 165.072 86.8422 167.235V167.279Z" fill="#E8BFBF"/>
<path d="M103.401 166.064C103.63 166.87 104.208 167.345 104.709 167.169C105.211 166.992 105.407 166.285 105.211 165.5C105.015 164.716 104.415 164.219 103.903 164.396C103.39 164.572 103.183 165.29 103.401 166.064Z" fill="#263238"/>
<path d="M111.959 163.324C112.188 164.141 112.765 164.617 113.267 164.429C113.768 164.241 113.965 163.545 113.768 162.76C113.572 161.976 112.962 161.479 112.471 161.656C111.981 161.832 111.741 162.562 111.959 163.324Z" fill="#263238"/>
<path d="M112.264 161.777L113.943 160.672C113.943 160.672 113.409 162.407 112.264 161.777Z" fill="#263238"/>
<path d="M108.896 165.092C110.075 166.661 111.462 168.059 113.016 169.246C112.704 169.637 112.311 169.953 111.864 170.173C111.418 170.393 110.929 170.51 110.433 170.516L108.896 165.092Z" fill="#ED847E"/>
<path d="M80.8248 173.455C81.4945 175.136 82.0019 176.879 82.3401 178.659C82.4329 180.449 81.8647 182.21 80.7462 183.599C79.6277 184.988 78.0391 185.905 76.2899 186.171C77.8132 186.583 79.4299 186.448 80.8663 185.789C82.3027 185.131 83.4703 183.99 84.1715 182.559C83.3381 184.808 81.6886 186.649 79.5602 187.707C81.0815 187.724 82.5861 187.385 83.9569 186.716C85.3277 186.047 86.5278 185.067 87.4636 183.851C86.9513 185.199 86.3735 186.536 85.9157 187.884C88.5041 186.295 90.6297 184.038 92.0749 181.343C92.6526 180.239 93.0887 178.802 92.3256 177.83C91.5625 176.858 90.3525 176.924 89.2405 176.902C88.1286 176.88 86.7878 176.615 86.3844 175.565C85.9811 174.516 86.7223 173.466 87.529 172.748C88.3357 172.03 89.3059 171.367 89.6003 170.317C89.7399 169.558 89.6874 168.775 89.4477 168.041C88.9462 166.009 88.452 163.972 87.9651 161.932C87.8327 161.212 87.5782 160.52 87.2129 159.888C85.0327 156.574 82.6017 161.435 81.7623 163.081C80.1911 166.301 79.8569 169.999 80.8248 173.455Z" fill="#263238"/>
<path d="M86.1991 176.427C87.4338 178.053 89.2511 179.121 91.2573 179.399C93.9281 179.73 94.8656 177.189 93.7973 174.88C92.827 172.759 90.2761 170.052 87.758 170.77C85.2398 171.488 84.6947 174.394 86.1991 176.427Z" fill="#E8BFBF"/>
<path d="M103.543 159.391C103.525 159.494 103.477 159.589 103.405 159.664C103.333 159.739 103.241 159.79 103.14 159.811C100.959 160.23 99.6948 162.893 99.6948 162.915C99.6401 163.036 99.541 163.13 99.4188 163.177C99.2966 163.225 99.1609 163.222 99.0407 163.169C98.9246 163.114 98.8344 163.015 98.7896 162.893C98.7448 162.771 98.7488 162.636 98.8009 162.517C98.899 162.418 100.251 159.358 102.954 158.827C103.081 158.808 103.21 158.838 103.316 158.912C103.421 158.986 103.495 159.098 103.521 159.225C103.544 159.277 103.552 159.335 103.543 159.391Z" fill="#263238"/>
<path d="M109.364 157.181C109.291 157.17 109.217 157.173 109.146 157.193C109.074 157.212 109.008 157.245 108.95 157.292C108.83 157.424 108.427 157.656 108.656 157.778C109.986 158.463 111.828 159.59 113.245 159.358C113.485 159.358 114.052 159.104 113.932 158.927C113.85 158.838 113.747 158.771 113.632 158.735C113.517 158.698 113.395 158.692 113.278 158.717C112.188 158.872 110.651 157.8 109.604 157.247C109.527 157.215 109.447 157.193 109.364 157.181Z" fill="#263238"/>
<path d="M103.696 164.506L105.385 163.401C105.385 163.401 104.851 165.158 103.696 164.506Z" fill="#263238"/>
<path d="M103.543 145.039C99.8256 144.354 99.346 144.1 95.5741 144.343C91.7644 144.464 88.0808 145.755 85.0108 148.044C82.1429 150.447 80.1197 153.726 79.2441 157.391C78.3871 161.043 78.2906 164.836 78.9606 168.528C79.081 170.291 79.8331 171.949 81.0755 173.19C81.202 171.204 81.5345 169.238 82.0675 167.323C82.6233 165.39 83.768 163.685 85.3379 162.451C86.0308 162.071 86.6277 161.534 87.0821 160.882C87.318 160.238 87.4504 159.559 87.4745 158.872C87.8163 157.325 88.729 155.969 90.0254 155.082C91.313 154.216 92.6913 153.497 94.1352 152.939C98.7246 150.939 103.728 149.79 107.958 147.094C106.574 146.23 105.091 145.54 103.543 145.039Z" fill="#263238"/>
<path d="M84.5203 159.822C85.5185 161.05 86.8849 161.915 88.412 162.285C90.2216 162.705 94.7457 162.595 95.0182 162.12C95.2907 161.645 93.6773 156.496 91.8459 156.187C93.1094 157.423 94.6182 158.372 96.2718 158.971C98.1429 159.35 100.069 159.35 101.94 158.971C102.9 158.75 100.752 154.729 99.1934 153.579C103.892 154.574 108.863 155.712 112.275 159.104C115.687 162.495 117.159 167.865 116.984 172.869C117.784 172.217 118.426 171.388 118.862 170.446C119.299 169.504 119.518 168.474 119.502 167.434C120.325 170.022 120.627 172.751 120.389 175.459C120.151 178.167 119.379 180.8 118.118 183.199C123.111 179.045 124.975 171.787 123.667 165.379C122.359 158.971 118.216 153.392 113.191 149.293C108.83 145.791 103.641 143.172 98.1142 143.04C90.8648 142.819 77.4345 151.171 84.5203 159.822Z" fill="#263238"/>
<path d="M90.3961 189.364C90.3961 189 90.4833 188.514 90.5269 188.005C90.6221 186.839 90.2868 185.678 89.586 184.747C88.8852 183.816 87.8687 183.182 86.7332 182.967C86.3961 182.906 86.0811 182.755 85.8206 182.53C85.5601 182.305 85.3633 182.014 85.2507 181.686C84.4113 179.211 84.0842 178.46 83.2775 176.029C81.0973 175.488 78.4701 176.316 76.1917 176.56C75.5599 179.332 75.5154 182.209 76.0609 185C76.1483 185.625 76.3882 186.217 76.7586 186.724C78.8274 188.442 81.1155 189.869 83.561 190.966C85.5232 191.574 88.2812 189.552 90.3961 189.364Z" fill="#E8BFBF"/>
<path d="M83.7899 191.021C83.7899 191.021 77.7833 230.297 83.9752 236.319C87.6053 239.832 90.7449 237.887 92.6962 235.689C93.4115 234.87 93.9497 233.908 94.2764 232.865C94.6031 231.822 94.7109 230.722 94.593 229.635L90.3742 189.397C90.3742 189.397 86.2318 186.912 83.7899 191.021Z" fill="#E8BFBF"/>
<path d="M148.325 226.486C150.792 224.304 152.56 221.427 153.405 218.222C153.598 217.091 153.671 215.943 153.623 214.797C153.569 207.682 151.585 194.634 151.585 194.634L145.883 192.723C145.883 192.723 144.107 202.666 143.703 208.102C143.627 209.207 143.507 210.433 143.376 211.77C143.125 214.2 142.82 216.874 142.548 219.095L148.325 226.486Z" fill="#E8BFBF"/>
<path d="M151.585 230.651C153.34 229.027 153.634 227.06 154.539 222.917C155.4 218.962 154.43 214.079 153.623 214.819C153.523 214.912 153.447 215.03 153.405 215.162C152.021 218.476 146.636 215.57 145.109 213.913C144.452 213.28 143.874 212.567 143.387 211.792C143.187 211.496 143.08 211.145 143.08 210.787C143.08 210.428 143.187 210.077 143.387 209.781C141.73 209.085 140.4 215.692 141.207 217.316L141.621 218.542C142.278 220.532 143.29 222.382 144.608 224L147.606 227.657L151.585 230.651Z" fill="#263238"/>
<path d="M145.731 193.551L145.055 183.454C146.818 184.304 148.64 185.024 150.506 185.608C153.274 186.569 157.046 184.879 156.174 186.713C154.784 189.441 153.233 192.083 151.53 194.623L145.731 193.551Z" fill="#E8BFBF"/>
<path d="M145.055 183.454L149.328 173.345L154.91 176.803C156.447 180.183 156.261 186.746 156.261 186.746C156.261 186.746 148.5 187.055 145.055 183.454Z" fill="#E8BFBF"/>
<path d="M108.241 175.665C108.383 176.383 108.895 176.891 109.332 176.769C109.768 176.648 110.04 176.007 109.888 175.289C109.735 174.571 109.233 174.063 108.797 174.184C108.361 174.306 108.089 174.991 108.241 175.665Z" fill="#263238"/>
<path d="M94.4186 312.937L91.0501 263.221C90.5596 256.194 87.1911 250.339 82.5035 247.566C79.5362 245.172 75.9203 243.75 72.1365 243.489C71.7331 243.489 71.3407 243.489 70.9373 243.489C67.8934 243.472 64.8942 244.232 62.2163 245.698C62.1287 245.73 62.0447 245.771 61.9656 245.82C59.2077 247.385 56.8369 249.565 55.0324 252.195C52.3098 256.204 50.8641 260.961 50.8899 265.828C50.8899 276.876 58.0739 286.09 67.5034 287.924L71.1444 341.762C71.4606 346.347 74.4148 349.849 77.9904 349.849H96.2718L94.4186 312.937Z" fill="#FFB946"/>
<path opacity="0.1" d="M94.4186 312.937L91.0501 263.221C90.5596 256.194 87.1911 250.339 82.5035 247.566C79.5362 245.172 75.9203 243.75 72.1365 243.489C71.7331 243.489 71.3407 243.489 70.9373 243.489C67.8934 243.472 64.8942 244.232 62.2163 245.698C62.1287 245.73 62.0447 245.771 61.9656 245.82C59.2077 247.385 56.8369 249.565 55.0324 252.195C52.3098 256.204 50.8641 260.961 50.8899 265.828C50.8899 276.876 58.0739 286.09 67.5034 287.924L71.1444 341.762C71.4606 346.347 74.4148 349.849 77.9904 349.849H96.2718L94.4186 312.937Z" fill="white"/>
<path d="M224.721 403.775C244.914 403.775 261.284 399.531 261.284 394.295C261.284 389.06 244.914 384.816 224.721 384.816C204.528 384.816 188.158 389.06 188.158 394.295C188.158 399.531 204.528 403.775 224.721 403.775Z" fill="#263238"/>
<path opacity="0.3" d="M224.721 400.615C244.914 400.615 261.284 397.078 261.284 392.715C261.284 388.353 244.914 384.816 224.721 384.816C204.528 384.816 188.158 388.353 188.158 392.715C188.158 397.078 204.528 400.615 224.721 400.615Z" fill="white"/>
<path d="M227.741 392.704H221.702L214.725 316.45H234.718L227.741 392.704Z" fill="#263238"/>
<path d="M234.718 316.45C234.718 318.66 230.248 320.472 224.721 320.472C219.194 320.472 214.725 318.671 214.725 316.45C214.725 314.23 219.205 312.429 224.721 312.429C230.237 312.429 234.718 314.23 234.718 316.45Z" fill="#263238"/>
<path opacity="0.7" d="M234.718 316.45C234.718 318.66 230.248 320.472 224.721 320.472C219.194 320.472 214.725 318.671 214.725 316.45C214.725 314.23 219.205 312.429 224.721 312.429C230.237 312.429 234.718 314.23 234.718 316.45Z" fill="white"/>
<path opacity="0.7" d="M102.453 317.644C102.48 317.187 102.597 316.741 102.798 316.331C102.998 315.921 103.277 315.556 103.619 315.257C112.068 323.875 165.669 330.515 230.532 330.515C295.394 330.515 348.995 323.886 357.455 315.257C357.797 315.556 358.076 315.921 358.276 316.331C358.477 316.741 358.594 317.187 358.621 317.644C358.621 327.377 301.27 335.321 230.532 335.321C159.793 335.321 102.453 327.377 102.453 317.644Z" fill="white"/>
<path opacity="0.7" d="M103.663 319.842C112.111 311.225 165.713 304.596 230.575 304.596C295.438 304.596 349.039 311.225 357.498 319.842C349.039 328.46 295.438 335.1 230.575 335.1C165.713 335.1 112.111 328.46 103.663 319.842Z" fill="white"/>
<path opacity="0.7" d="M102.453 317.301C102.453 307.557 159.793 299.624 230.532 299.624C301.27 299.624 358.621 307.513 358.621 317.301C358.595 317.756 358.478 318.201 358.278 318.61C358.077 319.018 357.797 319.381 357.455 319.676C348.995 311.059 295.394 304.43 230.532 304.43C165.669 304.43 112.068 311.059 103.619 319.676C103.277 319.381 102.997 319.018 102.796 318.61C102.596 318.201 102.479 317.756 102.453 317.301Z" fill="white"/>
<path d="M279.98 308.717L226.389 307.689C226.245 307.674 226.104 307.63 225.977 307.559C225.85 307.489 225.737 307.393 225.647 307.278C225.557 307.162 225.49 307.03 225.451 306.888C225.412 306.746 225.401 306.598 225.419 306.452C225.407 306.305 225.424 306.157 225.47 306.017C225.515 305.877 225.588 305.748 225.683 305.636C225.779 305.525 225.895 305.434 226.026 305.37C226.156 305.305 226.298 305.267 226.444 305.259L280.034 306.286C280.18 306.3 280.321 306.343 280.45 306.413C280.578 306.483 280.692 306.579 280.783 306.694C280.875 306.81 280.943 306.943 280.982 307.085C281.022 307.227 281.033 307.377 281.015 307.524C281.027 307.671 281.01 307.82 280.963 307.961C280.917 308.102 280.844 308.231 280.747 308.343C280.651 308.454 280.533 308.545 280.401 308.609C280.269 308.673 280.126 308.71 279.98 308.717Z" fill="#263238"/>
<path opacity="0.2" d="M279.98 308.717L226.389 307.689C226.245 307.674 226.104 307.63 225.977 307.559C225.85 307.489 225.737 307.393 225.647 307.278C225.557 307.162 225.49 307.03 225.451 306.888C225.412 306.746 225.401 306.598 225.419 306.452C225.407 306.305 225.424 306.157 225.47 306.017C225.515 305.877 225.588 305.748 225.683 305.636C225.779 305.525 225.895 305.434 226.026 305.37C226.156 305.305 226.298 305.267 226.444 305.259L280.034 306.286C280.18 306.3 280.321 306.343 280.45 306.413C280.578 306.483 280.692 306.579 280.783 306.694C280.875 306.81 280.943 306.943 280.982 307.085C281.022 307.227 281.033 307.377 281.015 307.524C281.027 307.671 281.01 307.82 280.963 307.961C280.917 308.102 280.844 308.231 280.747 308.343C280.651 308.454 280.533 308.545 280.401 308.609C280.269 308.673 280.126 308.71 279.98 308.717Z" fill="white"/>
<path d="M306.001 304.751L280.383 308.673C280.103 308.673 279.834 308.564 279.631 308.369C279.428 308.173 279.307 307.906 279.293 307.623C279.248 307.326 279.314 307.023 279.477 306.772C279.64 306.521 279.889 306.34 280.176 306.264L305.794 302.342C306.074 302.342 306.343 302.45 306.546 302.646C306.749 302.841 306.87 303.108 306.884 303.392C306.929 303.689 306.863 303.992 306.7 304.243C306.537 304.494 306.288 304.675 306.001 304.751Z" fill="#263238"/>
<path d="M305.772 302.342H251.615L226.444 305.259L278.573 306.253L305.772 302.342Z" fill="#263238"/>
<path opacity="0.6" d="M305.772 302.342H251.615L226.444 305.259L278.573 306.253L305.772 302.342Z" fill="white"/>
<path opacity="0.5" d="M306.001 304.751L280.383 308.673C280.103 308.673 279.834 308.564 279.631 308.369C279.428 308.173 279.307 307.906 279.293 307.623C279.248 307.326 279.314 307.023 279.477 306.772C279.64 306.521 279.889 306.34 280.176 306.264L305.794 302.342C306.074 302.342 306.343 302.45 306.546 302.646C306.749 302.841 306.87 303.108 306.884 303.392C306.929 303.689 306.863 303.992 306.7 304.243C306.537 304.494 306.288 304.675 306.001 304.751Z" fill="white"/>
<path d="M278.573 306.253L228.602 305.303C227.66 305.181 226.795 304.714 226.17 303.989C225.545 303.264 225.204 302.332 225.212 301.37L223.707 270.789C223.598 268.656 224.961 266.944 226.716 266.977L276.687 267.938C277.631 268.055 278.5 268.521 279.125 269.247C279.751 269.973 280.09 270.908 280.078 271.871L281.593 302.441C281.691 304.574 280.339 306.286 278.573 306.253Z" fill="#FFB946"/>
<path opacity="0.2" d="M278.573 306.253L228.602 305.303C227.66 305.181 226.795 304.714 226.17 303.989C225.545 303.264 225.204 302.332 225.212 301.37L223.707 270.789C223.598 268.656 224.961 266.944 226.716 266.977L276.687 267.938C277.631 268.055 278.5 268.521 279.125 269.247C279.751 269.973 280.09 270.908 280.078 271.871L281.593 302.441C281.691 304.574 280.339 306.286 278.573 306.253Z" fill="white"/>
<path d="M277.113 306.098L227.141 305.137C226.197 305.018 225.329 304.552 224.702 303.827C224.075 303.101 223.733 302.168 223.74 301.204L222.236 270.678C222.127 268.546 223.489 266.833 225.255 266.867L275.216 267.817C276.16 267.936 277.028 268.402 277.655 269.127C278.282 269.852 278.624 270.786 278.617 271.75L280.143 302.287C280.23 304.419 278.868 306.132 277.113 306.098Z" fill="#FFB946"/>
<path opacity="0.6" d="M277.113 306.098L227.141 305.137C226.197 305.018 225.329 304.552 224.702 303.827C224.075 303.101 223.733 302.168 223.74 301.204L222.236 270.678C222.127 268.546 223.489 266.833 225.255 266.867L275.216 267.817C276.16 267.936 277.028 268.402 277.655 269.127C278.282 269.852 278.624 270.786 278.617 271.75L280.143 302.287C280.23 304.419 278.868 306.132 277.113 306.098Z" fill="white"/>
<path d="M244.562 285.958C244.708 287.413 245.376 288.763 246.439 289.752C247.501 290.742 248.885 291.302 250.328 291.327C251.007 291.339 251.68 291.204 252.303 290.932C252.927 290.66 253.486 290.257 253.944 289.749C254.401 289.241 254.747 288.641 254.958 287.987C255.17 287.333 255.241 286.642 255.168 285.958C255.01 284.51 254.338 283.171 253.276 282.189C252.215 281.207 250.838 280.65 249.402 280.622C248.726 280.61 248.056 280.744 247.435 281.014C246.814 281.284 246.257 281.685 245.8 282.189C245.343 282.693 244.996 283.289 244.782 283.939C244.569 284.588 244.494 285.276 244.562 285.958Z" fill="white"/>
</svg>
